####
#
# OBJ File Generated by Meshlab
#
####
# Object mount_1_collision.obj
#
# Vertices: 577
# Faces: 1150
#
####
mtllib ./mount_1_collision.obj.mtl

vn 0.7112724 -0.0310638 -0.7022297
v 0.0314700 -0.0013740 -0.0250000
vn 0.7092387 -0.0620489 -0.7022325
v 0.0313801 -0.0027454 -0.0250000
vn 0.7058637 -0.0929313 -0.7022253
v 0.0312305 -0.0041116 -0.0250000
vn 0.7011300 -0.1236312 -0.7022336
v 0.0310214 -0.0054699 -0.0250000
vn 0.6950760 -0.1540738 -0.7022325
v 0.0307533 -0.0068178 -0.0250000
vn 0.6877002 -0.1842581 -0.7022232
v 0.0304267 -0.0081528 -0.0250000
vn 0.6789963 -0.2141035 -0.7022277
v 0.0300421 -0.0094722 -0.0250000
vn 0.6690080 -0.2435068 -0.7022341
v 0.0296003 -0.0107736 -0.0250000
vn 0.6577600 -0.2724404 -0.7022308
v 0.0291022 -0.0120545 -0.0250000
vn 0.6452503 -0.3008890 -0.7022236
v 0.0285487 -0.0133125 -0.0250000
vn 0.6315009 -0.3287436 -0.7022353
v 0.0279408 -0.0145451 -0.0250000
vn 0.6165699 -0.3559826 -0.7022237
v 0.0272798 -0.0157500 -0.0250000
vn 0.6004494 -0.3825181 -0.7022397
v 0.0265668 -0.0169249 -0.0250000
vn 0.5832087 -0.4083575 -0.7022192
v 0.0258033 -0.0180677 -0.0250000
vn 0.5648185 -0.4334137 -0.7022341
v 0.0249906 -0.0191760 -0.0250000
vn 0.5453862 -0.4576357 -0.7022275
v 0.0241304 -0.0202478 -0.0250000
vn 0.5249098 -0.4809715 -0.7022366
v 0.0232242 -0.0212811 -0.0250000
vn 0.5034332 -0.5034331 -0.7022179
v 0.0222739 -0.0222739 -0.0250000
vn 0.4809715 -0.5249098 -0.7022366
v 0.0212811 -0.0232242 -0.0250000
vn 0.4576358 -0.5453861 -0.7022275
v 0.0202478 -0.0241304 -0.0250000
vn 0.4334137 -0.5648183 -0.7022343
v 0.0191760 -0.0249906 -0.0250000
vn 0.4083576 -0.5832087 -0.7022192
v 0.0180677 -0.0258033 -0.0250000
vn 0.3825182 -0.6004493 -0.7022396
v 0.0169249 -0.0265668 -0.0250000
vn 0.3559826 -0.6165698 -0.7022237
v 0.0157500 -0.0272798 -0.0250000
vn 0.3287436 -0.6315007 -0.7022353
v 0.0145451 -0.0279408 -0.0250000
vn 0.3008891 -0.6452503 -0.7022235
v 0.0133125 -0.0285487 -0.0250000
vn 0.2724405 -0.6577598 -0.7022309
v 0.0120545 -0.0291022 -0.0250000
vn 0.2435068 -0.6690079 -0.7022342
v 0.0107736 -0.0296003 -0.0250000
vn 0.2141036 -0.6789963 -0.7022277
v 0.0094722 -0.0300421 -0.0250000
vn 0.1842582 -0.6877002 -0.7022232
v 0.0081528 -0.0304267 -0.0250000
vn 0.1540739 -0.6950759 -0.7022327
v 0.0068178 -0.0307533 -0.0250000
vn 0.1236313 -0.7011299 -0.7022337
v 0.0054699 -0.0310214 -0.0250000
vn 0.0929314 -0.7058637 -0.7022253
v 0.0041116 -0.0312305 -0.0250000
vn 0.0620489 -0.7092385 -0.7022327
v 0.0027454 -0.0313801 -0.0250000
vn 0.0310639 -0.7112724 -0.7022298
v 0.0013740 -0.0314700 -0.0250000
vn -0.0000000 -0.7119536 -0.7022265
v -0.0000000 -0.0315000 -0.0250000
vn -0.0310639 -0.7112724 -0.7022298
v -0.0013740 -0.0314700 -0.0250000
vn -0.0620489 -0.7092386 -0.7022326
v -0.0027454 -0.0313801 -0.0250000
vn -0.0929314 -0.7058636 -0.7022253
v -0.0041116 -0.0312305 -0.0250000
vn -0.1236313 -0.7011300 -0.7022337
v -0.0054699 -0.0310214 -0.0250000
vn -0.1540739 -0.6950760 -0.7022326
v -0.0068178 -0.0307533 -0.0250000
vn -0.1842581 -0.6877001 -0.7022233
v -0.0081528 -0.0304267 -0.0250000
vn -0.2141036 -0.6789963 -0.7022277
v -0.0094722 -0.0300421 -0.0250000
vn -0.2435068 -0.6690080 -0.7022342
v -0.0107736 -0.0296003 -0.0250000
vn -0.2724405 -0.6577599 -0.7022308
v -0.0120545 -0.0291022 -0.0250000
vn -0.3008891 -0.6452502 -0.7022237
v -0.0133125 -0.0285487 -0.0250000
vn -0.3287436 -0.6315008 -0.7022353
v -0.0145451 -0.0279408 -0.0250000
vn -0.3559826 -0.6165699 -0.7022237
v -0.0157500 -0.0272798 -0.0250000
vn -0.3825182 -0.6004493 -0.7022397
v -0.0169249 -0.0265668 -0.0250000
vn -0.4083575 -0.5832087 -0.7022192
v -0.0180677 -0.0258033 -0.0250000
vn -0.4334137 -0.5648184 -0.7022341
v -0.0191760 -0.0249906 -0.0250000
vn -0.4576358 -0.5453861 -0.7022275
v -0.0202478 -0.0241304 -0.0250000
vn -0.4809715 -0.5249097 -0.7022366
v -0.0212811 -0.0232242 -0.0250000
vn -0.5034332 -0.5034332 -0.7022179
v -0.0222739 -0.0222739 -0.0250000
vn -0.5249099 -0.4809715 -0.7022366
v -0.0232242 -0.0212811 -0.0250000
vn -0.5453862 -0.4576357 -0.7022275
v -0.0241304 -0.0202478 -0.0250000
vn -0.5648184 -0.4334137 -0.7022343
v -0.0249906 -0.0191760 -0.0250000
vn -0.5832087 -0.4083575 -0.7022191
v -0.0258033 -0.0180677 -0.0250000
vn -0.6004494 -0.3825182 -0.7022396
v -0.0265668 -0.0169249 -0.0250000
vn -0.6165699 -0.3559825 -0.7022237
v -0.0272798 -0.0157500 -0.0250000
vn -0.6315008 -0.3287436 -0.7022353
v -0.0279408 -0.0145451 -0.0250000
vn -0.6452504 -0.3008891 -0.7022235
v -0.0285487 -0.0133125 -0.0250000
vn -0.6577599 -0.2724404 -0.7022308
v -0.0291022 -0.0120545 -0.0250000
vn -0.6690080 -0.2435067 -0.7022341
v -0.0296003 -0.0107736 -0.0250000
vn -0.6789963 -0.2141035 -0.7022277
v -0.0300421 -0.0094722 -0.0250000
vn -0.6877002 -0.1842581 -0.7022231
v -0.0304267 -0.0081528 -0.0250000
vn -0.6950759 -0.1540738 -0.7022327
v -0.0307533 -0.0068178 -0.0250000
vn -0.7011300 -0.1236312 -0.7022337
v -0.0310214 -0.0054699 -0.0250000
vn -0.7058637 -0.0929313 -0.7022253
v -0.0312305 -0.0041116 -0.0250000
vn -0.7092386 -0.0620489 -0.7022326
v -0.0313801 -0.0027454 -0.0250000
vn -0.7112725 -0.0310638 -0.7022297
v -0.0314700 -0.0013740 -0.0250000
vn -0.7119537 0.0000001 -0.7022265
v -0.0315000 0.0000000 -0.0250000
vn -0.7112724 0.0310639 -0.7022297
v -0.0314700 0.0013740 -0.0250000
vn -0.7092386 0.0620490 -0.7022325
v -0.0313801 0.0027454 -0.0250000
vn -0.7058637 0.0929314 -0.7022253
v -0.0312305 0.0041116 -0.0250000
vn -0.7011300 0.1236313 -0.7022336
v -0.0310214 0.0054699 -0.0250000
vn -0.6950760 0.1540740 -0.7022325
v -0.0307533 0.0068179 -0.0250000
vn -0.6877002 0.1842582 -0.7022232
v -0.0304267 0.0081528 -0.0250000
vn -0.6789963 0.2141037 -0.7022277
v -0.0300421 0.0094722 -0.0250000
vn -0.6690080 0.2435069 -0.7022341
v -0.0296003 0.0107736 -0.0250000
vn -0.6577600 0.2724406 -0.7022308
v -0.0291022 0.0120545 -0.0250000
vn -0.6452502 0.3008891 -0.7022235
v -0.0285487 0.0133125 -0.0250000
vn -0.6315008 0.3287437 -0.7022352
v -0.0279408 0.0145451 -0.0250000
vn -0.6165699 0.3559827 -0.7022235
v -0.0272798 0.0157500 -0.0250000
vn -0.6004494 0.3825182 -0.7022396
v -0.0265668 0.0169249 -0.0250000
vn -0.5832087 0.4083576 -0.7022191
v -0.0258033 0.0180677 -0.0250000
vn -0.5648185 0.4334138 -0.7022340
v -0.0249906 0.0191760 -0.0250000
vn -0.5453862 0.4576358 -0.7022274
v -0.0241304 0.0202478 -0.0250000
vn -0.5249098 0.4809716 -0.7022365
v -0.0232242 0.0212811 -0.0250000
vn -0.5034333 0.5034333 -0.7022179
v -0.0222739 0.0222739 -0.0250000
vn -0.4809715 0.5249099 -0.7022365
v -0.0212811 0.0232242 -0.0250000
vn -0.4576358 0.5453863 -0.7022274
v -0.0202478 0.0241304 -0.0250000
vn -0.4334137 0.5648184 -0.7022341
v -0.0191760 0.0249906 -0.0250000
vn -0.4083576 0.5832089 -0.7022191
v -0.0180677 0.0258033 -0.0250000
vn -0.3825182 0.6004494 -0.7022395
v -0.0169249 0.0265668 -0.0250000
vn -0.3559826 0.6165699 -0.7022235
v -0.0157500 0.0272798 -0.0250000
vn -0.3287436 0.6315008 -0.7022352
v -0.0145451 0.0279408 -0.0250000
vn -0.3008891 0.6452504 -0.7022234
v -0.0133125 0.0285487 -0.0250000
vn -0.2724405 0.6577600 -0.7022308
v -0.0120545 0.0291022 -0.0250000
vn -0.2435068 0.6690080 -0.7022341
v -0.0107736 0.0296003 -0.0250000
vn -0.2141036 0.6789964 -0.7022276
v -0.0094722 0.0300421 -0.0250000
vn -0.1842582 0.6877003 -0.7022231
v -0.0081528 0.0304267 -0.0250000
vn -0.1540739 0.6950760 -0.7022326
v -0.0068178 0.0307533 -0.0250000
vn -0.1236313 0.7011300 -0.7022336
v -0.0054699 0.0310214 -0.0250000
vn -0.0929314 0.7058637 -0.7022251
v -0.0041116 0.0312305 -0.0250000
vn -0.0620489 0.7092386 -0.7022325
v -0.0027454 0.0313801 -0.0250000
vn -0.0310639 0.7112725 -0.7022297
v -0.0013740 0.0314700 -0.0250000
vn 0.0000000 0.7119538 -0.7022264
v 0.0000000 0.0315000 -0.0250000
vn 0.0310639 0.7112725 -0.7022297
v 0.0013740 0.0314700 -0.0250000
vn 0.0620489 0.7092388 -0.7022325
v 0.0027454 0.0313801 -0.0250000
vn 0.0929314 0.7058637 -0.7022252
v 0.0041116 0.0312305 -0.0250000
vn 0.1236313 0.7011301 -0.7022336
v 0.0054699 0.0310214 -0.0250000
vn 0.1540739 0.6950761 -0.7022325
v 0.0068178 0.0307533 -0.0250000
vn 0.1842581 0.6877002 -0.7022232
v 0.0081528 0.0304267 -0.0250000
vn 0.2141036 0.6789964 -0.7022276
v 0.0094722 0.0300421 -0.0250000
vn 0.2435068 0.6690081 -0.7022341
v 0.0107736 0.0296003 -0.0250000
vn 0.2724405 0.6577600 -0.7022307
v 0.0120545 0.0291022 -0.0250000
vn 0.3008891 0.6452503 -0.7022235
v 0.0133125 0.0285487 -0.0250000
vn 0.3287436 0.6315009 -0.7022352
v 0.0145451 0.0279408 -0.0250000
vn 0.3559826 0.6165700 -0.7022235
v 0.0157500 0.0272798 -0.0250000
vn 0.3825182 0.6004494 -0.7022396
v 0.0169249 0.0265668 -0.0250000
vn 0.4083575 0.5832088 -0.7022191
v 0.0180677 0.0258033 -0.0250000
vn 0.4334137 0.5648186 -0.7022340
v 0.0191760 0.0249906 -0.0250000
vn 0.4576358 0.5453863 -0.7022274
v 0.0202478 0.0241304 -0.0250000
vn 0.4809715 0.5249099 -0.7022365
v 0.0212811 0.0232242 -0.0250000
vn 0.5034332 0.5034333 -0.7022179
v 0.0222739 0.0222739 -0.0250000
vn 0.5249099 0.4809716 -0.7022365
v 0.0232242 0.0212811 -0.0250000
vn 0.5453862 0.4576358 -0.7022274
v 0.0241304 0.0202478 -0.0250000
vn 0.5648184 0.4334138 -0.7022341
v 0.0249906 0.0191760 -0.0250000
vn 0.5832088 0.4083577 -0.7022191
v 0.0258033 0.0180677 -0.0250000
vn 0.6004494 0.3825183 -0.7022395
v 0.0265668 0.0169249 -0.0250000
vn 0.6165699 0.3559826 -0.7022235
v 0.0272798 0.0157500 -0.0250000
vn 0.6315008 0.3287437 -0.7022353
v 0.0279408 0.0145451 -0.0250000
vn 0.6452503 0.3008892 -0.7022234
v 0.0285487 0.0133125 -0.0250000
vn 0.6577599 0.2724406 -0.7022308
v 0.0291022 0.0120545 -0.0250000
vn 0.6690080 0.2435069 -0.7022341
v 0.0296003 0.0107736 -0.0250000
vn 0.6789963 0.2141037 -0.7022277
v 0.0300421 0.0094722 -0.0250000
vn 0.6877002 0.1842582 -0.7022231
v 0.0304267 0.0081528 -0.0250000
vn 0.6950759 0.1540740 -0.7022327
v 0.0307533 0.0068179 -0.0250000
vn 0.7011300 0.1236313 -0.7022337
v 0.0310214 0.0054699 -0.0250000
vn 0.7058637 0.0929314 -0.7022253
v 0.0312305 0.0041116 -0.0250000
vn 0.7092386 0.0620490 -0.7022326
v 0.0313801 0.0027454 -0.0250000
vn 0.7112725 0.0310639 -0.7022297
v 0.0314700 0.0013740 -0.0250000
vn 0.7119537 0.0000001 -0.7022265
v 0.0315000 0.0000000 -0.0250000
vn 0.0000000 0.0000001 -1.0000000
v 0.0000000 0.0000000 -0.0250000
vn -0.7119536 -0.0000001 0.7022265
v -0.0315000 0.0000000 0.0000000
vn -0.7112722 -0.0310639 0.7022300
v -0.0314700 -0.0013740 -0.0000000
vn -0.7092387 -0.0620490 0.7022325
v -0.0313801 -0.0027454 -0.0000000
vn -0.7058637 -0.0929314 0.7022252
v -0.0312305 -0.0041116 -0.0000000
vn -0.7011300 -0.1236313 0.7022337
v -0.0310214 -0.0054699 -0.0000000
vn -0.6950760 -0.1540739 0.7022326
v -0.0307533 -0.0068178 -0.0000000
vn -0.6877001 -0.1842582 0.7022233
v -0.0304267 -0.0081528 -0.0000000
vn -0.6789964 -0.2141037 0.7022277
v -0.0300421 -0.0094722 -0.0000000
vn -0.6690081 -0.2435069 0.7022341
v -0.0296003 -0.0107736 -0.0000000
vn -0.6577600 -0.2724406 0.7022308
v -0.0291022 -0.0120545 -0.0000000
vn -0.6452503 -0.3008892 0.7022235
v -0.0285487 -0.0133125 -0.0000000
vn -0.6315008 -0.3287437 0.7022352
v -0.0279408 -0.0145451 -0.0000000
vn -0.6165699 -0.3559827 0.7022235
v -0.0272798 -0.0157500 -0.0000000
vn -0.6004494 -0.3825182 0.7022396
v -0.0265668 -0.0169249 -0.0000000
vn -0.5832088 -0.4083577 0.7022191
v -0.0258033 -0.0180677 -0.0000000
vn -0.5648184 -0.4334137 0.7022341
v -0.0249906 -0.0191760 -0.0000000
vn -0.5453862 -0.4576358 0.7022274
v -0.0241304 -0.0202478 -0.0000000
vn -0.5249097 -0.4809715 0.7022366
v -0.0232242 -0.0212811 -0.0000000
vn -0.5034333 -0.5034333 0.7022178
v -0.0222739 -0.0222739 -0.0000000
vn -0.4809715 -0.5249099 0.7022365
v -0.0212811 -0.0232242 -0.0000000
vn -0.4576358 -0.5453863 0.7022274
v -0.0202478 -0.0241304 -0.0000000
vn -0.4334136 -0.5648184 0.7022341
v -0.0191760 -0.0249906 -0.0000000
vn -0.4083576 -0.5832089 0.7022191
v -0.0180677 -0.0258033 -0.0000000
vn -0.3825182 -0.6004494 0.7022395
v -0.0169249 -0.0265668 -0.0000000
vn -0.3559826 -0.6165700 0.7022235
v -0.0157500 -0.0272798 -0.0000000
vn -0.3287436 -0.6315008 0.7022352
v -0.0145451 -0.0279408 -0.0000000
vn -0.3008891 -0.6452504 0.7022234
v -0.0133125 -0.0285487 -0.0000000
vn -0.2724405 -0.6577599 0.7022308
v -0.0120545 -0.0291022 -0.0000000
vn -0.2435068 -0.6690080 0.7022342
v -0.0107736 -0.0296003 -0.0000000
vn -0.2141036 -0.6789964 0.7022276
v -0.0094722 -0.0300421 -0.0000000
vn -0.1842582 -0.6877003 0.7022231
v -0.0081528 -0.0304267 -0.0000000
vn -0.1540739 -0.6950760 0.7022326
v -0.0068178 -0.0307533 -0.0000000
vn -0.1236312 -0.7011299 0.7022337
v -0.0054699 -0.0310214 -0.0000000
vn -0.0929314 -0.7058637 0.7022252
v -0.0041116 -0.0312305 -0.0000000
vn -0.0620489 -0.7092387 0.7022325
v -0.0027454 -0.0313801 -0.0000000
vn -0.0310639 -0.7112726 0.7022296
v -0.0013740 -0.0314700 -0.0000000
vn 0.0000000 -0.7119538 0.7022264
v -0.0000000 -0.0315000 -0.0000000
vn 0.0310639 -0.7112726 0.7022296
v 0.0013740 -0.0314700 -0.0000000
vn 0.0620489 -0.7092388 0.7022325
v 0.0027454 -0.0313801 -0.0000000
vn 0.0929314 -0.7058637 0.7022253
v 0.0041116 -0.0312305 -0.0000000
vn 0.1236313 -0.7011300 0.7022336
v 0.0054699 -0.0310214 -0.0000000
vn 0.1540739 -0.6950761 0.7022325
v 0.0068178 -0.0307533 -0.0000000
vn 0.1842581 -0.6877002 0.7022232
v 0.0081528 -0.0304267 -0.0000000
vn 0.2141036 -0.6789964 0.7022276
v 0.0094722 -0.0300421 -0.0000000
vn 0.2435068 -0.6690080 0.7022341
v 0.0107736 -0.0296003 -0.0000000
vn 0.2724405 -0.6577600 0.7022308
v 0.0120545 -0.0291022 -0.0000000
vn 0.3008891 -0.6452503 0.7022235
v 0.0133125 -0.0285487 -0.0000000
vn 0.3287437 -0.6315010 0.7022352
v 0.0145451 -0.0279408 -0.0000000
vn 0.3559827 -0.6165701 0.7022235
v 0.0157500 -0.0272798 -0.0000000
vn 0.3825182 -0.6004494 0.7022396
v 0.0169249 -0.0265668 -0.0000000
vn 0.4083576 -0.5832088 0.7022191
v 0.0180677 -0.0258033 -0.0000000
vn 0.4334137 -0.5648184 0.7022341
v 0.0191760 -0.0249906 -0.0000000
vn 0.4576358 -0.5453863 0.7022274
v 0.0202478 -0.0241304 -0.0000000
vn 0.4809715 -0.5249099 0.7022366
v 0.0212811 -0.0232242 -0.0000000
vn 0.5034333 -0.5034333 0.7022178
v 0.0222739 -0.0222739 -0.0000000
vn 0.5249098 -0.4809715 0.7022366
v 0.0232242 -0.0212811 -0.0000000
vn 0.5453862 -0.4576359 0.7022275
v 0.0241304 -0.0202478 -0.0000000
vn 0.5648184 -0.4334137 0.7022341
v 0.0249906 -0.0191760 -0.0000000
vn 0.5832088 -0.4083577 0.7022190
v 0.0258033 -0.0180677 -0.0000000
vn 0.6004494 -0.3825183 0.7022395
v 0.0265668 -0.0169249 -0.0000000
vn 0.6165699 -0.3559827 0.7022235
v 0.0272798 -0.0157500 -0.0000000
vn 0.6315008 -0.3287437 0.7022353
v 0.0279408 -0.0145451 -0.0000000
vn 0.6452503 -0.3008892 0.7022234
v 0.0285487 -0.0133125 -0.0000000
vn 0.6577599 -0.2724406 0.7022308
v 0.0291022 -0.0120545 -0.0000000
vn 0.6690080 -0.2435069 0.7022341
v 0.0296003 -0.0107736 -0.0000000
vn 0.6789964 -0.2141037 0.7022276
v 0.0300421 -0.0094722 -0.0000000
vn 0.6877002 -0.1842582 0.7022232
v 0.0304267 -0.0081528 -0.0000000
vn 0.6950760 -0.1540739 0.7022327
v 0.0307533 -0.0068178 -0.0000000
vn 0.7011300 -0.1236313 0.7022337
v 0.0310214 -0.0054699 -0.0000000
vn 0.7058637 -0.0929314 0.7022252
v 0.0312305 -0.0041116 -0.0000000
vn 0.7092386 -0.0620490 0.7022325
v 0.0313801 -0.0027454 -0.0000000
vn 0.7112722 -0.0310639 0.7022299
v 0.0314700 -0.0013740 -0.0000000
vn 0.7119536 -0.0000001 0.7022265
v 0.0315000 -0.0000000 -0.0000000
vn 0.7112722 0.0310638 0.7022300
v 0.0314700 0.0013740 0.0000000
vn 0.7092387 0.0620489 0.7022325
v 0.0313801 0.0027454 0.0000000
vn 0.7058637 0.0929313 0.7022252
v 0.0312305 0.0041116 0.0000000
vn 0.7011300 0.1236312 0.7022337
v 0.0310214 0.0054699 0.0000000
vn 0.6950760 0.1540738 0.7022326
v 0.0307533 0.0068178 0.0000000
vn 0.6877001 0.1842581 0.7022233
v 0.0304267 0.0081528 0.0000000
vn 0.6789964 0.2141035 0.7022277
v 0.0300421 0.0094722 0.0000000
vn 0.6690081 0.2435068 0.7022341
v 0.0296003 0.0107736 0.0000000
vn 0.6577600 0.2724404 0.7022308
v 0.0291022 0.0120545 0.0000000
vn 0.6452503 0.3008890 0.7022235
v 0.0285487 0.0133125 0.0000000
vn 0.6315009 0.3287436 0.7022352
v 0.0279408 0.0145451 0.0000000
vn 0.6165699 0.3559826 0.7022236
v 0.0272798 0.0157500 0.0000000
vn 0.6004494 0.3825181 0.7022397
v 0.0265668 0.0169249 0.0000000
vn 0.5832087 0.4083575 0.7022191
v 0.0258033 0.0180677 0.0000000
vn 0.5648184 0.4334136 0.7022342
v 0.0249906 0.0191760 0.0000000
vn 0.5453862 0.4576357 0.7022275
v 0.0241304 0.0202478 0.0000000
vn 0.5249097 0.4809714 0.7022367
v 0.0232242 0.0212811 0.0000000
vn 0.5034333 0.5034332 0.7022179
v 0.0222739 0.0222739 0.0000000
vn 0.4809715 0.5249097 0.7022367
v 0.0212811 0.0232242 0.0000000
vn 0.4576358 0.5453861 0.7022275
v 0.0202478 0.0241304 0.0000000
vn 0.4334136 0.5648183 0.7022343
v 0.0191760 0.0249906 0.0000000
vn 0.4083576 0.5832087 0.7022191
v 0.0180677 0.0258033 0.0000000
vn 0.3825182 0.6004493 0.7022396
v 0.0169249 0.0265668 0.0000000
vn 0.3559826 0.6165699 0.7022236
v 0.0157500 0.0272798 0.0000000
vn 0.3287436 0.6315007 0.7022353
v 0.0145451 0.0279408 0.0000000
vn 0.3008891 0.6452503 0.7022235
v 0.0133125 0.0285487 0.0000000
vn 0.2724405 0.6577598 0.7022309
v 0.0120545 0.0291022 0.0000000
vn 0.2435068 0.6690078 0.7022343
v 0.0107736 0.0296003 0.0000000
vn 0.2141036 0.6789963 0.7022277
v 0.0094722 0.0300421 0.0000000
vn 0.1842582 0.6877002 0.7022232
v 0.0081528 0.0304267 0.0000000
vn 0.1540739 0.6950759 0.7022327
v 0.0068178 0.0307533 0.0000000
vn 0.1236313 0.7011299 0.7022339
v 0.0054699 0.0310214 0.0000000
vn 0.0929314 0.7058635 0.7022253
v 0.0041116 0.0312305 0.0000000
vn 0.0620489 0.7092386 0.7022327
v 0.0027454 0.0313801 0.0000000
vn 0.0310639 0.7112725 0.7022297
v 0.0013740 0.0314700 0.0000000
vn -0.0000000 0.7119536 0.7022265
v 0.0000000 0.0315000 0.0000000
vn -0.0310639 0.7112725 0.7022297
v -0.0013740 0.0314700 0.0000000
vn -0.0620489 0.7092386 0.7022326
v -0.0027454 0.0313801 0.0000000
vn -0.0929314 0.7058635 0.7022254
v -0.0041116 0.0312305 0.0000000
vn -0.1236313 0.7011299 0.7022337
v -0.0054699 0.0310214 0.0000000
vn -0.1540739 0.6950760 0.7022326
v -0.0068178 0.0307533 0.0000000
vn -0.1842581 0.6877000 0.7022234
v -0.0081528 0.0304267 0.0000000
vn -0.2141036 0.6789963 0.7022277
v -0.0094722 0.0300421 0.0000000
vn -0.2435068 0.6690079 0.7022343
v -0.0107736 0.0296003 0.0000000
vn -0.2724405 0.6577599 0.7022309
v -0.0120545 0.0291022 0.0000000
vn -0.3008891 0.6452502 0.7022237
v -0.0133125 0.0285487 0.0000000
vn -0.3287437 0.6315008 0.7022353
v -0.0145451 0.0279408 0.0000000
vn -0.3559827 0.6165699 0.7022236
v -0.0157500 0.0272798 0.0000000
vn -0.3825182 0.6004493 0.7022397
v -0.0169249 0.0265668 0.0000000
vn -0.4083576 0.5832087 0.7022192
v -0.0180677 0.0258033 0.0000000
vn -0.4334137 0.5648183 0.7022343
v -0.0191760 0.0249906 0.0000000
vn -0.4576358 0.5453862 0.7022275
v -0.0202478 0.0241304 0.0000000
vn -0.4809714 0.5249097 0.7022367
v -0.0212811 0.0232242 0.0000000
vn -0.5034333 0.5034332 0.7022179
v -0.0222739 0.0222739 0.0000000
vn -0.5249097 0.4809713 0.7022367
v -0.0232242 0.0212811 0.0000000
vn -0.5453861 0.4576357 0.7022275
v -0.0241304 0.0202478 0.0000000
vn -0.5648184 0.4334136 0.7022343
v -0.0249906 0.0191760 0.0000000
vn -0.5832088 0.4083576 0.7022191
v -0.0258033 0.0180677 0.0000000
vn -0.6004494 0.3825181 0.7022396
v -0.0265668 0.0169249 0.0000000
vn -0.6165699 0.3559825 0.7022237
v -0.0272798 0.0157500 0.0000000
vn -0.6315008 0.3287436 0.7022353
v -0.0279408 0.0145451 0.0000000
vn -0.6452504 0.3008891 0.7022235
v -0.0285487 0.0133125 0.0000000
vn -0.6577599 0.2724404 0.7022308
v -0.0291022 0.0120545 0.0000000
vn -0.6690080 0.2435068 0.7022341
v -0.0296003 0.0107736 0.0000000
vn -0.6789964 0.2141035 0.7022276
v -0.0300421 0.0094722 0.0000000
vn -0.6877002 0.1842581 0.7022232
v -0.0304267 0.0081528 0.0000000
vn -0.6950760 0.1540738 0.7022327
v -0.0307533 0.0068178 0.0000000
vn -0.7011300 0.1236312 0.7022337
v -0.0310214 0.0054699 0.0000000
vn -0.7058637 0.0929313 0.7022252
v -0.0312305 0.0041116 0.0000000
vn -0.7092387 0.0620489 0.7022325
v -0.0313801 0.0027454 0.0000000
vn -0.7112722 0.0310638 0.7022299
v -0.0314700 0.0013740 0.0000000
vn -0.0000000 0.7021343 0.7120447
v -0.0000000 -0.0192000 -0.0000000
vn 0.0306208 0.7014570 0.7120538
v -0.0016242 -0.0191646 -0.0000000
vn 0.0000000 -0.7021344 0.7120445
v -0.0000000 0.0192000 0.0000000
vn -0.0306208 -0.7014571 0.7120537
v 0.0016242 0.0191646 0.0000000
vn -0.0306208 0.7014569 0.7120538
v 0.0016242 -0.0191646 -0.0000000
vn 0.0306208 -0.7014570 0.7120537
v -0.0016242 0.0191646 0.0000000
vn 0.0611839 0.6994634 0.7120445
v -0.0032367 -0.0190589 -0.0000000
vn -0.0611839 -0.6994635 0.7120444
v 0.0032367 0.0190589 0.0000000
vn -0.0916002 0.6961342 0.7120440
v 0.0048260 -0.0188849 -0.0000000
vn 0.0916002 -0.6961343 0.7120439
v -0.0048260 0.0188849 0.0000000
vn 0.0916002 0.6961342 0.7120440
v -0.0048260 -0.0188849 -0.0000000
vn -0.0611839 0.6994635 0.7120445
v 0.0032367 -0.0190589 -0.0000000
vn -0.0916002 -0.6961343 0.7120439
v 0.0048260 0.0188849 0.0000000
vn 0.0611839 -0.6994636 0.7120444
v -0.0032367 0.0190589 0.0000000
vn 0.1218543 0.6914754 0.7120488
v -0.0063818 -0.0186456 -0.0000000
vn -0.1218543 -0.6914755 0.7120486
v 0.0063818 0.0186456 0.0000000
vn -0.1218543 0.6914754 0.7120487
v 0.0063818 -0.0186456 -0.0000000
vn -0.1518982 -0.6855002 0.7120509
v 0.0078943 0.0183449 0.0000000
vn 0.1518982 0.6855001 0.7120510
v -0.0078943 -0.0183449 -0.0000000
vn 0.1218543 -0.6914755 0.7120486
v -0.0063818 0.0186456 0.0000000
vn -0.1518982 0.6855001 0.7120510
v 0.0078943 -0.0183449 -0.0000000
vn 0.1816549 0.6782240 0.7120490
v -0.0093555 -0.0179875 -0.0000000
vn -0.1816549 -0.6782241 0.7120489
v 0.0093555 0.0179875 0.0000000
vn 0.1518982 -0.6855002 0.7120509
v -0.0078943 0.0183449 0.0000000
vn 0.2110681 0.6696507 0.7120522
v -0.0107586 -0.0175787 -0.0000000
vn -0.2110681 -0.6696508 0.7120521
v 0.0107586 0.0175787 0.0000000
vn -0.1816549 0.6782239 0.7120491
v 0.0093555 -0.0179875 -0.0000000
vn 0.1816549 -0.6782240 0.7120489
v -0.0093555 0.0179875 0.0000000
vn -0.2110681 0.6696507 0.7120522
v 0.0107586 -0.0175787 -0.0000000
vn 0.2110681 -0.6696508 0.7120521
v -0.0107586 0.0175787 0.0000000
vn 0.2400679 0.6598189 0.7120438
v -0.0120982 -0.0171241 -0.0000000
vn -0.2400680 0.6598189 0.7120438
v 0.0120982 -0.0171241 -0.0000000
vn -0.2400679 -0.6598191 0.7120437
v 0.0120982 0.0171241 0.0000000
vn 0.2400680 -0.6598191 0.7120437
v -0.0120982 0.0171241 0.0000000
vn 0.2686011 0.6487200 0.7120504
v -0.0133706 -0.0166295 -0.0000000
vn -0.2686011 0.6487200 0.7120504
v 0.0133706 -0.0166295 -0.0000000
vn -0.2686011 -0.6487201 0.7120503
v 0.0133706 0.0166295 0.0000000
vn -0.2966446 -0.6363853 0.7120504
v 0.0145733 0.0161005 0.0000000
vn 0.2686011 -0.6487201 0.7120503
v -0.0133706 0.0166295 0.0000000
vn 0.2966446 0.6363851 0.7120505
v -0.0145733 -0.0161005 -0.0000000
vn -0.2966446 0.6363851 0.7120505
v 0.0145733 -0.0161005 -0.0000000
vn 0.3241042 0.6228583 0.7120421
v -0.0157052 -0.0155425 -0.0000000
vn 0.2966446 -0.6363853 0.7120504
v -0.0145733 0.0161005 0.0000000
vn -0.3241042 -0.6228585 0.7120420
v 0.0157052 0.0155425 0.0000000
vn 0.3241042 -0.6228585 0.7120420
v -0.0157052 0.0155425 0.0000000
vn -0.3241042 0.6228584 0.7120421
v 0.0157052 -0.0155425 -0.0000000
vn 0.3509437 0.6081284 0.7120522
v -0.0167662 -0.0149607 -0.0000000
vn -0.3509437 0.6081284 0.7120522
v 0.0167662 -0.0149607 -0.0000000
vn -0.3509437 -0.6081285 0.7120521
v 0.0167662 0.0149607 0.0000000
vn 0.3509437 -0.6081285 0.7120521
v -0.0167662 0.0149607 0.0000000
vn 0.3771641 0.5922139 0.7120605
v -0.0177572 -0.0143596 -0.0000000
vn -0.3771641 -0.5922140 0.7120603
v 0.0177572 0.0143596 0.0000000
vn -0.3771640 0.5922139 0.7120605
v 0.0177572 -0.0143596 -0.0000000
vn 0.3771640 -0.5922140 0.7120604
v -0.0177572 0.0143596 0.0000000
vn 0.4026493 0.5752155 0.7120398
v -0.0186796 -0.0137434 -0.0000000
vn -0.4026493 0.5752154 0.7120399
v 0.0186796 -0.0137434 -0.0000000
vn -0.4026493 -0.5752156 0.7120397
v 0.0186796 0.0137434 0.0000000
vn -0.4273435 -0.5570890 0.7120600
v 0.0195356 0.0131160 0.0000000
vn 0.4026493 -0.5752156 0.7120398
v -0.0186796 0.0137434 0.0000000
vn 0.4273435 0.5570889 0.7120602
v -0.0195356 -0.0131160 -0.0000000
vn -0.4273435 0.5570889 0.7120602
v 0.0195356 -0.0131160 -0.0000000
vn -0.4512606 -0.5379164 0.7120463
v 0.0203277 0.0124804 0.0000000
vn 0.4273435 -0.5570890 0.7120600
v -0.0195356 0.0131160 0.0000000
vn 0.4512606 0.5379163 0.7120464
v -0.0203277 -0.0124804 -0.0000000
vn -0.4512606 0.5379163 0.7120464
v 0.0203277 -0.0124804 -0.0000000
vn 0.4742704 0.5177491 0.7120417
v -0.0210587 -0.0118395 -0.0000000
vn -0.4742704 -0.5177493 0.7120417
v 0.0210587 0.0118395 0.0000000
vn 0.4512606 -0.5379164 0.7120463
v -0.0203277 0.0124804 0.0000000
vn -0.4742705 0.5177491 0.7120417
v 0.0210587 -0.0118395 -0.0000000
vn 0.4742705 -0.5177492 0.7120416
v -0.0210587 0.0118395 0.0000000
vn 0.4963788 -0.4965811 0.7120501
v -0.0217316 0.0111956 0.0000000
vn -0.4963788 0.4965810 0.7120502
v 0.0217316 -0.0111956 -0.0000000
vn -0.4963788 -0.4965810 0.7120501
v 0.0217316 0.0111956 0.0000000
vn -0.5175756 -0.4744381 0.7120562
v 0.0223494 0.0105505 0.0000000
vn 0.4963788 0.4965809 0.7120502
v -0.0217316 -0.0111956 -0.0000000
vn 0.5175756 0.4744380 0.7120563
v -0.0223494 -0.0105505 -0.0000000
vn -0.5175756 0.4744379 0.7120563
v 0.0223494 -0.0105505 -0.0000000
vn 0.5378022 0.4513812 0.7120561
v -0.0229150 -0.0099057 -0.0000000
vn 0.5175756 -0.4744380 0.7120562
v -0.0223494 0.0105505 0.0000000
vn -0.5378022 -0.4513813 0.7120560
v 0.0229150 0.0099057 0.0000000
vn 0.5378022 -0.4513813 0.7120560
v -0.0229150 0.0099057 0.0000000
vn 0.5569922 0.4274911 0.7120470
v -0.0234313 -0.0092626 -0.0000000
vn -0.5378022 0.4513812 0.7120561
v 0.0229150 -0.0099057 -0.0000000
vn -0.5569923 -0.4274913 0.7120470
v 0.0234313 0.0092626 0.0000000
vn -0.5569922 0.4274911 0.7120470
v 0.0234313 -0.0092626 -0.0000000
vn 0.5569923 -0.4274913 0.7120470
v -0.0234313 0.0092626 0.0000000
vn 0.5751046 0.4027834 0.7120537
v -0.0239012 -0.0086219 -0.0000000
vn -0.5751047 0.4027833 0.7120536
v 0.0239012 -0.0086219 -0.0000000
vn -0.5751046 -0.4027835 0.7120535
v 0.0239012 0.0086219 0.0000000
vn 0.5751047 -0.4027835 0.7120535
v -0.0239012 0.0086219 0.0000000
vn 0.5921249 0.3773482 0.7120369
v -0.0243273 -0.0079843 -0.0000000
vn -0.5921249 -0.3773483 0.7120368
v 0.0243273 0.0079843 0.0000000
vn -0.5921248 0.3773482 0.7120370
v 0.0243273 -0.0079843 -0.0000000
vn 0.5921248 -0.3773483 0.7120368
v -0.0243273 0.0079843 0.0000000
vn -0.6079977 0.3511489 0.7120628
v 0.0247122 -0.0073503 -0.0000000
vn 0.6079977 -0.3511490 0.7120627
v -0.0247122 0.0073503 0.0000000
vn -0.6079977 -0.3511490 0.7120627
v 0.0247122 0.0073503 0.0000000
vn -0.6227654 -0.3242658 0.7120499
v 0.0250580 0.0067201 0.0000000
vn 0.6079977 0.3511489 0.7120628
v -0.0247122 -0.0073503 -0.0000000
vn 0.6227654 0.3242657 0.7120499
v -0.0250580 -0.0067201 -0.0000000
vn -0.6227654 0.3242657 0.7120500
v 0.0250580 -0.0067201 -0.0000000
vn 0.6363171 0.2967895 0.7120510
v -0.0253669 -0.0060939 -0.0000000
vn -0.6363171 -0.2967896 0.7120510
v 0.0253669 0.0060939 0.0000000
vn 0.6227653 -0.3242658 0.7120499
v -0.0250580 0.0067201 0.0000000
vn -0.6363171 0.2967895 0.7120510
v 0.0253669 -0.0060939 -0.0000000
vn 0.6363171 -0.2967896 0.7120510
v -0.0253669 0.0060939 0.0000000
vn -0.6486597 0.2687435 0.7120516
v 0.0256408 -0.0054715 -0.0000000
vn 0.6486597 -0.2687436 0.7120516
v -0.0256408 0.0054715 0.0000000
vn 0.6486596 0.2687435 0.7120516
v -0.0256408 -0.0054715 -0.0000000
vn 0.6597685 0.2401742 0.7120547
v -0.0258814 -0.0048530 -0.0000000
vn -0.6486596 -0.2687436 0.7120516
v 0.0256408 0.0054715 0.0000000
vn -0.6597685 -0.2401743 0.7120547
v 0.0258814 0.0048530 0.0000000
vn 0.6597685 -0.2401743 0.7120547
v -0.0258814 0.0048530 0.0000000
vn -0.6597685 0.2401742 0.7120547
v 0.0258814 -0.0048530 -0.0000000
vn -0.6696261 0.2111861 0.7120403
v 0.0260902 -0.0042379 -0.0000000
vn -0.6696261 -0.2111863 0.7120403
v 0.0260902 0.0042379 0.0000000
vn 0.6696261 0.2111861 0.7120403
v -0.0260902 -0.0042379 -0.0000000
vn 0.6696261 -0.2111862 0.7120402
v -0.0260902 0.0042379 0.0000000
vn 0.6781806 0.1817565 0.7120643
v -0.0262686 -0.0036261 -0.0000000
vn -0.6781806 0.1817565 0.7120643
v 0.0262686 -0.0036261 -0.0000000
vn -0.6781806 -0.1817566 0.7120643
v 0.0262686 0.0036261 0.0000000
vn 0.6781806 -0.1817566 0.7120643
v -0.0262686 0.0036261 0.0000000
vn -0.6854910 0.1520021 0.7120375
v 0.0264176 -0.0030172 -0.0000000
vn 0.6854910 -0.1520022 0.7120375
v -0.0264176 0.0030172 0.0000000
vn -0.6914498 0.1219936 0.7120497
v 0.0265383 -0.0024107 -0.0000000
vn 0.6914498 -0.1219937 0.7120497
v -0.0265383 0.0024107 0.0000000
vn 0.6854910 0.1520021 0.7120375
v -0.0264176 -0.0030172 -0.0000000
vn 0.6914498 0.1219936 0.7120497
v -0.0265383 -0.0024107 -0.0000000
vn -0.6854910 -0.1520022 0.7120375
v 0.0264176 0.0030172 0.0000000
vn -0.6914498 -0.1219937 0.7120497
v 0.0265383 0.0024107 0.0000000
vn -0.6961016 0.0916605 0.7120681
v 0.0266314 -0.0018062 -0.0000000
vn -0.6994719 0.0612052 0.7120344
v 0.0266974 -0.0012033 -0.0000000
vn -0.6961016 -0.0916606 0.7120680
v 0.0266314 0.0018062 0.0000000
vn 0.6961016 -0.0916606 0.7120681
v -0.0266314 0.0018062 0.0000000
vn 0.6961017 0.0916605 0.7120681
v -0.0266314 -0.0018062 -0.0000000
vn 0.6994719 -0.0612053 0.7120344
v -0.0266974 0.0012033 0.0000000
vn 0.6994720 0.0612052 0.7120345
v -0.0266974 -0.0012033 -0.0000000
vn 0.7014461 -0.0306415 0.7120636
v -0.0267369 0.0006014 0.0000000
vn 0.7014461 0.0306413 0.7120636
v -0.0267369 -0.0006014 -0.0000000
vn -0.7014461 0.0306413 0.7120636
v 0.0267369 -0.0006014 -0.0000000
vn -0.7014461 -0.0306415 0.7120636
v 0.0267369 0.0006014 0.0000000
vn -0.6994720 -0.0612053 0.7120345
v 0.0266974 0.0012033 0.0000000
vn -0.7021374 -0.0000001 0.7120416
v 0.0267500 0.0000000 0.0000000
vn 0.7021374 -0.0000001 0.7120416
v -0.0267500 -0.0000000 -0.0000000
vn -0.7112854 -0.0310713 0.7022162
v 0.0267369 0.0006014 -0.0020000
vn -0.7119426 -0.0000001 0.7022378
v 0.0267500 0.0000000 -0.0020000
vn -0.7092260 -0.0620588 0.7022445
v 0.0266974 0.0012033 -0.0020000
vn -0.7058747 -0.0929475 0.7022119
v 0.0266314 0.0018063 -0.0020000
vn -0.7011213 -0.1237000 0.7022303
v 0.0265383 0.0024107 -0.0020000
vn -0.6950560 -0.1541232 0.7022417
v 0.0264176 0.0030172 -0.0020000
vn -0.6876949 -0.1843065 0.7022157
v 0.0262686 0.0036261 -0.0020000
vn -0.6789748 -0.2141347 0.7022390
v 0.0260902 0.0042379 -0.0020000
vn -0.6690066 -0.2435372 0.7022250
v 0.0258814 0.0048530 -0.0020000
vn -0.6577366 -0.2725042 0.7022279
v 0.0256408 0.0054715 -0.0020000
vn -0.6452200 -0.3009421 0.7022286
v 0.0253669 0.0060939 -0.0020000
vn -0.6314769 -0.3288018 0.7022296
v 0.0250580 0.0067201 -0.0020000
vn -0.6165247 -0.3560737 0.7022171
v 0.0247122 0.0073503 -0.0020000
vn -0.6003857 -0.3826128 0.7022424
v 0.0243273 0.0079843 -0.0020000
vn -0.5831555 -0.4084219 0.7022259
v 0.0239012 0.0086219 -0.0020000
vn -0.5647792 -0.4334677 0.7022324
v 0.0234313 0.0092626 -0.0020000
vn -0.5453346 -0.4577034 0.7022234
v 0.0229150 0.0099057 -0.0020000
vn -0.5248249 -0.4810831 0.7022235
v 0.0223494 0.0105505 -0.0020000
vn -0.5033227 -0.5035278 0.7022294
v 0.0217316 0.0111956 -0.0020000
vn -0.4808938 -0.5249798 0.7022375
v 0.0210587 0.0118395 -0.0020000
vn -0.4575683 -0.5454354 0.7022333
v 0.0203277 0.0124804 -0.0020000
vn -0.4333337 -0.5648978 0.7022197
v 0.0195356 0.0131160 -0.0020000
vn -0.4082702 -0.5832455 0.7022394
v 0.0186796 0.0137434 -0.0020000
vn -0.3824511 -0.6005156 0.7022195
v 0.0177572 0.0143596 -0.0020000
vn -0.3558552 -0.6166394 0.7022272
v 0.0167662 0.0149607 -0.0020000
vn -0.3286307 -0.6315573 0.7022373
v 0.0157052 0.0155425 -0.0020000
vn -0.3007948 -0.6452884 0.7022289
v 0.0145733 0.0161005 -0.0020000
vn -0.2723587 -0.6577954 0.7022293
v 0.0133706 0.0166295 -0.0020000
vn -0.2434219 -0.6690373 0.7022356
v 0.0120982 0.0171241 -0.0020000
vn -0.2140219 -0.6790224 0.7022274
v 0.0107586 0.0175787 -0.0020000
vn -0.1841956 -0.6877098 0.7022302
v 0.0093555 0.0179875 -0.0020000
vn -0.1540235 -0.6950912 0.7022285
v 0.0078943 0.0183449 -0.0020000
vn -0.1235584 -0.7011455 0.7022310
v 0.0063818 0.0186456 -0.0020000
vn -0.0928800 -0.7058601 0.7022356
v 0.0048260 0.0188849 -0.0020000
vn -0.0620388 -0.7092373 0.7022349
v 0.0032367 0.0190589 -0.0020000
vn -0.0310495 -0.7112767 0.7022262
v 0.0016242 0.0191646 -0.0020000
vn -0.0000000 -0.7119455 0.7022348
v -0.0000000 0.0192000 -0.0020000
vn 0.0310495 -0.7112768 0.7022260
v -0.0016242 0.0191646 -0.0020000
vn 0.0620388 -0.7092370 0.7022351
v -0.0032367 0.0190589 -0.0020000
vn 0.0928800 -0.7058603 0.7022355
v -0.0048260 0.0188849 -0.0020000
vn 0.1235584 -0.7011455 0.7022310
v -0.0063818 0.0186456 -0.0020000
vn 0.1540235 -0.6950914 0.7022285
v -0.0078943 0.0183449 -0.0020000
vn 0.1841955 -0.6877096 0.7022305
v -0.0093555 0.0179875 -0.0020000
vn 0.2140220 -0.6790226 0.7022272
v -0.0107586 0.0175787 -0.0020000
vn 0.2434219 -0.6690373 0.7022356
v -0.0120982 0.0171241 -0.0020000
vn 0.2723589 -0.6577957 0.7022290
v -0.0133706 0.0166295 -0.0020000
vn 0.3007947 -0.6452883 0.7022291
v -0.0145733 0.0161005 -0.0020000
vn 0.3286306 -0.6315572 0.7022374
v -0.0157052 0.0155425 -0.0020000
vn 0.3558551 -0.6166391 0.7022274
v -0.0167662 0.0149607 -0.0020000
vn 0.3824512 -0.6005158 0.7022193
v -0.0177572 0.0143596 -0.0020000
vn 0.4082702 -0.5832455 0.7022395
v -0.0186796 0.0137434 -0.0020000
vn 0.4333337 -0.5648978 0.7022197
v -0.0195356 0.0131160 -0.0020000
vn 0.4575684 -0.5454355 0.7022331
v -0.0203277 0.0124804 -0.0020000
vn 0.4808936 -0.5249796 0.7022377
v -0.0210587 0.0118395 -0.0020000
vn 0.5033228 -0.5035279 0.7022292
v -0.0217316 0.0111956 -0.0020000
vn 0.5248250 -0.4810832 0.7022235
v -0.0223494 0.0105505 -0.0020000
vn 0.5453345 -0.4577033 0.7022236
v -0.0229150 0.0099057 -0.0020000
vn 0.5647791 -0.4334676 0.7022324
v -0.0234313 0.0092626 -0.0020000
vn 0.5831553 -0.4084219 0.7022260
v -0.0239012 0.0086219 -0.0020000
vn 0.6003861 -0.3826131 0.7022421
v -0.0243273 0.0079843 -0.0020000
vn 0.6165245 -0.3560736 0.7022173
v -0.0247122 0.0073503 -0.0020000
vn 0.6314768 -0.3288018 0.7022296
v -0.0250580 0.0067201 -0.0020000
vn 0.6452202 -0.3009422 0.7022284
v -0.0253669 0.0060939 -0.0020000
vn 0.6577366 -0.2725043 0.7022280
v -0.0256408 0.0054715 -0.0020000
vn 0.6690066 -0.2435372 0.7022250
v -0.0258814 0.0048530 -0.0020000
vn 0.6789746 -0.2141346 0.7022392
v -0.0260902 0.0042379 -0.0020000
vn 0.6876950 -0.1843065 0.7022156
v -0.0262686 0.0036261 -0.0020000
vn 0.6950558 -0.1541232 0.7022418
v -0.0264176 0.0030172 -0.0020000
vn 0.7011214 -0.1237001 0.7022301
v -0.0265383 0.0024107 -0.0020000
vn 0.7058747 -0.0929475 0.7022119
v -0.0266314 0.0018063 -0.0020000
vn 0.7092259 -0.0620588 0.7022445
v -0.0266974 0.0012033 -0.0020000
vn 0.7112854 -0.0310713 0.7022162
v -0.0267369 0.0006014 -0.0020000
vn 0.7119426 -0.0000001 0.7022378
v -0.0267500 0.0000000 -0.0020000
vn 0.7112854 0.0310711 0.7022162
v -0.0267369 -0.0006014 -0.0020000
vn 0.7092256 0.0620587 0.7022448
v -0.0266974 -0.0012033 -0.0020000
vn 0.7058749 0.0929474 0.7022119
v -0.0266314 -0.0018062 -0.0020000
vn 0.7011214 0.1237000 0.7022300
v -0.0265383 -0.0024107 -0.0020000
vn 0.6950560 0.1541231 0.7022417
v -0.0264176 -0.0030172 -0.0020000
vn 0.6876949 0.1843064 0.7022157
v -0.0262686 -0.0036261 -0.0020000
vn 0.6789749 0.2141346 0.7022389
v -0.0260902 -0.0042379 -0.0020000
vn 0.6690066 0.2435371 0.7022250
v -0.0258814 -0.0048530 -0.0020000
vn 0.6577365 0.2725041 0.7022280
v -0.0256408 -0.0054715 -0.0020000
vn 0.6452200 0.3009420 0.7022286
v -0.0253669 -0.0060939 -0.0020000
vn 0.6314769 0.3288017 0.7022296
v -0.0250580 -0.0067201 -0.0020000
vn 0.6165245 0.3560735 0.7022173
v -0.0247122 -0.0073503 -0.0020000
vn 0.6003859 0.3826128 0.7022424
v -0.0243273 -0.0079843 -0.0020000
vn 0.5831555 0.4084218 0.7022260
v -0.0239012 -0.0086219 -0.0020000
vn 0.5647792 0.4334676 0.7022325
v -0.0234313 -0.0092626 -0.0020000
vn 0.5453346 0.4577033 0.7022235
v -0.0229150 -0.0099057 -0.0020000
vn 0.5248250 0.4810831 0.7022235
v -0.0223494 -0.0105505 -0.0020000
vn 0.5033226 0.5035275 0.7022296
v -0.0217316 -0.0111956 -0.0020000
vn 0.4808937 0.5249797 0.7022375
v -0.0210587 -0.0118395 -0.0020000
vn 0.4575683 0.5454352 0.7022334
v -0.0203277 -0.0124804 -0.0020000
vn 0.4333337 0.5648977 0.7022198
v -0.0195356 -0.0131160 -0.0020000
vn 0.4082702 0.5832453 0.7022396
v -0.0186796 -0.0137434 -0.0020000
vn 0.3824512 0.6005155 0.7022195
v -0.0177572 -0.0143596 -0.0020000
vn 0.3558552 0.6166392 0.7022273
v -0.0167662 -0.0149607 -0.0020000
vn 0.3286307 0.6315572 0.7022374
v -0.0157052 -0.0155425 -0.0020000
vn 0.3007948 0.6452883 0.7022290
v -0.0145733 -0.0161005 -0.0020000
vn 0.2723588 0.6577955 0.7022291
v -0.0133706 -0.0166295 -0.0020000
vn 0.2434219 0.6690370 0.7022359
v -0.0120982 -0.0171241 -0.0020000
vn 0.2140219 0.6790223 0.7022275
v -0.0107586 -0.0175787 -0.0020000
vn 0.1841956 0.6877097 0.7022303
v -0.0093555 -0.0179875 -0.0020000
vn 0.1540235 0.6950911 0.7022288
v -0.0078943 -0.0183449 -0.0020000
vn 0.1235584 0.7011455 0.7022309
v -0.0063818 -0.0186456 -0.0020000
vn 0.0928800 0.7058600 0.7022358
v -0.0048260 -0.0188849 -0.0020000
vn 0.0620388 0.7092372 0.7022350
v -0.0032367 -0.0190589 -0.0020000
vn 0.0310495 0.7112765 0.7022263
v -0.0016242 -0.0191646 -0.0020000
vn 0.0000000 0.7119454 0.7022349
v -0.0000000 -0.0192000 -0.0020000
vn -0.0310495 0.7112767 0.7022261
v 0.0016242 -0.0191646 -0.0020000
vn -0.0620388 0.7092369 0.7022352
v 0.0032367 -0.0190589 -0.0020000
vn -0.0928800 0.7058601 0.7022357
v 0.0048260 -0.0188849 -0.0020000
vn -0.1235584 0.7011455 0.7022310
v 0.0063818 -0.0186456 -0.0020000
vn -0.1540235 0.6950912 0.7022287
v 0.0078943 -0.0183449 -0.0020000
vn -0.1841955 0.6877095 0.7022306
v 0.0093555 -0.0179875 -0.0020000
vn -0.2140220 0.6790224 0.7022274
v 0.0107586 -0.0175787 -0.0020000
vn -0.2434219 0.6690370 0.7022359
v 0.0120982 -0.0171241 -0.0020000
vn -0.2723590 0.6577957 0.7022288
v 0.0133706 -0.0166295 -0.0020000
vn -0.3007947 0.6452881 0.7022291
v 0.0145733 -0.0161005 -0.0020000
vn -0.3286306 0.6315571 0.7022375
v 0.0157052 -0.0155425 -0.0020000
vn -0.3558551 0.6166390 0.7022275
v 0.0167662 -0.0149607 -0.0020000
vn -0.3824512 0.6005157 0.7022193
v 0.0177572 -0.0143596 -0.0020000
vn -0.4082701 0.5832453 0.7022396
v 0.0186796 -0.0137434 -0.0020000
vn -0.4333337 0.5648977 0.7022197
v 0.0195356 -0.0131160 -0.0020000
vn -0.4575684 0.5454353 0.7022332
v 0.0203277 -0.0124804 -0.0020000
vn -0.4808936 0.5249795 0.7022378
v 0.0210587 -0.0118395 -0.0020000
vn -0.5033227 0.5035276 0.7022294
v 0.0217316 -0.0111956 -0.0020000
vn -0.5248251 0.4810832 0.7022234
v 0.0223494 -0.0105505 -0.0020000
vn -0.5453345 0.4577032 0.7022237
v 0.0229150 -0.0099057 -0.0020000
vn -0.5647791 0.4334675 0.7022325
v 0.0234313 -0.0092626 -0.0020000
vn -0.5831553 0.4084218 0.7022262
v 0.0239012 -0.0086219 -0.0020000
vn -0.6003861 0.3826129 0.7022420
v 0.0243273 -0.0079843 -0.0020000
vn -0.6165243 0.3560734 0.7022175
v 0.0247122 -0.0073503 -0.0020000
vn -0.6314769 0.3288017 0.7022297
v 0.0250580 -0.0067201 -0.0020000
vn -0.6452202 0.3009421 0.7022284
v 0.0253669 -0.0060939 -0.0020000
vn -0.6577365 0.2725041 0.7022281
v 0.0256408 -0.0054715 -0.0020000
vn -0.6690066 0.2435371 0.7022250
v 0.0258814 -0.0048530 -0.0020000
vn -0.6789747 0.2141345 0.7022392
v 0.0260902 -0.0042379 -0.0020000
vn -0.6876950 0.1843064 0.7022156
v 0.0262686 -0.0036261 -0.0020000
vn -0.6950558 0.1541230 0.7022418
v 0.0264176 -0.0030172 -0.0020000
vn -0.7011216 0.1237000 0.7022299
v 0.0265383 -0.0024107 -0.0020000
vn -0.7058750 0.0929474 0.7022118
v 0.0266314 -0.0018062 -0.0020000
vn -0.7092256 0.0620587 0.7022448
v 0.0266974 -0.0012033 -0.0020000
vn -0.7112854 0.0310711 0.7022162
v 0.0267369 -0.0006014 -0.0020000
# 577 vertices, 0 vertices normals


usemtl material_0
f 145//145 1//1 2//2
f 2//2 3//3 145//145
f 3//3 4//4 145//145
f 4//4 5//5 145//145
f 5//5 6//6 145//145
f 6//6 7//7 145//145
f 7//7 8//8 145//145
f 8//8 9//9 145//145
f 9//9 10//10 145//145
f 10//10 11//11 145//145
f 11//11 12//12 145//145
f 12//12 13//13 145//145
f 13//13 14//14 145//145
f 14//14 15//15 145//145
f 15//15 16//16 145//145
f 16//16 17//17 145//145
f 17//17 18//18 145//145
f 18//18 19//19 145//145
f 19//19 20//20 145//145
f 20//20 21//21 145//145
f 21//21 22//22 145//145
f 22//22 23//23 145//145
f 23//23 24//24 145//145
f 24//24 25//25 145//145
f 25//25 26//26 145//145
f 26//26 27//27 145//145
f 27//27 28//28 145//145
f 28//28 29//29 145//145
f 29//29 30//30 145//145
f 30//30 31//31 145//145
f 31//31 32//32 145//145
f 32//32 33//33 145//145
f 33//33 34//34 145//145
f 34//34 35//35 145//145
f 35//35 36//36 145//145
f 36//36 37//37 145//145
f 37//37 38//38 145//145
f 38//38 39//39 145//145
f 39//39 40//40 145//145
f 40//40 41//41 145//145
f 41//41 42//42 145//145
f 42//42 43//43 145//145
f 43//43 44//44 145//145
f 44//44 45//45 145//145
f 45//45 46//46 145//145
f 46//46 47//47 145//145
f 47//47 48//48 145//145
f 48//48 49//49 145//145
f 49//49 50//50 145//145
f 50//50 51//51 145//145
f 51//51 52//52 145//145
f 52//52 53//53 145//145
f 53//53 54//54 145//145
f 54//54 55//55 145//145
f 55//55 56//56 145//145
f 56//56 57//57 145//145
f 57//57 58//58 145//145
f 58//58 59//59 145//145
f 59//59 60//60 145//145
f 60//60 61//61 145//145
f 61//61 62//62 145//145
f 62//62 63//63 145//145
f 63//63 64//64 145//145
f 64//64 65//65 145//145
f 65//65 66//66 145//145
f 66//66 67//67 145//145
f 67//67 68//68 145//145
f 68//68 69//69 145//145
f 69//69 70//70 145//145
f 70//70 71//71 145//145
f 71//71 72//72 145//145
f 72//72 73//73 145//145
f 73//73 74//74 145//145
f 74//74 75//75 145//145
f 75//75 76//76 145//145
f 76//76 77//77 145//145
f 77//77 78//78 145//145
f 78//78 79//79 145//145
f 79//79 80//80 145//145
f 80//80 81//81 145//145
f 81//81 82//82 145//145
f 82//82 83//83 145//145
f 83//83 84//84 145//145
f 84//84 85//85 145//145
f 85//85 86//86 145//145
f 86//86 87//87 145//145
f 87//87 88//88 145//145
f 88//88 89//89 145//145
f 89//89 90//90 145//145
f 90//90 91//91 145//145
f 91//91 92//92 145//145
f 92//92 93//93 145//145
f 93//93 94//94 145//145
f 94//94 95//95 145//145
f 95//95 96//96 145//145
f 96//96 97//97 145//145
f 97//97 98//98 145//145
f 98//98 99//99 145//145
f 99//99 100//100 145//145
f 100//100 101//101 145//145
f 101//101 102//102 145//145
f 102//102 103//103 145//145
f 103//103 104//104 145//145
f 104//104 105//105 145//145
f 105//105 106//106 145//145
f 106//106 107//107 145//145
f 107//107 108//108 145//145
f 108//108 109//109 145//145
f 109//109 110//110 145//145
f 110//110 111//111 145//145
f 111//111 112//112 145//145
f 112//112 113//113 145//145
f 113//113 114//114 145//145
f 114//114 115//115 145//145
f 115//115 116//116 145//145
f 116//116 117//117 145//145
f 117//117 118//118 145//145
f 118//118 119//119 145//145
f 119//119 120//120 145//145
f 120//120 121//121 145//145
f 121//121 122//122 145//145
f 122//122 123//123 145//145
f 123//123 124//124 145//145
f 124//124 125//125 145//145
f 125//125 126//126 145//145
f 126//126 127//127 145//145
f 127//127 128//128 145//145
f 128//128 129//129 145//145
f 129//129 130//130 145//145
f 130//130 131//131 145//145
f 131//131 132//132 145//145
f 132//132 133//133 145//145
f 133//133 134//134 145//145
f 134//134 135//135 145//145
f 135//135 136//136 145//145
f 136//136 137//137 145//145
f 137//137 138//138 145//145
f 138//138 139//139 145//145
f 139//139 140//140 145//145
f 140//140 141//141 145//145
f 141//141 142//142 145//145
f 142//142 143//143 145//145
f 143//143 144//144 145//145
f 144//144 1//1 145//145
f 146//146 72//72 71//71
f 147//147 71//71 70//70
f 148//148 70//70 69//69
f 149//149 69//69 68//68
f 150//150 68//68 67//67
f 151//151 67//67 66//66
f 152//152 66//66 65//65
f 153//153 65//65 64//64
f 154//154 64//64 63//63
f 155//155 63//63 62//62
f 156//156 62//62 61//61
f 157//157 61//61 60//60
f 158//158 60//60 59//59
f 159//159 59//59 58//58
f 160//160 58//58 57//57
f 161//161 57//57 56//56
f 162//162 56//56 55//55
f 163//163 55//55 54//54
f 164//164 54//54 53//53
f 165//165 53//53 52//52
f 166//166 52//52 51//51
f 167//167 51//51 50//50
f 168//168 50//50 49//49
f 169//169 49//49 48//48
f 170//170 48//48 47//47
f 171//171 47//47 46//46
f 172//172 46//46 45//45
f 173//173 45//45 44//44
f 174//174 44//44 43//43
f 175//175 43//43 42//42
f 176//176 42//42 41//41
f 177//177 41//41 40//40
f 178//178 40//40 39//39
f 179//179 39//39 38//38
f 180//180 38//38 37//37
f 181//181 37//37 36//36
f 182//182 36//36 35//35
f 183//183 35//35 34//34
f 184//184 34//34 33//33
f 185//185 33//33 32//32
f 186//186 32//32 31//31
f 187//187 31//31 30//30
f 188//188 30//30 29//29
f 189//189 29//29 28//28
f 190//190 28//28 27//27
f 191//191 27//27 26//26
f 192//192 26//26 25//25
f 193//193 25//25 24//24
f 194//194 24//24 23//23
f 195//195 23//23 22//22
f 196//196 22//22 21//21
f 197//197 21//21 20//20
f 198//198 20//20 19//19
f 199//199 19//19 18//18
f 200//200 18//18 17//17
f 201//201 17//17 16//16
f 202//202 16//16 15//15
f 203//203 15//15 14//14
f 204//204 14//14 13//13
f 205//205 13//13 12//12
f 206//206 12//12 11//11
f 207//207 11//11 10//10
f 208//208 10//10 9//9
f 209//209 9//9 8//8
f 210//210 8//8 7//7
f 211//211 7//7 6//6
f 212//212 6//6 5//5
f 213//213 5//5 4//4
f 214//214 4//4 3//3
f 215//215 3//3 2//2
f 216//216 2//2 1//1
f 217//217 1//1 144//144
f 218//218 144//144 143//143
f 219//219 143//143 142//142
f 220//220 142//142 141//141
f 221//221 141//141 140//140
f 222//222 140//140 139//139
f 223//223 139//139 138//138
f 224//224 138//138 137//137
f 225//225 137//137 136//136
f 226//226 136//136 135//135
f 227//227 135//135 134//134
f 228//228 134//134 133//133
f 229//229 133//133 132//132
f 230//230 132//132 131//131
f 231//231 131//131 130//130
f 232//232 130//130 129//129
f 233//233 129//129 128//128
f 234//234 128//128 127//127
f 235//235 127//127 126//126
f 236//236 126//126 125//125
f 237//237 125//125 124//124
f 238//238 124//124 123//123
f 239//239 123//123 122//122
f 240//240 122//122 121//121
f 241//241 121//121 120//120
f 242//242 120//120 119//119
f 243//243 119//119 118//118
f 244//244 118//118 117//117
f 245//245 117//117 116//116
f 246//246 116//116 115//115
f 247//247 115//115 114//114
f 248//248 114//114 113//113
f 249//249 113//113 112//112
f 250//250 112//112 111//111
f 251//251 111//111 110//110
f 252//252 110//110 109//109
f 253//253 109//109 108//108
f 254//254 108//108 107//107
f 255//255 107//107 106//106
f 256//256 106//106 105//105
f 257//257 105//105 104//104
f 258//258 104//104 103//103
f 259//259 103//103 102//102
f 260//260 102//102 101//101
f 261//261 101//101 100//100
f 262//262 100//100 99//99
f 263//263 99//99 98//98
f 264//264 98//98 97//97
f 265//265 97//97 96//96
f 266//266 96//96 95//95
f 267//267 95//95 94//94
f 268//268 94//94 93//93
f 269//269 93//93 92//92
f 270//270 92//92 91//91
f 271//271 91//91 90//90
f 272//272 90//90 89//89
f 273//273 89//89 88//88
f 274//274 88//88 87//87
f 275//275 87//87 86//86
f 276//276 86//86 85//85
f 277//277 85//85 84//84
f 278//278 84//84 83//83
f 279//279 83//83 82//82
f 280//280 82//82 81//81
f 281//281 81//81 80//80
f 282//282 80//80 79//79
f 283//283 79//79 78//78
f 284//284 78//78 77//77
f 285//285 77//77 76//76
f 286//286 76//76 75//75
f 287//287 75//75 74//74
f 288//288 74//74 73//73
f 289//289 73//73 72//72
f 72//72 146//146 289//289
f 73//73 289//289 288//288
f 74//74 288//288 287//287
f 75//75 287//287 286//286
f 76//76 286//286 285//285
f 77//77 285//285 284//284
f 78//78 284//284 283//283
f 79//79 283//283 282//282
f 80//80 282//282 281//281
f 81//81 281//281 280//280
f 82//82 280//280 279//279
f 83//83 279//279 278//278
f 84//84 278//278 277//277
f 85//85 277//277 276//276
f 86//86 276//276 275//275
f 87//87 275//275 274//274
f 88//88 274//274 273//273
f 89//89 273//273 272//272
f 90//90 272//272 271//271
f 91//91 271//271 270//270
f 92//92 270//270 269//269
f 93//93 269//269 268//268
f 94//94 268//268 267//267
f 95//95 267//267 266//266
f 96//96 266//266 265//265
f 97//97 265//265 264//264
f 98//98 264//264 263//263
f 99//99 263//263 262//262
f 100//100 262//262 261//261
f 101//101 261//261 260//260
f 102//102 260//260 259//259
f 103//103 259//259 258//258
f 104//104 258//258 257//257
f 105//105 257//257 256//256
f 106//106 256//256 255//255
f 107//107 255//255 254//254
f 108//108 254//254 253//253
f 109//109 253//253 252//252
f 110//110 252//252 251//251
f 111//111 251//251 250//250
f 112//112 250//250 249//249
f 113//113 249//249 248//248
f 114//114 248//248 247//247
f 115//115 247//247 246//246
f 116//116 246//246 245//245
f 117//117 245//245 244//244
f 118//118 244//244 243//243
f 119//119 243//243 242//242
f 120//120 242//242 241//241
f 121//121 241//241 240//240
f 122//122 240//240 239//239
f 123//123 239//239 238//238
f 124//124 238//238 237//237
f 125//125 237//237 236//236
f 126//126 236//236 235//235
f 127//127 235//235 234//234
f 128//128 234//234 233//233
f 129//129 233//233 232//232
f 130//130 232//232 231//231
f 131//131 231//231 230//230
f 132//132 230//230 229//229
f 133//133 229//229 228//228
f 134//134 228//228 227//227
f 135//135 227//227 226//226
f 136//136 226//226 225//225
f 137//137 225//225 224//224
f 138//138 224//224 223//223
f 139//139 223//223 222//222
f 140//140 222//222 221//221
f 141//141 221//221 220//220
f 142//142 220//220 219//219
f 143//143 219//219 218//218
f 144//144 218//218 217//217
f 1//1 217//217 216//216
f 2//2 216//216 215//215
f 3//3 215//215 214//214
f 4//4 214//214 213//213
f 5//5 213//213 212//212
f 6//6 212//212 211//211
f 7//7 211//211 210//210
f 8//8 210//210 209//209
f 9//9 209//209 208//208
f 10//10 208//208 207//207
f 11//11 207//207 206//206
f 12//12 206//206 205//205
f 13//13 205//205 204//204
f 14//14 204//204 203//203
f 15//15 203//203 202//202
f 16//16 202//202 201//201
f 17//17 201//201 200//200
f 18//18 200//200 199//199
f 19//19 199//199 198//198
f 20//20 198//198 197//197
f 21//21 197//197 196//196
f 22//22 196//196 195//195
f 23//23 195//195 194//194
f 24//24 194//194 193//193
f 25//25 193//193 192//192
f 26//26 192//192 191//191
f 27//27 191//191 190//190
f 28//28 190//190 189//189
f 29//29 189//189 188//188
f 30//30 188//188 187//187
f 31//31 187//187 186//186
f 32//32 186//186 185//185
f 33//33 185//185 184//184
f 34//34 184//184 183//183
f 35//35 183//183 182//182
f 36//36 182//182 181//181
f 37//37 181//181 180//180
f 38//38 180//180 179//179
f 39//39 179//179 178//178
f 40//40 178//178 177//177
f 41//41 177//177 176//176
f 42//42 176//176 175//175
f 43//43 175//175 174//174
f 44//44 174//174 173//173
f 45//45 173//173 172//172
f 46//46 172//172 171//171
f 47//47 171//171 170//170
f 48//48 170//170 169//169
f 49//49 169//169 168//168
f 50//50 168//168 167//167
f 51//51 167//167 166//166
f 52//52 166//166 165//165
f 53//53 165//165 164//164
f 54//54 164//164 163//163
f 55//55 163//163 162//162
f 56//56 162//162 161//161
f 57//57 161//161 160//160
f 58//58 160//160 159//159
f 59//59 159//159 158//158
f 60//60 158//158 157//157
f 61//61 157//157 156//156
f 62//62 156//156 155//155
f 63//63 155//155 154//154
f 64//64 154//154 153//153
f 65//65 153//153 152//152
f 66//66 152//152 151//151
f 67//67 151//151 150//150
f 68//68 150//150 149//149
f 69//69 149//149 148//148
f 70//70 148//148 147//147
f 71//71 147//147 146//146
f 290//290 291//291 181//181
f 290//290 182//182 183//183
f 292//292 293//293 253//253
f 292//292 254//254 255//255
f 291//291 180//180 181//181
f 183//183 294//294 290//290
f 293//293 252//252 253//253
f 255//255 295//295 292//292
f 291//291 296//296 179//179
f 183//183 184//184 294//294
f 293//293 297//297 251//251
f 255//255 256//256 295//295
f 181//181 182//182 290//290
f 294//294 184//184 185//185
f 186//186 187//187 298//298
f 253//253 254//254 292//292
f 295//295 256//256 257//257
f 258//258 259//259 299//299
f 178//178 296//296 300//300
f 185//185 301//301 294//294
f 301//301 185//185 186//186
f 250//250 297//297 302//302
f 257//257 303//303 295//295
f 303//303 257//257 258//258
f 300//300 177//177 178//178
f 298//298 301//301 186//186
f 302//302 249//249 250//250
f 299//299 303//303 258//258
f 300//300 304//304 176//176
f 179//179 180//180 291//291
f 302//302 305//305 248//248
f 251//251 252//252 293//293
f 178//178 179//179 296//296
f 298//298 187//187 188//188
f 306//306 189//189 190//190
f 305//305 307//307 246//246
f 250//250 251//251 297//297
f 299//299 259//259 260//260
f 304//304 308//308 174//174
f 188//188 306//306 298//298
f 306//306 188//188 189//189
f 246//246 247//247 305//305
f 260//260 309//309 299//299
f 309//309 261//261 262//262
f 174//174 175//175 304//304
f 190//190 310//310 306//306
f 248//248 249//249 302//302
f 309//309 260//260 261//261
f 308//308 311//311 173//173
f 176//176 177//177 300//300
f 307//307 312//312 245//245
f 262//262 313//313 309//309
f 311//311 314//314 171//171
f 175//175 176//176 304//304
f 310//310 190//190 191//191
f 312//312 315//315 243//243
f 247//247 248//248 305//305
f 313//313 262//262 263//263
f 171//171 172//172 311//311
f 191//191 316//316 310//310
f 316//316 192//192 193//193
f 243//243 244//244 312//312
f 263//263 317//317 313//313
f 317//317 264//264 265//265
f 173//173 174//174 308//308
f 316//316 191//191 192//192
f 245//245 246//246 307//307
f 317//317 263//263 264//264
f 193//193 318//318 316//316
f 318//318 193//193 194//194
f 265//265 319//319 317//317
f 319//319 265//265 266//266
f 314//314 320//320 170//170
f 194//194 321//321 318//318
f 315//315 322//322 242//242
f 266//266 323//323 319//319
f 320//320 324//324 169//169
f 172//172 173//173 311//311
f 244//244 245//245 312//312
f 323//323 266//266 267//267
f 170//170 171//171 314//314
f 321//321 194//194 195//195
f 325//325 196//196 197//197
f 326//326 327//327 239//239
f 322//322 326//326 241//241
f 267//267 328//328 323//323
f 324//324 329//329 167//167
f 195//195 325//325 321//321
f 325//325 195//195 196//196
f 239//239 240//240 326//326
f 242//242 243//243 315//315
f 328//328 268//268 269//269
f 167//167 168//168 324//324
f 197//197 330//330 325//325
f 241//241 242//242 322//322
f 328//328 267//267 268//268
f 329//329 331//331 166//166
f 169//169 170//170 320//320
f 269//269 332//332 328//328
f 332//332 269//269 270//270
f 168//168 169//169 324//324
f 330//330 197//197 198//198
f 327//327 333//333 238//238
f 270//270 334//334 332//332
f 198//198 335//335 330//330
f 335//335 198//198 199//199
f 240//240 241//241 326//326
f 334//334 270//270 271//271
f 331//331 336//336 165//165
f 199//199 337//337 335//335
f 333//333 338//338 237//237
f 271//271 339//339 334//334
f 336//336 340//340 164//164
f 166//166 167//167 329//329
f 338//338 341//341 236//236
f 238//238 239//239 327//327
f 165//165 166//166 331//331
f 337//337 199//199 200//200
f 237//237 238//238 333//333
f 339//339 271//271 272//272
f 200//200 342//342 337//337
f 342//342 200//200 201//201
f 272//272 343//343 339//339
f 343//343 272//272 273//273
f 340//340 344//344 163//163
f 201//201 345//345 342//342
f 345//345 202//202 203//203
f 346//346 347//347 233//233
f 341//341 346//346 235//235
f 273//273 348//348 343//343
f 344//344 349//349 161//161
f 164//164 165//165 336//336
f 345//345 201//201 202//202
f 233//233 234//234 346//346
f 236//236 237//237 338//338
f 348//348 274//274 275//275
f 161//161 162//162 344//344
f 203//203 350//350 345//345
f 235//235 236//236 341//341
f 348//348 273//273 274//274
f 163//163 164//164 340//340
f 350//350 203//203 204//204
f 347//347 351//351 232//232
f 275//275 352//352 348//348
f 349//349 353//353 160//160
f 204//204 354//354 350//350
f 234//234 235//235 346//346
f 352//352 275//275 276//276
f 353//353 355//355 159//159
f 162//162 163//163 344//344
f 351//351 356//356 231//231
f 276//276 357//357 352//352
f 160//160 161//161 349//349
f 354//354 204//204 205//205
f 232//232 233//233 347//347
f 357//357 276//276 277//277
f 205//205 358//358 354//354
f 277//277 359//359 357//357
f 159//159 160//160 353//353
f 277//277 360//360 359//359
f 205//205 361//361 358//358
f 361//361 205//205 206//206
f 362//362 363//363 230//230
f 231//231 232//232 351//351
f 364//364 365//365 158//158
f 206//206 366//366 361//361
f 356//356 362//362 231//231
f 360//360 277//277 278//278
f 365//365 367//367 157//157
f 355//355 364//364 159//159
f 278//278 368//368 360//360
f 368//368 278//278 279//279
f 158//158 159//159 364//364
f 366//366 206//206 207//207
f 363//363 369//369 229//229
f 279//279 370//370 368//368
f 367//367 371//371 156//156
f 207//207 372//372 366//366
f 369//369 373//373 228//228
f 230//230 231//231 362//362
f 157//157 158//158 365//365
f 372//372 207//207 208//208
f 229//229 230//230 363//363
f 370//370 279//279 280//280
f 208//208 374//374 372//372
f 374//374 208//208 209//209
f 280//280 375//375 370//370
f 375//375 280//280 281//281
f 371//371 376//376 155//155
f 209//209 377//377 374//374
f 373//373 378//378 227//227
f 281//281 379//379 375//375
f 376//376 380//380 154//154
f 156//156 157//157 367//367
f 378//378 381//381 226//226
f 228//228 229//229 369//369
f 155//155 156//156 371//371
f 377//377 209//209 210//210
f 227//227 228//228 373//373
f 379//379 281//281 282//282
f 210//210 382//382 377//377
f 282//282 383//383 379//379
f 210//210 384//384 382//382
f 282//282 385//385 383//383
f 154//154 155//155 376//376
f 384//384 210//210 211//211
f 386//386 387//387 225//225
f 226//226 227//227 378//378
f 388//388 389//389 153//153
f 211//211 390//390 384//384
f 381//381 386//386 226//226
f 385//385 282//282 283//283
f 389//389 391//391 152//152
f 380//380 388//388 154//154
f 387//387 392//392 224//224
f 283//283 393//393 385//385
f 153//153 154//154 388//388
f 390//390 211//211 212//212
f 225//225 226//226 386//386
f 393//393 283//283 284//284
f 212//212 394//394 390//390
f 284//284 395//395 393//393
f 212//212 396//396 394//394
f 284//284 397//397 395//395
f 398//398 399//399 151//151
f 152//152 153//153 389//389
f 224//224 225//225 387//387
f 397//397 284//284 285//285
f 391//391 398//398 152//152
f 396//396 212//212 213//213
f 400//400 401//401 223//223
f 285//285 402//402 397//397
f 213//213 403//403 396//396
f 213//213 214//214 404//404
f 223//223 401//401 405//405
f 392//392 400//400 224//224
f 151//151 399//399 406//406
f 404//404 403//403 213//213
f 223//223 224//224 400//400
f 285//285 286//286 407//407
f 151//151 152//152 398//398
f 407//407 402//402 285//285
f 406//406 150//150 151//151
f 405//405 222//222 223//223
f 149//149 150//150 408//408
f 214//214 409//409 404//404
f 221//221 222//222 410//410
f 286//286 411//411 407//407
f 406//406 408//408 150//150
f 215//215 412//412 409//409
f 405//405 410//410 222//222
f 287//287 413//413 411//411
f 409//409 214//214 215//215
f 215//215 216//216 414//414
f 411//411 286//286 287//287
f 287//287 288//288 415//415
f 149//149 416//416 417//417
f 414//414 412//412 215//215
f 221//221 418//418 419//419
f 415//415 413//413 287//287
f 408//408 416//416 149//149
f 410//410 418//418 221//221
f 417//417 148//148 149//149
f 419//419 220//220 221//221
f 216//216 420//420 414//414
f 217//217 421//421 420//420
f 219//219 220//220 422//422
f 288//288 423//423 415//415
f 147//147 148//148 424//424
f 420//420 216//216 217//217
f 419//419 422//422 220//220
f 289//289 425//425 423//423
f 417//417 424//424 148//148
f 423//423 288//288 289//289
f 424//424 426//426 147//147
f 289//289 427//427 425//425
f 146//146 147//147 428//428
f 217//217 429//429 421//421
f 218//218 219//219 430//430
f 422//422 431//431 219//219
f 426//426 428//428 147//147
f 218//218 432//432 429//429
f 431//431 430//430 219//219
f 146//146 433//433 427//427
f 429//429 217//217 218//218
f 427//427 289//289 146//146
f 430//430 432//432 218//218
f 428//428 433//433 146//146
f 430//430 434//434 435//435
f 431//431 436//436 434//434
f 422//422 437//437 436//436
f 419//419 438//438 437//437
f 418//418 439//439 438//438
f 410//410 440//440 439//439
f 405//405 441//441 440//440
f 401//401 442//442 441//441
f 400//400 443//443 442//442
f 392//392 444//444 443//443
f 387//387 445//445 444//444
f 386//386 446//446 445//445
f 381//381 447//447 446//446
f 378//378 448//448 447//447
f 373//373 449//449 448//448
f 369//369 450//450 449//449
f 363//363 451//451 450//450
f 362//362 452//452 451//451
f 356//356 453//453 452//452
f 351//351 454//454 453//453
f 347//347 455//455 454//454
f 346//346 456//456 455//455
f 341//341 457//457 456//456
f 338//338 458//458 457//457
f 333//333 459//459 458//458
f 327//327 460//460 459//459
f 326//326 461//461 460//460
f 322//322 462//462 461//461
f 315//315 463//463 462//462
f 312//312 464//464 463//463
f 307//307 465//465 464//464
f 305//305 466//466 465//465
f 302//302 467//467 466//466
f 297//297 468//468 467//467
f 293//293 469//469 468//468
f 292//292 470//470 469//469
f 295//295 471//471 470//470
f 303//303 472//472 471//471
f 299//299 473//473 472//472
f 309//309 474//474 473//473
f 313//313 475//475 474//474
f 317//317 476//476 475//475
f 319//319 477//477 476//476
f 323//323 478//478 477//477
f 328//328 479//479 478//478
f 332//332 480//480 479//479
f 334//334 481//481 480//480
f 339//339 482//482 481//481
f 343//343 483//483 482//482
f 348//348 484//484 483//483
f 352//352 485//485 484//484
f 357//357 486//486 485//485
f 359//359 487//487 486//486
f 360//360 488//488 487//487
f 368//368 489//489 488//488
f 370//370 490//490 489//489
f 375//375 491//491 490//490
f 379//379 492//492 491//491
f 383//383 493//493 492//492
f 385//385 494//494 493//493
f 393//393 495//495 494//494
f 395//395 496//496 495//495
f 397//397 497//497 496//496
f 402//402 498//498 497//497
f 407//407 499//499 498//498
f 411//411 500//500 499//499
f 413//413 501//501 500//500
f 415//415 502//502 501//501
f 423//423 503//503 502//502
f 425//425 504//504 503//503
f 427//427 505//505 504//504
f 433//433 506//506 505//505
f 428//428 507//507 506//506
f 426//426 508//508 507//507
f 424//424 509//509 508//508
f 417//417 510//510 509//509
f 416//416 511//511 510//510
f 408//408 512//512 511//511
f 406//406 513//513 512//512
f 399//399 514//514 513//513
f 398//398 515//515 514//514
f 391//391 516//516 515//515
f 389//389 517//517 516//516
f 388//388 518//518 517//517
f 380//380 519//519 518//518
f 376//376 520//520 519//519
f 371//371 521//521 520//520
f 367//367 522//522 521//521
f 365//365 523//523 522//522
f 364//364 524//524 523//523
f 355//355 525//525 524//524
f 353//353 526//526 525//525
f 349//349 527//527 526//526
f 344//344 528//528 527//527
f 340//340 529//529 528//528
f 336//336 530//530 529//529
f 331//331 531//531 530//530
f 329//329 532//532 531//531
f 324//324 533//533 532//532
f 320//320 534//534 533//533
f 314//314 535//535 534//534
f 311//311 536//536 535//535
f 308//308 537//537 536//536
f 304//304 538//538 537//537
f 300//300 539//539 538//538
f 296//296 540//540 539//539
f 291//291 541//541 540//540
f 290//290 542//542 541//541
f 294//294 543//543 542//542
f 301//301 544//544 543//543
f 298//298 545//545 544//544
f 306//306 546//546 545//545
f 310//310 547//547 546//546
f 316//316 548//548 547//547
f 318//318 549//549 548//548
f 321//321 550//550 549//549
f 325//325 551//551 550//550
f 330//330 552//552 551//551
f 335//335 553//553 552//552
f 337//337 554//554 553//553
f 342//342 555//555 554//554
f 345//345 556//556 555//555
f 350//350 557//557 556//556
f 354//354 558//558 557//557
f 358//358 559//559 558//558
f 361//361 560//560 559//559
f 366//366 561//561 560//560
f 372//372 562//562 561//561
f 374//374 563//563 562//562
f 377//377 564//564 563//563
f 382//382 565//565 564//564
f 384//384 566//566 565//565
f 390//390 567//567 566//566
f 394//394 568//568 567//567
f 396//396 569//569 568//568
f 403//403 570//570 569//569
f 404//404 571//571 570//570
f 409//409 572//572 571//571
f 412//412 573//573 572//572
f 414//414 574//574 573//573
f 420//420 575//575 574//574
f 421//421 576//576 575//575
f 429//429 577//577 576//576
f 432//432 435//435 577//577
f 577//577 429//429 432//432
f 576//576 421//421 429//429
f 575//575 420//420 421//421
f 574//574 414//414 420//420
f 573//573 412//412 414//414
f 572//572 409//409 412//412
f 571//571 404//404 409//409
f 570//570 403//403 404//404
f 569//569 396//396 403//403
f 568//568 394//394 396//396
f 567//567 390//390 394//394
f 566//566 384//384 390//390
f 565//565 382//382 384//384
f 564//564 377//377 382//382
f 563//563 374//374 377//377
f 562//562 372//372 374//374
f 561//561 366//366 372//372
f 560//560 361//361 366//366
f 559//559 358//358 361//361
f 558//558 354//354 358//358
f 557//557 350//350 354//354
f 556//556 345//345 350//350
f 555//555 342//342 345//345
f 554//554 337//337 342//342
f 553//553 335//335 337//337
f 552//552 330//330 335//335
f 551//551 325//325 330//330
f 550//550 321//321 325//325
f 549//549 318//318 321//321
f 548//548 316//316 318//318
f 547//547 310//310 316//316
f 546//546 306//306 310//310
f 545//545 298//298 306//306
f 544//544 301//301 298//298
f 543//543 294//294 301//301
f 542//542 290//290 294//294
f 541//541 291//291 290//290
f 540//540 296//296 291//291
f 539//539 300//300 296//296
f 538//538 304//304 300//300
f 537//537 308//308 304//304
f 536//536 311//311 308//308
f 535//535 314//314 311//311
f 534//534 320//320 314//314
f 533//533 324//324 320//320
f 532//532 329//329 324//324
f 531//531 331//331 329//329
f 530//530 336//336 331//331
f 529//529 340//340 336//336
f 528//528 344//344 340//340
f 527//527 349//349 344//344
f 526//526 353//353 349//349
f 525//525 355//355 353//353
f 524//524 364//364 355//355
f 523//523 365//365 364//364
f 522//522 367//367 365//365
f 521//521 371//371 367//367
f 520//520 376//376 371//371
f 519//519 380//380 376//376
f 518//518 388//388 380//380
f 517//517 389//389 388//388
f 516//516 391//391 389//389
f 515//515 398//398 391//391
f 514//514 399//399 398//398
f 513//513 406//406 399//399
f 512//512 408//408 406//406
f 511//511 416//416 408//408
f 510//510 417//417 416//416
f 509//509 424//424 417//417
f 508//508 426//426 424//424
f 507//507 428//428 426//426
f 506//506 433//433 428//428
f 505//505 427//427 433//433
f 504//504 425//425 427//427
f 503//503 423//423 425//425
f 502//502 415//415 423//423
f 501//501 413//413 415//415
f 500//500 411//411 413//413
f 499//499 407//407 411//411
f 498//498 402//402 407//407
f 497//497 397//397 402//402
f 496//496 395//395 397//397
f 495//495 393//393 395//395
f 494//494 385//385 393//393
f 493//493 383//383 385//385
f 492//492 379//379 383//383
f 491//491 375//375 379//379
f 490//490 370//370 375//375
f 489//489 368//368 370//370
f 488//488 360//360 368//368
f 487//487 359//359 360//360
f 486//486 357//357 359//359
f 485//485 352//352 357//357
f 484//484 348//348 352//352
f 483//483 343//343 348//348
f 482//482 339//339 343//343
f 481//481 334//334 339//339
f 480//480 332//332 334//334
f 479//479 328//328 332//332
f 478//478 323//323 328//328
f 477//477 319//319 323//323
f 476//476 317//317 319//319
f 475//475 313//313 317//317
f 474//474 309//309 313//313
f 473//473 299//299 309//309
f 472//472 303//303 299//299
f 471//471 295//295 303//303
f 470//470 292//292 295//295
f 469//469 293//293 292//292
f 468//468 297//297 293//293
f 467//467 302//302 297//297
f 466//466 305//305 302//302
f 465//465 307//307 305//305
f 464//464 312//312 307//307
f 463//463 315//315 312//312
f 462//462 322//322 315//315
f 461//461 326//326 322//322
f 460//460 327//327 326//326
f 459//459 333//333 327//327
f 458//458 338//338 333//333
f 457//457 341//341 338//338
f 456//456 346//346 341//341
f 455//455 347//347 346//346
f 454//454 351//351 347//347
f 453//453 356//356 351//351
f 452//452 362//362 356//356
f 451//451 363//363 362//362
f 450//450 369//369 363//363
f 449//449 373//373 369//369
f 448//448 378//378 373//373
f 447//447 381//381 378//378
f 446//446 386//386 381//381
f 445//445 387//387 386//386
f 444//444 392//392 387//387
f 443//443 400//400 392//392
f 442//442 401//401 400//400
f 441//441 405//405 401//401
f 440//440 410//410 405//405
f 439//439 418//418 410//410
f 438//438 419//419 418//418
f 437//437 422//422 419//419
f 436//436 431//431 422//422
f 434//434 430//430 431//431
f 435//435 432//432 430//430
f 507//507 504//504 505//505
f 577//577 435//435 434//434
f 505//505 506//506 507//507
f 436//436 576//576 577//577
f 507//507 508//508 504//504
f 436//436 575//575 576//576
f 509//509 503//503 504//504
f 434//434 436//436 577//577
f 509//509 502//502 503//503
f 436//436 437//437 575//575
f 508//508 509//509 504//504
f 438//438 574//574 575//575
f 510//510 501//501 502//502
f 438//438 573//573 574//574
f 509//509 510//510 502//502
f 437//437 438//438 575//575
f 510//510 511//511 501//501
f 438//438 439//439 573//573
f 512//512 500//500 501//501
f 440//440 572//572 573//573
f 512//512 499//499 500//500
f 440//440 571//571 572//572
f 511//511 512//512 501//501
f 439//439 440//440 573//573
f 513//513 498//498 499//499
f 440//440 441//441 571//571
f 512//512 513//513 499//499
f 442//442 570//570 571//571
f 513//513 514//514 498//498
f 442//442 569//569 570//570
f 515//515 497//497 498//498
f 441//441 442//442 571//571
f 515//515 496//496 497//497
f 442//442 443//443 569//569
f 514//514 515//515 498//498
f 444//444 568//568 569//569
f 515//515 516//516 496//496
f 443//443 444//444 569//569
f 517//517 495//495 496//496
f 445//445 567//567 568//568
f 517//517 494//494 495//495
f 445//445 566//566 567//567
f 516//516 517//517 496//496
f 444//444 445//445 568//568
f 518//518 493//493 494//494
f 445//445 446//446 566//566
f 517//517 518//518 494//494
f 447//447 565//565 566//566
f 518//518 519//519 493//493
f 446//446 447//447 566//566
f 520//520 492//492 493//493
f 448//448 564//564 565//565
f 520//520 491//491 492//492
f 448//448 563//563 564//564
f 519//519 520//520 493//493
f 447//447 448//448 565//565
f 520//520 521//521 491//491
f 448//448 449//449 563//563
f 522//522 490//490 491//491
f 450//450 562//562 563//563
f 522//522 489//489 490//490
f 450//450 561//561 562//562
f 521//521 522//522 491//491
f 449//449 450//450 563//563
f 522//522 523//523 489//489
f 451//451 560//560 561//561
f 524//524 488//488 489//489
f 450//450 451//451 561//561
f 523//523 524//524 489//489
f 451//451 452//452 560//560
f 525//525 487//487 488//488
f 453//453 559//559 560//560
f 524//524 525//525 488//488
f 452//452 453//453 560//560
f 526//526 486//486 487//487
f 454//454 558//558 559//559
f 526//526 485//485 486//486
f 454//454 557//557 558//558
f 525//525 526//526 487//487
f 453//453 454//454 559//559
f 526//526 527//527 485//485
f 454//454 455//455 557//557
f 528//528 484//484 485//485
f 456//456 556//556 557//557
f 528//528 483//483 484//484
f 455//455 456//456 557//557
f 527//527 528//528 485//485
f 457//457 555//555 556//556
f 528//528 529//529 483//483
f 456//456 457//457 556//556
f 530//530 482//482 483//483
f 458//458 554//554 555//555
f 530//530 481//481 482//482
f 458//458 553//553 554//554
f 529//529 530//530 483//483
f 457//457 458//458 555//555
f 530//530 531//531 481//481
f 458//458 459//459 553//553
f 532//532 480//480 481//481
f 460//460 552//552 553//553
f 532//532 479//479 480//480
f 460//460 551//551 552//552
f 531//531 532//532 481//481
f 459//459 460//460 553//553
f 532//532 533//533 479//479
f 461//461 550//550 551//551
f 534//534 478//478 479//479
f 460//460 461//461 551//551
f 533//533 534//534 479//479
f 461//461 462//462 550//550
f 535//535 477//477 478//478
f 463//463 549//549 550//550
f 534//534 535//535 478//478
f 462//462 463//463 550//550
f 536//536 476//476 477//477
f 464//464 548//548 549//549
f 536//536 475//475 476//476
f 464//464 547//547 548//548
f 535//535 536//536 477//477
f 463//463 464//464 549//549
f 537//537 474//474 475//475
f 464//464 465//465 547//547
f 536//536 537//537 475//475
f 466//466 546//546 547//547
f 537//537 538//538 474//474
f 466//466 545//545 546//546
f 539//539 473//473 474//474
f 465//465 466//466 547//547
f 539//539 472//472 473//473
f 467//467 544//544 545//545
f 538//538 539//539 474//474
f 466//466 467//467 545//545
f 539//539 540//540 472//472
f 467//467 468//468 544//544
f 541//541 471//471 472//472
f 469//469 543//543 544//544
f 541//541 470//470 471//471
f 469//469 542//542 543//543
f 540//540 541//541 472//472
f 468//468 469//469 544//544
f 469//469 470//470 542//542
f 541//541 542//542 470//470
# 1150 faces, 0 coords texture

# End of File
