####
#
# OBJ File Generated by Meshlab
#
####
# Object mount_2_collision.obj
#
# Vertices: 288
# Faces: 572
#
####
mtllib ./mount_2_collision.obj.mtl

vn 0.7112677 0.0310721 -0.7022341
v 0.0264870 0.0005945 -0.0100000
vn 0.7119606 0.0000001 -0.7022194
v 0.0265000 0.0000000 -0.0100000
vn 0.7112677 -0.0310720 -0.7022341
v 0.0264870 -0.0005945 -0.0100000
vn -0.7112678 0.0310721 -0.7022341
v -0.0264870 0.0005945 -0.0100000
vn -0.7092445 -0.0620663 -0.7022250
v -0.0264480 -0.0011895 -0.0100000
vn -0.7112676 -0.0310720 -0.7022343
v -0.0264870 -0.0005945 -0.0100000
vn 0.7092444 -0.0620663 -0.7022251
v 0.0264480 -0.0011895 -0.0100000
vn 0.7092444 0.0620664 -0.7022251
v 0.0264480 0.0011895 -0.0100000
vn -0.7119606 0.0000001 -0.7022194
v -0.0265000 0.0000000 -0.0100000
vn 0.7058557 0.0929589 -0.7022297
v 0.0263827 0.0017855 -0.0100000
vn -0.7092443 0.0620664 -0.7022252
v -0.0264480 0.0011895 -0.0100000
vn -0.7058559 0.0929589 -0.7022294
v -0.0263827 0.0017855 -0.0100000
vn -0.7058560 -0.0929588 -0.7022293
v -0.0263827 -0.0017855 -0.0100000
vn 0.7058563 -0.0929588 -0.7022291
v 0.0263827 -0.0017855 -0.0100000
vn 0.7011297 -0.1236693 -0.7022272
v 0.0262907 -0.0023831 -0.0100000
vn 0.7011297 0.1236695 -0.7022272
v 0.0262907 0.0023831 -0.0100000
vn -0.7011297 0.1236695 -0.7022272
v -0.0262907 0.0023831 -0.0100000
vn -0.7011297 -0.1236693 -0.7022272
v -0.0262907 -0.0023831 -0.0100000
vn 0.6950613 -0.1541113 -0.7022389
v 0.0261714 -0.0029826 -0.0100000
vn 0.6950616 0.1541115 -0.7022386
v 0.0261714 0.0029826 -0.0100000
vn -0.6950614 0.1541115 -0.7022389
v -0.0261714 0.0029826 -0.0100000
vn -0.6950614 -0.1541114 -0.7022387
v -0.0261714 -0.0029826 -0.0100000
vn 0.6876941 0.1842599 -0.7022287
v 0.0260241 0.0035846 -0.0100000
vn -0.6876941 0.1842598 -0.7022287
v -0.0260241 0.0035846 -0.0100000
vn -0.6876941 -0.1842597 -0.7022287
v -0.0260241 -0.0035846 -0.0100000
vn 0.6876941 -0.1842597 -0.7022287
v 0.0260241 -0.0035846 -0.0100000
vn -0.6790006 -0.2141324 -0.7022148
v -0.0258478 -0.0041895 -0.0100000
vn 0.6790006 -0.2141324 -0.7022148
v 0.0258478 -0.0041895 -0.0100000
vn 0.6790004 0.2141325 -0.7022150
v 0.0258478 0.0041895 -0.0100000
vn 0.6689852 0.2435687 -0.7022344
v 0.0256413 0.0047976 -0.0100000
vn -0.6790003 0.2141324 -0.7022150
v -0.0258478 0.0041895 -0.0100000
vn -0.6689852 0.2435687 -0.7022344
v -0.0256413 0.0047976 -0.0100000
vn -0.6689851 -0.2435685 -0.7022346
v -0.0256413 -0.0047976 -0.0100000
vn 0.6689851 -0.2435685 -0.7022346
v 0.0256413 -0.0047976 -0.0100000
vn -0.6577361 -0.2724906 -0.7022337
v -0.0254034 -0.0054092 -0.0100000
vn 0.6577361 -0.2724907 -0.7022337
v 0.0254034 -0.0054092 -0.0100000
vn 0.6577360 0.2724907 -0.7022337
v 0.0254034 0.0054092 -0.0100000
vn 0.6452282 0.3009477 -0.7022188
v 0.0251326 0.0060246 -0.0100000
vn -0.6577361 0.2724908 -0.7022337
v -0.0254034 0.0054092 -0.0100000
vn -0.6452281 0.3009477 -0.7022188
v -0.0251326 0.0060246 -0.0100000
vn -0.6452285 -0.3009477 -0.7022185
v -0.0251326 -0.0060245 -0.0100000
vn 0.6452284 -0.3009477 -0.7022185
v 0.0251326 -0.0060245 -0.0100000
vn -0.6314622 -0.3288255 -0.7022318
v -0.0248271 -0.0066438 -0.0100000
vn 0.6314621 -0.3288255 -0.7022318
v 0.0248271 -0.0066438 -0.0100000
vn 0.6314623 0.3288257 -0.7022315
v 0.0248271 0.0066438 -0.0100000
vn 0.6165240 0.3560479 -0.7022308
v 0.0244851 0.0072670 -0.0100000
vn -0.6314623 0.3288257 -0.7022315
v -0.0248271 0.0066438 -0.0100000
vn -0.6165242 -0.3560479 -0.7022306
v -0.0244851 -0.0072670 -0.0100000
vn 0.6165243 -0.3560480 -0.7022306
v 0.0244851 -0.0072670 -0.0100000
vn 0.6004079 0.3826081 -0.7022261
v 0.0241045 0.0078941 -0.0100000
vn -0.6165241 0.3560480 -0.7022307
v -0.0244851 0.0072670 -0.0100000
vn -0.6004077 0.3826079 -0.7022263
v -0.0241045 0.0078941 -0.0100000
vn -0.6004077 -0.3826078 -0.7022265
v -0.0241045 -0.0078941 -0.0100000
vn 0.6004074 -0.3826076 -0.7022267
v 0.0241045 -0.0078941 -0.0100000
vn 0.5831451 -0.4084212 -0.7022350
v 0.0236830 -0.0085247 -0.0100000
vn 0.5831450 0.4084213 -0.7022350
v 0.0236830 0.0085247 -0.0100000
vn -0.5831451 0.4084214 -0.7022348
v -0.0236830 0.0085247 -0.0100000
vn -0.5831448 -0.4084211 -0.7022352
v -0.0236830 -0.0085247 -0.0100000
vn 0.5647748 0.4334988 -0.7022167
v 0.0232182 0.0091585 -0.0100000
vn -0.5647748 0.4334988 -0.7022167
v -0.0232182 0.0091585 -0.0100000
vn -0.5647748 -0.4334987 -0.7022167
v -0.0232182 -0.0091585 -0.0100000
vn 0.5647748 -0.4334988 -0.7022167
v 0.0232182 -0.0091585 -0.0100000
vn -0.5453000 -0.4577256 -0.7022359
v -0.0227073 -0.0097948 -0.0100000
vn 0.5453000 -0.4577256 -0.7022359
v 0.0227073 -0.0097948 -0.0100000
vn 0.5453001 0.4577258 -0.7022357
v 0.0227073 0.0097948 -0.0100000
vn 0.5248356 0.4810602 -0.7022312
v 0.0221477 0.0104327 -0.0100000
vn -0.5453001 0.4577258 -0.7022356
v -0.0227073 0.0097948 -0.0100000
vn -0.5248356 0.4810602 -0.7022312
v -0.0221477 0.0104327 -0.0100000
vn -0.5248357 -0.4810602 -0.7022312
v -0.0221477 -0.0104327 -0.0100000
vn 0.5248357 -0.4810601 -0.7022312
v 0.0221477 -0.0104327 -0.0100000
vn -0.5033590 -0.5034903 -0.7022303
v -0.0215364 -0.0110711 -0.0100000
vn 0.5033588 -0.5034901 -0.7022305
v 0.0215364 -0.0110711 -0.0100000
vn 0.5033590 0.5034904 -0.7022302
v 0.0215364 0.0110711 -0.0100000
vn -0.5033588 0.5034902 -0.7022303
v -0.0215364 0.0110711 -0.0100000
vn 0.4809034 -0.5249956 -0.7022191
v 0.0208705 -0.0117084 -0.0100000
vn 0.4809032 0.5249955 -0.7022193
v 0.0208705 0.0117084 -0.0100000
vn -0.4809034 0.5249957 -0.7022189
v -0.0208705 0.0117084 -0.0100000
vn -0.4809032 -0.5249954 -0.7022194
v -0.0208705 -0.0117084 -0.0100000
vn 0.4575415 0.5454436 -0.7022443
v 0.0201469 0.0123427 -0.0100000
vn -0.4575417 -0.5454437 -0.7022442
v -0.0201469 -0.0123427 -0.0100000
vn 0.4575416 -0.5454436 -0.7022443
v 0.0201469 -0.0123427 -0.0100000
vn 0.4333318 0.5649062 -0.7022140
v 0.0193628 0.0129719 -0.0100000
vn -0.4575415 0.5454435 -0.7022444
v -0.0201469 0.0123427 -0.0100000
vn -0.4333318 0.5649064 -0.7022139
v -0.0193628 0.0129719 -0.0100000
vn -0.4333316 -0.5649059 -0.7022144
v -0.0193628 -0.0129719 -0.0100000
vn 0.4333317 -0.5649059 -0.7022143
v 0.0193628 -0.0129719 -0.0100000
vn 0.4082429 -0.5832686 -0.7022361
v 0.0185152 -0.0135931 -0.0100000
vn 0.4082430 0.5832688 -0.7022359
v 0.0185152 0.0135931 -0.0100000
vn -0.4082429 0.5832687 -0.7022359
v -0.0185152 0.0135931 -0.0100000
vn -0.4082430 -0.5832686 -0.7022360
v -0.0185152 -0.0135931 -0.0100000
vn 0.3824315 0.6005175 -0.7022286
v 0.0176018 0.0142032 -0.0100000
vn -0.3824315 -0.6005175 -0.7022285
v -0.0176018 -0.0142032 -0.0100000
vn 0.3824315 -0.6005175 -0.7022286
v 0.0176018 -0.0142032 -0.0100000
vn 0.3558871 0.6166103 -0.7022365
v 0.0166204 0.0147985 -0.0100000
vn -0.3824314 0.6005175 -0.7022286
v -0.0176018 0.0142032 -0.0100000
vn -0.3558871 0.6166104 -0.7022365
v -0.0166204 0.0147985 -0.0100000
vn -0.3558870 -0.6166100 -0.7022368
v -0.0166204 -0.0147985 -0.0100000
vn 0.3558870 -0.6166101 -0.7022368
v 0.0166204 -0.0147985 -0.0100000
vn -0.3286634 -0.6315549 -0.7022241
v -0.0155695 -0.0153749 -0.0100000
vn 0.3286635 -0.6315550 -0.7022241
v 0.0155695 -0.0153749 -0.0100000
vn 0.3286634 0.6315550 -0.7022241
v 0.0155695 0.0153749 -0.0100000
vn 0.3007874 0.6452900 -0.7022306
v 0.0144481 0.0159277 -0.0100000
vn -0.3286634 0.6315550 -0.7022241
v -0.0155695 0.0153749 -0.0100000
vn -0.3007874 -0.6452898 -0.7022307
v -0.0144481 -0.0159277 -0.0100000
vn 0.3007874 -0.6452900 -0.7022305
v 0.0144481 -0.0159277 -0.0100000
vn -0.3007874 0.6452901 -0.7022304
v -0.0144481 0.0159277 -0.0100000
vn 0.2723515 -0.6578003 -0.7022275
v 0.0132563 -0.0164519 -0.0100000
vn 0.2723515 0.6578007 -0.7022271
v 0.0132563 0.0164519 -0.0100000
vn -0.2723515 0.6578004 -0.7022274
v -0.0132563 0.0164519 -0.0100000
vn -0.2723515 -0.6578006 -0.7022272
v -0.0132563 -0.0164519 -0.0100000
vn 0.2434016 0.6690475 -0.7022331
v 0.0119954 0.0169420 -0.0100000
vn -0.2434016 -0.6690474 -0.7022332
v -0.0119954 -0.0169420 -0.0100000
vn 0.2434015 -0.6690472 -0.7022333
v 0.0119954 -0.0169420 -0.0100000
vn -0.2434015 0.6690473 -0.7022332
v -0.0119954 0.0169420 -0.0100000
vn 0.2140009 -0.6790261 -0.7022302
v 0.0106677 -0.0173925 -0.0100000
vn 0.2140008 0.6790261 -0.7022303
v 0.0106677 0.0173925 -0.0100000
vn -0.2140009 0.6790262 -0.7022301
v -0.0106677 0.0173925 -0.0100000
vn -0.2140008 -0.6790259 -0.7022304
v -0.0106677 -0.0173925 -0.0100000
vn 0.1842053 0.6876995 -0.7022378
v 0.0092769 0.0177977 -0.0100000
vn -0.1842053 -0.6876994 -0.7022379
v -0.0092769 -0.0177977 -0.0100000
vn 0.1842052 -0.6876991 -0.7022381
v 0.0092769 -0.0177977 -0.0100000
vn -0.1842052 0.6876993 -0.7022380
v -0.0092769 0.0177977 -0.0100000
vn 0.1540337 -0.6950977 -0.7022199
v 0.0078283 -0.0181521 -0.0100000
vn 0.1540337 0.6950977 -0.7022200
v 0.0078283 0.0181521 -0.0100000
vn -0.1540337 0.6950979 -0.7022198
v -0.0078283 0.0181521 -0.0100000
vn -0.1540337 -0.6950976 -0.7022201
v -0.0078283 -0.0181521 -0.0100000
vn 0.1235723 0.7011321 -0.7022419
v 0.0063286 0.0184502 -0.0100000
vn -0.1235723 -0.7011319 -0.7022420
v -0.0063286 -0.0184502 -0.0100000
vn 0.1235723 -0.7011321 -0.7022419
v 0.0063286 -0.0184502 -0.0100000
vn -0.1235723 0.7011322 -0.7022418
v -0.0063286 0.0184502 -0.0100000
vn 0.0928961 -0.7058690 -0.7022245
v 0.0047859 -0.0186876 -0.0100000
vn 0.0928961 0.7058694 -0.7022241
v 0.0047859 0.0186876 -0.0100000
vn -0.0928961 0.7058692 -0.7022244
v -0.0047859 0.0186876 -0.0100000
vn -0.0928961 -0.7058693 -0.7022243
v -0.0047859 -0.0186876 -0.0100000
vn 0.0620230 0.7092367 -0.7022368
v 0.0032098 0.0188601 -0.0100000
vn -0.0620230 -0.7092366 -0.7022370
v -0.0032098 -0.0188601 -0.0100000
vn 0.0620230 -0.7092367 -0.7022368
v 0.0032098 -0.0188601 -0.0100000
vn -0.0620230 0.7092368 -0.7022367
v -0.0032098 0.0188601 -0.0100000
vn -0.0310427 -0.7112763 -0.7022268
v -0.0016107 -0.0189649 -0.0100000
vn 0.0310427 -0.7112764 -0.7022267
v 0.0016107 -0.0189649 -0.0100000
vn 0.0310427 0.7112762 -0.7022269
v 0.0016107 0.0189649 -0.0100000
vn 0.0000000 0.7119446 -0.7022356
v 0.0000000 0.0190000 -0.0100000
vn -0.0310427 0.7112763 -0.7022268
v -0.0016107 0.0189649 -0.0100000
vn -0.0000000 -0.7119443 -0.7022360
v -0.0000000 -0.0190000 -0.0100000
vn 0.7112678 0.0310720 0.7022341
v 0.0264870 0.0005945 0.0000000
vn 0.7119606 -0.0000001 0.7022194
v 0.0265000 0.0000000 0.0000000
vn 0.7092443 0.0620663 0.7022252
v 0.0264480 0.0011895 0.0000000
vn 0.7058557 0.0929587 0.7022296
v 0.0263827 0.0017855 0.0000000
vn 0.7011297 0.1236693 0.7022272
v 0.0262907 0.0023831 0.0000000
vn 0.6950617 0.1541114 0.7022386
v 0.0261714 0.0029826 0.0000000
vn 0.6876941 0.1842597 0.7022287
v 0.0260241 0.0035846 0.0000000
vn 0.6790003 0.2141323 0.7022151
v 0.0258478 0.0041895 0.0000000
vn 0.6689852 0.2435686 0.7022344
v 0.0256413 0.0047976 0.0000000
vn 0.6577361 0.2724907 0.7022337
v 0.0254034 0.0054092 0.0000000
vn 0.6452281 0.3009475 0.7022188
v 0.0251326 0.0060246 0.0000000
vn 0.6314623 0.3288256 0.7022316
v 0.0248271 0.0066438 0.0000000
vn 0.6165240 0.3560479 0.7022308
v 0.0244851 0.0072670 0.0000000
vn 0.6004078 0.3826079 0.7022262
v 0.0241045 0.0078941 0.0000000
vn 0.5831450 0.4084212 0.7022351
v 0.0236830 0.0085247 0.0000000
vn 0.5647747 0.4334987 0.7022168
v 0.0232182 0.0091585 0.0000000
vn 0.5453001 0.4577257 0.7022358
v 0.0227073 0.0097948 0.0000000
vn 0.5248357 0.4810601 0.7022313
v 0.0221477 0.0104327 0.0000000
vn 0.5033590 0.5034903 0.7022302
v 0.0215364 0.0110711 0.0000000
vn 0.4809031 0.5249953 0.7022194
v 0.0208705 0.0117084 0.0000000
vn 0.4575416 0.5454436 0.7022443
v 0.0201469 0.0123427 0.0000000
vn 0.4333318 0.5649061 0.7022142
v 0.0193628 0.0129719 0.0000000
vn 0.4082431 0.5832687 0.7022359
v 0.0185152 0.0135931 0.0000000
vn 0.3824314 0.6005173 0.7022288
v 0.0176018 0.0142032 0.0000000
vn 0.3558871 0.6166103 0.7022366
v 0.0166204 0.0147985 0.0000000
vn 0.3286634 0.6315548 0.7022243
v 0.0155695 0.0153749 0.0000000
vn 0.3007874 0.6452899 0.7022306
v 0.0144481 0.0159277 0.0000000
vn 0.2723515 0.6578005 0.7022273
v 0.0132563 0.0164519 0.0000000
vn 0.2434016 0.6690473 0.7022331
v 0.0119954 0.0169420 0.0000000
vn 0.2140008 0.6790259 0.7022304
v 0.0106677 0.0173925 0.0000000
vn 0.1842053 0.6876993 0.7022380
v 0.0092769 0.0177977 0.0000000
vn 0.1540337 0.6950976 0.7022201
v 0.0078283 0.0181521 0.0000000
vn 0.1235723 0.7011320 0.7022420
v 0.0063286 0.0184502 0.0000000
vn 0.0928961 0.7058693 0.7022243
v 0.0047859 0.0186876 0.0000000
vn 0.0620230 0.7092366 0.7022370
v 0.0032098 0.0188601 0.0000000
vn 0.0310427 0.7112762 0.7022269
v 0.0016107 0.0189649 0.0000000
vn -0.0000000 0.7119445 0.7022358
v 0.0000000 0.0190000 0.0000000
vn -0.0310427 0.7112761 0.7022270
v -0.0016107 0.0189649 0.0000000
vn -0.0620230 0.7092367 0.7022368
v -0.0032098 0.0188601 0.0000000
vn -0.0928961 0.7058690 0.7022245
v -0.0047859 0.0186876 0.0000000
vn -0.1235723 0.7011321 0.7022419
v -0.0063286 0.0184502 0.0000000
vn -0.1540337 0.6950977 0.7022199
v -0.0078283 0.0181521 0.0000000
vn -0.1842052 0.6876991 0.7022382
v -0.0092769 0.0177977 0.0000000
vn -0.2140009 0.6790261 0.7022302
v -0.0106677 0.0173925 0.0000000
vn -0.2434015 0.6690472 0.7022333
v -0.0119954 0.0169420 0.0000000
vn -0.2723515 0.6578004 0.7022274
v -0.0132563 0.0164519 0.0000000
vn -0.3007875 0.6452900 0.7022306
v -0.0144481 0.0159277 0.0000000
vn -0.3286634 0.6315550 0.7022241
v -0.0155695 0.0153749 0.0000000
vn -0.3558871 0.6166102 0.7022367
v -0.0166204 0.0147985 0.0000000
vn -0.3824315 0.6005174 0.7022286
v -0.0176018 0.0142032 0.0000000
vn -0.4082429 0.5832685 0.7022361
v -0.0185152 0.0135931 0.0000000
vn -0.4333318 0.5649062 0.7022140
v -0.0193628 0.0129719 0.0000000
vn -0.4575414 0.5454434 0.7022446
v -0.0201469 0.0123427 0.0000000
vn -0.4809035 0.5249956 0.7022190
v -0.0208705 0.0117084 0.0000000
vn -0.5033589 0.5034901 0.7022305
v -0.0215364 0.0110711 0.0000000
vn -0.5248356 0.4810601 0.7022313
v -0.0221477 0.0104327 0.0000000
vn -0.5453001 0.4577256 0.7022358
v -0.0227073 0.0097948 0.0000000
vn -0.5647747 0.4334987 0.7022169
v -0.0232182 0.0091585 0.0000000
vn -0.5831451 0.4084212 0.7022350
v -0.0236830 0.0085247 0.0000000
vn -0.6004077 0.3826078 0.7022264
v -0.0241045 0.0078941 0.0000000
vn -0.6165240 0.3560478 0.7022309
v -0.0244851 0.0072670 0.0000000
vn -0.6314623 0.3288256 0.7022315
v -0.0248271 0.0066438 0.0000000
vn -0.6452282 0.3009475 0.7022188
v -0.0251326 0.0060246 0.0000000
vn -0.6577360 0.2724906 0.7022337
v -0.0254034 0.0054092 0.0000000
vn -0.6689852 0.2435686 0.7022344
v -0.0256413 0.0047976 0.0000000
vn -0.6790004 0.2141324 0.7022150
v -0.0258478 0.0041895 0.0000000
vn -0.6876942 0.1842597 0.7022287
v -0.0260241 0.0035846 0.0000000
vn -0.6950616 0.1541114 0.7022386
v -0.0261714 0.0029826 0.0000000
vn -0.7011297 0.1236693 0.7022272
v -0.0262907 0.0023831 0.0000000
vn -0.7058561 0.0929588 0.7022293
v -0.0263827 0.0017855 0.0000000
vn -0.7092442 0.0620663 0.7022254
v -0.0264480 0.0011895 0.0000000
vn -0.7112677 0.0310720 0.7022342
v -0.0264870 0.0005945 0.0000000
vn -0.7119606 -0.0000001 0.7022194
v -0.0265000 0.0000000 0.0000000
vn -0.7112677 -0.0310721 0.7022341
v -0.0264870 -0.0005945 -0.0000000
vn -0.7092447 -0.0620664 0.7022249
v -0.0264480 -0.0011895 -0.0000000
vn -0.7058559 -0.0929589 0.7022294
v -0.0263827 -0.0017855 -0.0000000
vn -0.7011297 -0.1236695 0.7022272
v -0.0262907 -0.0023831 -0.0000000
vn -0.6950613 -0.1541115 0.7022389
v -0.0261714 -0.0029826 -0.0000000
vn -0.6876941 -0.1842598 0.7022287
v -0.0260241 -0.0035846 -0.0000000
vn -0.6790005 -0.2141325 0.7022148
v -0.0258478 -0.0041895 -0.0000000
vn -0.6689851 -0.2435686 0.7022346
v -0.0256413 -0.0047976 -0.0000000
vn -0.6577361 -0.2724908 0.7022337
v -0.0254034 -0.0054092 -0.0000000
vn -0.6452284 -0.3009478 0.7022185
v -0.0251326 -0.0060246 -0.0000000
vn -0.6314620 -0.3288256 0.7022318
v -0.0248271 -0.0066438 -0.0000000
vn -0.6165242 -0.3560481 0.7022305
v -0.0244851 -0.0072670 -0.0000000
vn -0.6004076 -0.3826078 0.7022265
v -0.0241045 -0.0078941 -0.0000000
vn -0.5831449 -0.4084212 0.7022351
v -0.0236830 -0.0085247 -0.0000000
vn -0.5647748 -0.4334989 0.7022166
v -0.0232182 -0.0091585 -0.0000000
vn -0.5452999 -0.4577257 0.7022358
v -0.0227073 -0.0097948 -0.0000000
vn -0.5248358 -0.4810602 0.7022311
v -0.0221477 -0.0104327 -0.0000000
vn -0.5033590 -0.5034904 0.7022301
v -0.0215364 -0.0110711 -0.0000000
vn -0.4809032 -0.5249954 0.7022194
v -0.0208705 -0.0117084 -0.0000000
vn -0.4575417 -0.5454439 0.7022440
v -0.0201469 -0.0123427 -0.0000000
vn -0.4333316 -0.5649060 0.7022144
v -0.0193628 -0.0129719 -0.0000000
vn -0.4082431 -0.5832688 0.7022358
v -0.0185152 -0.0135931 -0.0000000
vn -0.3824315 -0.6005176 0.7022285
v -0.0176018 -0.0142032 -0.0000000
vn -0.3558870 -0.6166102 0.7022367
v -0.0166204 -0.0147985 -0.0000000
vn -0.3286634 -0.6315550 0.7022241
v -0.0155695 -0.0153749 -0.0000000
vn -0.3007874 -0.6452900 0.7022305
v -0.0144481 -0.0159277 -0.0000000
vn -0.2723515 -0.6578006 0.7022272
v -0.0132563 -0.0164519 -0.0000000
vn -0.2434016 -0.6690474 0.7022330
v -0.0119954 -0.0169420 -0.0000000
vn -0.2140008 -0.6790260 0.7022303
v -0.0106677 -0.0173925 -0.0000000
vn -0.1842053 -0.6876994 0.7022378
v -0.0092769 -0.0177977 -0.0000000
vn -0.1540337 -0.6950977 0.7022200
v -0.0078283 -0.0181521 -0.0000000
vn -0.1235723 -0.7011321 0.7022419
v -0.0063286 -0.0184502 -0.0000000
vn -0.0928961 -0.7058694 0.7022241
v -0.0047859 -0.0186876 -0.0000000
vn -0.0620230 -0.7092367 0.7022368
v -0.0032098 -0.0188601 -0.0000000
vn -0.0310427 -0.7112765 0.7022266
v -0.0016107 -0.0189649 -0.0000000
vn 0.0000000 -0.7119444 0.7022359
v -0.0000000 -0.0190000 -0.0000000
vn 0.0310427 -0.7112764 0.7022267
v 0.0016107 -0.0189649 -0.0000000
vn 0.0620230 -0.7092368 0.7022367
v 0.0032098 -0.0188601 -0.0000000
vn 0.0928961 -0.7058692 0.7022244
v 0.0047859 -0.0186876 -0.0000000
vn 0.1235723 -0.7011322 0.7022418
v 0.0063286 -0.0184502 -0.0000000
vn 0.1540337 -0.6950979 0.7022198
v 0.0078283 -0.0181521 -0.0000000
vn 0.1842052 -0.6876992 0.7022381
v 0.0092769 -0.0177977 -0.0000000
vn 0.2140009 -0.6790262 0.7022301
v 0.0106677 -0.0173925 -0.0000000
vn 0.2434015 -0.6690473 0.7022332
v 0.0119954 -0.0169420 -0.0000000
vn 0.2723515 -0.6578006 0.7022273
v 0.0132563 -0.0164519 -0.0000000
vn 0.3007875 -0.6452901 0.7022305
v 0.0144481 -0.0159277 -0.0000000
vn 0.3286635 -0.6315551 0.7022239
v 0.0155695 -0.0153749 -0.0000000
vn 0.3558870 -0.6166101 0.7022367
v 0.0166204 -0.0147985 -0.0000000
vn 0.3824316 -0.6005176 0.7022284
v 0.0176018 -0.0142032 -0.0000000
vn 0.4082429 -0.5832686 0.7022360
v 0.0185152 -0.0135931 -0.0000000
vn 0.4333317 -0.5649061 0.7022142
v 0.0193628 -0.0129719 -0.0000000
vn 0.4575416 -0.5454436 0.7022443
v 0.0201469 -0.0123427 -0.0000000
vn 0.4809035 -0.5249957 0.7022189
v 0.0208705 -0.0117084 -0.0000000
vn 0.5033589 -0.5034902 0.7022303
v 0.0215364 -0.0110711 -0.0000000
vn 0.5248357 -0.4810603 0.7022311
v 0.0221477 -0.0104327 -0.0000000
vn 0.5453000 -0.4577257 0.7022358
v 0.0227073 -0.0097948 -0.0000000
vn 0.5647748 -0.4334989 0.7022166
v 0.0232182 -0.0091585 -0.0000000
vn 0.5831451 -0.4084213 0.7022349
v 0.0236830 -0.0085247 -0.0000000
vn 0.6004075 -0.3826078 0.7022266
v 0.0241045 -0.0078941 -0.0000000
vn 0.6165242 -0.3560480 0.7022306
v 0.0244851 -0.0072670 -0.0000000
vn 0.6314621 -0.3288257 0.7022318
v 0.0248271 -0.0066438 -0.0000000
vn 0.6452284 -0.3009478 0.7022184
v 0.0251326 -0.0060246 -0.0000000
vn 0.6577360 -0.2724907 0.7022337
v 0.0254034 -0.0054092 -0.0000000
vn 0.6689851 -0.2435687 0.7022346
v 0.0256413 -0.0047976 -0.0000000
vn 0.6790006 -0.2141325 0.7022147
v 0.0258478 -0.0041895 -0.0000000
vn 0.6876942 -0.1842598 0.7022287
v 0.0260241 -0.0035846 -0.0000000
vn 0.6950612 -0.1541115 0.7022390
v 0.0261714 -0.0029826 -0.0000000
vn 0.7011298 -0.1236695 0.7022272
v 0.0262907 -0.0023831 -0.0000000
vn 0.7058562 -0.0929589 0.7022291
v 0.0263827 -0.0017855 -0.0000000
vn 0.7092445 -0.0620664 0.7022250
v 0.0264480 -0.0011895 -0.0000000
vn 0.7112675 -0.0310721 0.7022343
v 0.0264870 -0.0005945 -0.0000000
# 288 vertices, 0 vertices normals


usemtl material_0
f 1//1 2//2 3//3
f 4//4 5//5 6//6
f 7//7 8//8 1//1
f 6//6 9//9 4//4
f 7//7 10//10 8//8
f 4//4 11//11 5//5
f 3//3 7//7 1//1
f 12//12 13//13 5//5
f 7//7 14//14 10//10
f 11//11 12//12 5//5
f 15//15 16//16 10//10
f 17//17 18//18 13//13
f 14//14 15//15 10//10
f 12//12 17//17 13//13
f 19//19 20//20 16//16
f 21//21 22//22 18//18
f 19//19 23//23 20//20
f 17//17 21//21 18//18
f 15//15 19//19 16//16
f 24//24 25//25 22//22
f 19//19 26//26 23//23
f 24//24 27//27 25//25
f 28//28 29//29 23//23
f 21//21 24//24 22//22
f 28//28 30//30 29//29
f 24//24 31//31 27//27
f 26//26 28//28 23//23
f 32//32 33//33 27//27
f 28//28 34//34 30//30
f 32//32 35//35 33//33
f 36//36 37//37 30//30
f 31//31 32//32 27//27
f 36//36 38//38 37//37
f 32//32 39//39 35//35
f 34//34 36//36 30//30
f 40//40 41//41 35//35
f 36//36 42//42 38//38
f 40//40 43//43 41//41
f 44//44 45//45 38//38
f 39//39 40//40 35//35
f 44//44 46//46 45//45
f 47//47 48//48 43//43
f 42//42 44//44 38//38
f 40//40 47//47 43//43
f 49//49 50//50 46//46
f 47//47 51//51 48//48
f 44//44 49//49 46//46
f 52//52 53//53 48//48
f 49//49 54//54 50//50
f 51//51 52//52 48//48
f 55//55 56//56 50//50
f 57//57 58//58 53//53
f 55//55 59//59 56//56
f 52//52 57//57 53//53
f 54//54 55//55 50//50
f 60//60 61//61 58//58
f 55//55 62//62 59//59
f 60//60 63//63 61//61
f 64//64 65//65 59//59
f 57//57 60//60 58//58
f 64//64 66//66 65//65
f 60//60 67//67 63//63
f 62//62 64//64 59//59
f 68//68 69//69 63//63
f 64//64 70//70 66//66
f 68//68 71//71 69//69
f 72//72 73//73 66//66
f 67//67 68//68 63//63
f 70//70 72//72 66//66
f 68//68 74//74 71//71
f 75//75 76//76 73//73
f 77//77 78//78 71//71
f 75//75 79//79 76//76
f 77//77 80//80 78//78
f 72//72 75//75 73//73
f 74//74 77//77 71//71
f 81//81 82//82 79//79
f 77//77 83//83 80//80
f 75//75 81//81 79//79
f 84//84 85//85 80//80
f 81//81 86//86 82//82
f 83//83 84//84 80//80
f 87//87 88//88 82//82
f 89//89 90//90 85//85
f 87//87 91//91 88//88
f 89//89 92//92 90//90
f 86//86 87//87 82//82
f 84//84 89//89 85//85
f 93//93 94//94 91//91
f 89//89 95//95 92//92
f 87//87 93//93 91//91
f 96//96 97//97 92//92
f 93//93 98//98 94//94
f 96//96 99//99 97//97
f 100//100 101//101 94//94
f 95//95 96//96 92//92
f 100//100 102//102 101//101
f 103//103 104//104 99//99
f 98//98 100//100 94//94
f 96//96 103//103 99//99
f 100//100 105//105 102//102
f 103//103 106//106 104//104
f 107//107 108//108 102//102
f 109//109 110//110 104//104
f 107//107 111//111 108//108
f 109//109 112//112 110//110
f 105//105 107//107 102//102
f 106//106 109//109 104//104
f 107//107 113//113 111//111
f 109//109 114//114 112//112
f 115//115 116//116 111//111
f 117//117 118//118 112//112
f 115//115 119//119 116//116
f 117//117 120//120 118//118
f 113//113 115//115 111//111
f 114//114 117//117 112//112
f 115//115 121//121 119//119
f 117//117 122//122 120//120
f 123//123 124//124 119//119
f 125//125 126//126 120//120
f 123//123 127//127 124//124
f 125//125 128//128 126//126
f 121//121 123//123 119//119
f 122//122 125//125 120//120
f 123//123 129//129 127//127
f 125//125 130//130 128//128
f 131//131 132//132 127//127
f 133//133 134//134 128//128
f 131//131 135//135 132//132
f 133//133 136//136 134//134
f 129//129 131//131 127//127
f 130//130 133//133 128//128
f 131//131 137//137 135//135
f 138//138 139//139 136//136
f 140//140 141//141 135//135
f 133//133 138//138 136//136
f 140//140 142//142 141//141
f 138//138 143//143 139//139
f 137//137 140//140 135//135
f 142//142 144//144 139//139
f 143//143 142//142 139//139
f 140//140 144//144 142//142
f 1//1 145//145 146//146
f 8//8 147//147 145//145
f 10//10 148//148 147//147
f 16//16 149//149 148//148
f 20//20 150//150 149//149
f 23//23 151//151 150//150
f 29//29 152//152 151//151
f 30//30 153//153 152//152
f 37//37 154//154 153//153
f 38//38 155//155 154//154
f 45//45 156//156 155//155
f 46//46 157//157 156//156
f 50//50 158//158 157//157
f 56//56 159//159 158//158
f 59//59 160//160 159//159
f 65//65 161//161 160//160
f 66//66 162//162 161//161
f 73//73 163//163 162//162
f 76//76 164//164 163//163
f 79//79 165//165 164//164
f 82//82 166//166 165//165
f 88//88 167//167 166//166
f 91//91 168//168 167//167
f 94//94 169//169 168//168
f 101//101 170//170 169//169
f 102//102 171//171 170//170
f 108//108 172//172 171//171
f 111//111 173//173 172//172
f 116//116 174//174 173//173
f 119//119 175//175 174//174
f 124//124 176//176 175//175
f 127//127 177//177 176//176
f 132//132 178//178 177//177
f 135//135 179//179 178//178
f 141//141 180//180 179//179
f 142//142 181//181 180//180
f 143//143 182//182 181//181
f 138//138 183//183 182//182
f 133//133 184//184 183//183
f 130//130 185//185 184//184
f 125//125 186//186 185//185
f 122//122 187//187 186//186
f 117//117 188//188 187//187
f 114//114 189//189 188//188
f 109//109 190//190 189//189
f 106//106 191//191 190//190
f 103//103 192//192 191//191
f 96//96 193//193 192//192
f 95//95 194//194 193//193
f 89//89 195//195 194//194
f 84//84 196//196 195//195
f 83//83 197//197 196//196
f 77//77 198//198 197//197
f 74//74 199//199 198//198
f 68//68 200//200 199//199
f 67//67 201//201 200//200
f 60//60 202//202 201//201
f 57//57 203//203 202//202
f 52//52 204//204 203//203
f 51//51 205//205 204//204
f 47//47 206//206 205//205
f 40//40 207//207 206//206
f 39//39 208//208 207//207
f 32//32 209//209 208//208
f 31//31 210//210 209//209
f 24//24 211//211 210//210
f 21//21 212//212 211//211
f 17//17 213//213 212//212
f 12//12 214//214 213//213
f 11//11 215//215 214//214
f 4//4 216//216 215//215
f 9//9 217//217 216//216
f 6//6 218//218 217//217
f 5//5 219//219 218//218
f 13//13 220//220 219//219
f 18//18 221//221 220//220
f 22//22 222//222 221//221
f 25//25 223//223 222//222
f 27//27 224//224 223//223
f 33//33 225//225 224//224
f 35//35 226//226 225//225
f 41//41 227//227 226//226
f 43//43 228//228 227//227
f 48//48 229//229 228//228
f 53//53 230//230 229//229
f 58//58 231//231 230//230
f 61//61 232//232 231//231
f 63//63 233//233 232//232
f 69//69 234//234 233//233
f 71//71 235//235 234//234
f 78//78 236//236 235//235
f 80//80 237//237 236//236
f 85//85 238//238 237//237
f 90//90 239//239 238//238
f 92//92 240//240 239//239
f 97//97 241//241 240//240
f 99//99 242//242 241//241
f 104//104 243//243 242//242
f 110//110 244//244 243//243
f 112//112 245//245 244//244
f 118//118 246//246 245//245
f 120//120 247//247 246//246
f 126//126 248//248 247//247
f 128//128 249//249 248//248
f 134//134 250//250 249//249
f 136//136 251//251 250//250
f 139//139 252//252 251//251
f 144//144 253//253 252//252
f 140//140 254//254 253//253
f 137//137 255//255 254//254
f 131//131 256//256 255//255
f 129//129 257//257 256//256
f 123//123 258//258 257//257
f 121//121 259//259 258//258
f 115//115 260//260 259//259
f 113//113 261//261 260//260
f 107//107 262//262 261//261
f 105//105 263//263 262//262
f 100//100 264//264 263//263
f 98//98 265//265 264//264
f 93//93 266//266 265//265
f 87//87 267//267 266//266
f 86//86 268//268 267//267
f 81//81 269//269 268//268
f 75//75 270//270 269//269
f 72//72 271//271 270//270
f 70//70 272//272 271//271
f 64//64 273//273 272//272
f 62//62 274//274 273//273
f 55//55 275//275 274//274
f 54//54 276//276 275//275
f 49//49 277//277 276//276
f 44//44 278//278 277//277
f 42//42 279//279 278//278
f 36//36 280//280 279//279
f 34//34 281//281 280//280
f 28//28 282//282 281//281
f 26//26 283//283 282//282
f 19//19 284//284 283//283
f 15//15 285//285 284//284
f 14//14 286//286 285//285
f 7//7 287//287 286//286
f 3//3 288//288 287//287
f 2//2 146//146 288//288
f 288//288 3//3 2//2
f 287//287 7//7 3//3
f 286//286 14//14 7//7
f 285//285 15//15 14//14
f 284//284 19//19 15//15
f 283//283 26//26 19//19
f 282//282 28//28 26//26
f 281//281 34//34 28//28
f 280//280 36//36 34//34
f 279//279 42//42 36//36
f 278//278 44//44 42//42
f 277//277 49//49 44//44
f 276//276 54//54 49//49
f 275//275 55//55 54//54
f 274//274 62//62 55//55
f 273//273 64//64 62//62
f 272//272 70//70 64//64
f 271//271 72//72 70//70
f 270//270 75//75 72//72
f 269//269 81//81 75//75
f 268//268 86//86 81//81
f 267//267 87//87 86//86
f 266//266 93//93 87//87
f 265//265 98//98 93//93
f 264//264 100//100 98//98
f 263//263 105//105 100//100
f 262//262 107//107 105//105
f 261//261 113//113 107//107
f 260//260 115//115 113//113
f 259//259 121//121 115//115
f 258//258 123//123 121//121
f 257//257 129//129 123//123
f 256//256 131//131 129//129
f 255//255 137//137 131//131
f 254//254 140//140 137//137
f 253//253 144//144 140//140
f 252//252 139//139 144//144
f 251//251 136//136 139//139
f 250//250 134//134 136//136
f 249//249 128//128 134//134
f 248//248 126//126 128//128
f 247//247 120//120 126//126
f 246//246 118//118 120//120
f 245//245 112//112 118//118
f 244//244 110//110 112//112
f 243//243 104//104 110//110
f 242//242 99//99 104//104
f 241//241 97//97 99//99
f 240//240 92//92 97//97
f 239//239 90//90 92//92
f 238//238 85//85 90//90
f 237//237 80//80 85//85
f 236//236 78//78 80//80
f 235//235 71//71 78//78
f 234//234 69//69 71//71
f 233//233 63//63 69//69
f 232//232 61//61 63//63
f 231//231 58//58 61//61
f 230//230 53//53 58//58
f 229//229 48//48 53//53
f 228//228 43//43 48//48
f 227//227 41//41 43//43
f 226//226 35//35 41//41
f 225//225 33//33 35//35
f 224//224 27//27 33//33
f 223//223 25//25 27//27
f 222//222 22//22 25//25
f 221//221 18//18 22//22
f 220//220 13//13 18//18
f 219//219 5//5 13//13
f 218//218 6//6 5//5
f 217//217 9//9 6//6
f 216//216 4//4 9//9
f 215//215 11//11 4//4
f 214//214 12//12 11//11
f 213//213 17//17 12//12
f 212//212 21//21 17//17
f 211//211 24//24 21//21
f 210//210 31//31 24//24
f 209//209 32//32 31//31
f 208//208 39//39 32//32
f 207//207 40//40 39//39
f 206//206 47//47 40//40
f 205//205 51//51 47//47
f 204//204 52//52 51//51
f 203//203 57//57 52//52
f 202//202 60//60 57//57
f 201//201 67//67 60//60
f 200//200 68//68 67//67
f 199//199 74//74 68//68
f 198//198 77//77 74//74
f 197//197 83//83 77//77
f 196//196 84//84 83//83
f 195//195 89//89 84//84
f 194//194 95//95 89//89
f 193//193 96//96 95//95
f 192//192 103//103 96//96
f 191//191 106//106 103//103
f 190//190 109//109 106//106
f 189//189 114//114 109//109
f 188//188 117//117 114//114
f 187//187 122//122 117//117
f 186//186 125//125 122//122
f 185//185 130//130 125//125
f 184//184 133//133 130//130
f 183//183 138//138 133//133
f 182//182 143//143 138//138
f 181//181 142//142 143//143
f 180//180 141//141 142//142
f 179//179 135//135 141//141
f 178//178 132//132 135//135
f 177//177 127//127 132//132
f 176//176 124//124 127//127
f 175//175 119//119 124//124
f 174//174 116//116 119//119
f 173//173 111//111 116//116
f 172//172 108//108 111//111
f 171//171 102//102 108//108
f 170//170 101//101 102//102
f 169//169 94//94 101//101
f 168//168 91//91 94//94
f 167//167 88//88 91//91
f 166//166 82//82 88//88
f 165//165 79//79 82//82
f 164//164 76//76 79//79
f 163//163 73//73 76//76
f 162//162 66//66 73//73
f 161//161 65//65 66//66
f 160//160 59//59 65//65
f 159//159 56//56 59//59
f 158//158 50//50 56//56
f 157//157 46//46 50//50
f 156//156 45//45 46//46
f 155//155 38//38 45//45
f 154//154 37//37 38//38
f 153//153 30//30 37//37
f 152//152 29//29 30//30
f 151//151 23//23 29//29
f 150//150 20//20 23//23
f 149//149 16//16 20//20
f 148//148 10//10 16//16
f 147//147 8//8 10//10
f 145//145 1//1 8//8
f 146//146 2//2 1//1
f 216//216 217//217 218//218
f 145//145 287//287 288//288
f 219//219 215//215 216//216
f 288//288 146//146 145//145
f 218//218 219//219 216//216
f 145//145 147//147 287//287
f 220//220 214//214 215//215
f 148//148 286//286 287//287
f 219//219 220//220 215//215
f 148//148 285//285 286//286
f 221//221 213//213 214//214
f 147//147 148//148 287//287
f 220//220 221//221 214//214
f 149//149 284//284 285//285
f 222//222 212//212 213//213
f 148//148 149//149 285//285
f 222//222 211//211 212//212
f 149//149 150//150 284//284
f 221//221 222//222 213//213
f 151//151 283//283 284//284
f 222//222 223//223 211//211
f 151//151 282//282 283//283
f 224//224 210//210 211//211
f 150//150 151//151 284//284
f 224//224 209//209 210//210
f 151//151 152//152 282//282
f 223//223 224//224 211//211
f 153//153 281//281 282//282
f 224//224 225//225 209//209
f 153//153 280//280 281//281
f 226//226 208//208 209//209
f 152//152 153//153 282//282
f 226//226 207//207 208//208
f 153//153 154//154 280//280
f 225//225 226//226 209//209
f 155//155 279//279 280//280
f 226//226 227//227 207//207
f 155//155 278//278 279//279
f 228//228 206//206 207//207
f 154//154 155//155 280//280
f 227//227 228//228 207//207
f 155//155 156//156 278//278
f 229//229 205//205 206//206
f 157//157 277//277 278//278
f 229//229 204//204 205//205
f 156//156 157//157 278//278
f 228//228 229//229 206//206
f 158//158 276//276 277//277
f 230//230 203//203 204//204
f 158//158 275//275 276//276
f 229//229 230//230 204//204
f 157//157 158//158 277//277
f 231//231 202//202 203//203
f 158//158 159//159 275//275
f 230//230 231//231 203//203
f 160//160 274//274 275//275
f 231//231 232//232 202//202
f 160//160 273//273 274//274
f 233//233 201//201 202//202
f 159//159 160//160 275//275
f 233//233 200//200 201//201
f 160//160 161//161 273//273
f 232//232 233//233 202//202
f 162//162 272//272 273//273
f 233//233 234//234 200//200
f 162//162 271//271 272//272
f 235//235 199//199 200//200
f 161//161 162//162 273//273
f 235//235 198//198 199//199
f 163//163 270//270 271//271
f 234//234 235//235 200//200
f 162//162 163//163 271//271
f 235//235 236//236 198//198
f 163//163 164//164 270//270
f 237//237 197//197 198//198
f 165//165 269//269 270//270
f 237//237 196//196 197//197
f 164//164 165//165 270//270
f 236//236 237//237 198//198
f 166//166 268//268 269//269
f 238//238 195//195 196//196
f 166//166 267//267 268//268
f 237//237 238//238 196//196
f 165//165 166//166 269//269
f 238//238 239//239 195//195
f 166//166 167//167 267//267
f 240//240 194//194 195//195
f 168//168 266//266 267//267
f 240//240 193//193 194//194
f 167//167 168//168 267//267
f 239//239 240//240 195//195
f 169//169 265//265 266//266
f 240//240 241//241 193//193
f 169//169 264//264 265//265
f 242//242 192//192 193//193
f 168//168 169//169 266//266
f 241//241 242//242 193//193
f 169//169 170//170 264//264
f 243//243 191//191 192//192
f 171//171 263//263 264//264
f 243//243 190//190 191//191
f 171//171 262//262 263//263
f 242//242 243//243 192//192
f 170//170 171//171 264//264
f 243//243 244//244 190//190
f 171//171 172//172 262//262
f 245//245 189//189 190//190
f 173//173 261//261 262//262
f 245//245 188//188 189//189
f 173//173 260//260 261//261
f 244//244 245//245 190//190
f 172//172 173//173 262//262
f 245//245 246//246 188//188
f 173//173 174//174 260//260
f 247//247 187//187 188//188
f 175//175 259//259 260//260
f 247//247 186//186 187//187
f 175//175 258//258 259//259
f 246//246 247//247 188//188
f 174//174 175//175 260//260
f 247//247 248//248 186//186
f 175//175 176//176 258//258
f 249//249 185//185 186//186
f 177//177 257//257 258//258
f 249//249 184//184 185//185
f 177//177 256//256 257//257
f 248//248 249//249 186//186
f 176//176 177//177 258//258
f 249//249 250//250 184//184
f 177//177 178//178 256//256
f 251//251 183//183 184//184
f 179//179 255//255 256//256
f 250//250 251//251 184//184
f 179//179 254//254 255//255
f 252//252 182//182 183//183
f 178//178 179//179 256//256
f 252//252 181//181 182//182
f 179//179 180//180 254//254
f 251//251 252//252 183//183
f 181//181 253//253 254//254
f 180//180 181//181 254//254
f 252//252 253//253 181//181
# 572 faces, 0 coords texture

# End of File
