# https://github.com/mikedh/trimesh

o geometry_0
v -0.00000273 0.03150000 -0.00199078
v 0.00000322 0.03149773 -0.00199078
v -0.00000273 0.03150000 -0.02500000
v -0.00137631 0.03146827 -0.00199078
v 0.00000322 0.03149773 -0.02500000
v 0.00000322 0.01925701 -0.00199078
v -0.00137631 0.03146827 -0.02500000
v -0.00148334 0.03146147 -0.00199078
v 0.00000322 0.00834665 -0.02500000
v 0.00000024 0.01920035 -0.00199078
v 0.00000024 0.00834665 -0.00200205
v 0.00000322 0.01920035 -0.00200205
v -0.00274692 0.03137988 -0.02500000
v -0.00274692 0.03137988 -0.00199078
v 0.00000322 0.00834665 -0.01502469
v -0.03037019 0.00834665 -0.02500000
v -0.02408501 0.00834665 -0.00199078
v -0.00411456 0.03123030 -0.02500000
v -0.00411456 0.03123030 -0.00199078
v -0.03037019 0.00834665 -0.00199078
v -0.03004018 0.00947304 -0.02500000
v -0.00547030 0.03101953 -0.02500000
v -0.00547030 0.03101953 -0.00199078
v -0.03004018 0.00947304 -0.00199078
v -0.02960016 0.01077394 -0.02500000
v -0.00557733 0.03099913 -0.00199078
v -0.00682010 0.03075209 -0.02500000
v -0.02960016 0.01077394 -0.00199078
v -0.02910067 0.01205672 -0.02500000
v -0.00682010 0.03075209 -0.00199078
v -0.00815503 0.03042574 -0.02500000
v -0.00692416 0.03072716 -0.00199078
v -0.02910067 0.01205672 -0.00199078
v -0.02854767 0.01331456 -0.02500000
v -0.00815503 0.03042574 -0.00199078
v -0.00947510 0.03004045 -0.02500000
v -0.02854767 0.01331456 -0.00199078
v -0.02798872 0.01444775 -0.00199078
v -0.02793818 0.01454520 -0.02500000
v -0.00947510 0.03004045 -0.00199078
v -0.00957618 0.03000646 -0.00199078
v -0.01077435 0.02959851 -0.02500000
v -0.02793818 0.01454520 -0.00199078
v -0.02733166 0.01565573 -0.00199078
v -0.02727815 0.01575092 -0.02500000
v -0.01077435 0.02959851 -0.00199078
v -0.01205577 0.02910217 -0.02500000
v -0.01087841 0.02955998 -0.00199078
v -0.02727815 0.01575092 -0.00199078
v -0.02662109 0.01683198 -0.00199078
v -0.02656460 0.01692490 -0.02500000
v -0.01205577 0.02910217 -0.00199078
v -0.01331340 0.02854691 -0.02500000
v -0.02656460 0.01692490 -0.00199078
v -0.02586294 0.01797877 -0.00199078
v -0.02580051 0.01806942 -0.02500000
v -0.01331340 0.02854691 -0.00199078
v -0.01454724 0.02793952 -0.02500000
v -0.01341151 0.02849931 -0.00199078
v -0.02580051 0.01806942 -0.00199078
v -0.02505425 0.01908930 -0.00199078
v -0.02498884 0.01917769 -0.02500000
v -0.01464238 0.02788739 -0.00199078
v -0.01454724 0.02793952 -0.00199078
v -0.01574838 0.02727773 -0.02500000
v -0.02498884 0.01917769 -0.00199078
v -0.02412961 0.02024742 -0.02500000
v -0.01574838 0.02727773 -0.00199078
v -0.01692276 0.02656609 -0.02500000
v -0.01584352 0.02722107 -0.00199078
v -0.02412961 0.02024742 -0.00199078
v -0.02322281 0.02128089 -0.02500000
v -0.01806742 0.02580232 -0.02500000
v -0.01701493 0.02650490 -0.00199078
v -0.01692276 0.02656609 -0.00199078
v -0.02322281 0.02128089 -0.00199078
v -0.02234871 0.02219424 -0.00199078
v -0.02227141 0.02227356 -0.02500000
v -0.01806742 0.02580232 -0.00199078
v -0.01917342 0.02498869 -0.02500000
v -0.02227141 0.02227356 -0.00199078
v -0.02135866 0.02314838 -0.00199078
v -0.02127839 0.02322318 -0.02500000
v -0.01917342 0.02498869 -0.00199078
v -0.02024672 0.02412973 -0.02500000
v -0.01925964 0.02492069 -0.00199078
v -0.02127839 0.02322318 -0.00199078
v -0.02032996 0.02405720 -0.00199078
v -0.02024672 0.02412973 -0.00199078
f 1 2 5
f 1 5 3
f 1 3 7
f 1 7 4
f 1 4 8
f 1 8 14
f 1 14 19
f 1 19 23
f 1 23 26
f 1 26 30
f 1 30 32
f 1 32 35
f 1 35 40
f 1 40 41
f 1 41 46
f 1 46 48
f 1 48 52
f 1 52 57
f 1 57 59
f 1 59 64
f 1 64 63
f 1 63 68
f 1 68 70
f 1 70 75
f 1 75 74
f 1 74 79
f 1 79 84
f 1 84 86
f 1 86 89
f 1 89 88
f 1 88 87
f 1 87 82
f 1 82 81
f 1 81 77
f 1 77 76
f 1 76 71
f 1 71 66
f 1 66 61
f 1 61 60
f 1 60 55
f 1 55 54
f 1 54 50
f 1 50 49
f 1 49 44
f 1 44 43
f 1 43 38
f 1 38 37
f 1 37 33
f 1 33 28
f 1 28 24
f 1 24 20
f 1 20 17
f 1 17 10
f 1 10 6
f 1 6 2
f 2 6 12
f 2 12 15
f 2 15 9
f 2 9 5
f 3 5 9
f 3 9 16
f 3 16 21
f 3 21 25
f 3 25 29
f 3 29 34
f 3 34 39
f 3 39 45
f 3 45 51
f 3 51 56
f 3 56 62
f 3 62 67
f 3 67 72
f 3 72 78
f 3 78 83
f 3 83 85
f 3 85 80
f 3 80 73
f 3 73 69
f 3 69 65
f 3 65 58
f 3 58 53
f 3 53 47
f 3 47 42
f 3 42 36
f 3 36 31
f 3 31 27
f 3 27 22
f 3 22 18
f 3 18 13
f 3 13 7
f 4 7 8
f 6 10 11
f 6 11 12
f 7 13 8
f 8 13 14
f 9 15 11
f 9 11 17
f 9 17 20
f 9 20 16
f 10 17 11
f 11 15 12
f 13 18 19
f 13 19 14
f 16 20 24
f 16 24 21
f 18 22 23
f 18 23 19
f 21 24 28
f 21 28 25
f 22 26 23
f 22 27 26
f 25 28 33
f 25 33 29
f 26 27 30
f 27 31 32
f 27 32 30
f 29 33 37
f 29 37 34
f 31 35 32
f 31 36 40
f 31 40 35
f 34 37 38
f 34 38 39
f 36 41 40
f 36 42 41
f 38 43 39
f 39 43 44
f 39 44 45
f 41 42 46
f 42 47 48
f 42 48 46
f 44 49 45
f 45 49 50
f 45 50 51
f 47 52 48
f 47 53 57
f 47 57 52
f 50 54 51
f 51 54 55
f 51 55 56
f 53 58 59
f 53 59 57
f 55 60 56
f 56 60 61
f 56 61 62
f 58 63 64
f 58 64 59
f 58 65 63
f 61 66 62
f 62 66 71
f 62 71 67
f 63 65 68
f 65 69 70
f 65 70 68
f 67 71 76
f 67 76 72
f 69 73 74
f 69 74 75
f 69 75 70
f 72 76 77
f 72 77 78
f 73 79 74
f 73 80 84
f 73 84 79
f 77 81 78
f 78 81 82
f 78 82 83
f 80 85 86
f 80 86 84
f 82 87 83
f 83 87 88
f 83 88 85
f 85 89 86
f 85 88 89

o geometry_1
v 0.00000322 -0.01046887 -0.02500000
v 0.02969948 -0.01046887 -0.02500000
v 0.00000322 -0.01046887 -0.00200174
v 0.00000322 0.03149993 -0.02500000
v 0.03004170 -0.00947050 -0.02500000
v 0.02969948 -0.01046887 -0.00199047
v 0.02354873 -0.01046887 -0.00199047
v 0.02291361 -0.00990189 -0.00199047
v 0.00000322 0.01919894 -0.00199047
v 0.00000322 0.03149993 -0.00199047
v 0.00126728 0.03147117 -0.00199047
v 0.00137519 0.03146706 -0.02500000
v 0.03004170 -0.00947050 -0.00199047
v 0.03042400 -0.00815165 -0.02500000
v 0.00137519 0.03146706 -0.00199047
v 0.00263925 0.03138489 -0.00199047
v 0.00274716 0.03137668 -0.02500000
v 0.03042400 -0.00815165 -0.00199047
v 0.03075081 -0.00681638 -0.02500000
v 0.03045175 -0.00804483 -0.00199047
v 0.00274716 0.03137668 -0.00199047
v 0.00400506 0.03124109 -0.00199047
v 0.00411297 0.03122877 -0.02500000
v 0.03075081 -0.00681638 -0.00199047
v 0.03101904 -0.00546877 -0.02500000
v 0.03077239 -0.00670955 -0.00199047
v 0.00411297 0.03122877 -0.00199047
v 0.00547261 0.03101923 -0.02500000
v 0.03122869 -0.00410884 -0.02500000
v 0.03103754 -0.00535784 -0.00199047
v 0.03101904 -0.00546877 -0.00199047
v 0.00547261 0.03101923 -0.00199047
v 0.00681992 0.03075218 -0.02500000
v 0.03137976 -0.00274481 -0.02500000
v 0.03124102 -0.00400202 -0.00199047
v 0.03122869 -0.00410884 -0.00199047
v 0.00681992 0.03075218 -0.00199047
v 0.00804698 0.03045225 -0.00199047
v 0.00815489 0.03042349 -0.02500000
v 0.03137976 -0.00274481 -0.00199047
v 0.03146917 -0.00137255 -0.02500000
v 0.00815489 0.03042349 -0.00199047
v 0.00947445 0.03004140 -0.02500000
v 0.03146917 -0.00137255 -0.00199047
v 0.03150000 0.00000381 -0.02500000
v 0.03147225 -0.00126162 -0.00199047
v 0.00947445 0.03004140 -0.00199047
v 0.01067069 0.02963465 -0.00199047
v 0.01077551 0.02959767 -0.02500000
v 0.03146917 0.00137607 -0.02500000
v 0.03150000 0.00000381 -0.00199047
v 0.01077551 0.02959767 -0.00199047
v 0.01195325 0.02914163 -0.00199047
v 0.01205499 0.02910054 -0.02500000
v 0.03137976 0.00274832 -0.02500000
v 0.03146917 0.00137607 -0.00199047
v 0.01205499 0.02910054 -0.00199047
v 0.01321423 0.02859108 -0.00199047
v 0.01331289 0.02854589 -0.02500000
v 0.03137976 0.00274832 -0.00199047
v 0.03122869 0.00411236 -0.02500000
v 0.01331289 0.02854589 -0.00199047
v 0.01444746 0.02798712 -0.00199047
v 0.01454612 0.02793782 -0.02500000
v 0.03122869 0.00411236 -0.00199047
v 0.03101904 0.00547229 -0.02500000
v 0.03121327 0.00422329 -0.00199047
v 0.01454612 0.02793782 -0.00199047
v 0.01565603 0.02732976 -0.00199047
v 0.01575161 0.02727635 -0.02500000
v 0.03075081 0.00681989 -0.02500000
v 0.03101904 0.00547229 -0.00199047
v 0.01575161 0.02727635 -0.00199047
v 0.01683069 0.02662309 -0.00199047
v 0.01692318 0.02656557 -0.02500000
v 0.03072615 0.00692671 -0.00199047
v 0.03075081 0.00681989 -0.00199047
v 0.03042400 0.00815517 -0.02500000
v 0.01692318 0.02656557 -0.00199047
v 0.01806700 0.02580138 -0.02500000
v 0.03042400 0.00815517 -0.00199047
v 0.03004170 0.00947401 -0.02500000
v 0.01806700 0.02580138 -0.00199047
v 0.01908751 0.02505362 -0.00199047
v 0.01917383 0.02498788 -0.02500000
v 0.03004170 0.00947401 -0.00199047
v 0.02959774 0.01077231 -0.02500000
v 0.01917383 0.02498788 -0.00199047
v 0.02024675 0.02412920 -0.02500000
v 0.02959774 0.01077231 -0.00199047
v 0.02910136 0.01205418 -0.02500000
v 0.02024675 0.02412920 -0.00199047
v 0.02119633 0.02329516 -0.00199047
v 0.02127958 0.02322121 -0.02500000
v 0.02910136 0.01205418 -0.00199047
v 0.02854641 0.01331139 -0.02500000
v 0.02127958 0.02322121 -0.00199047
v 0.02227233 0.02227213 -0.02500000
v 0.02854641 0.01331139 -0.00199047
v 0.02793904 0.01454396 -0.02500000
v 0.02850016 0.01341000 -0.00199047
v 0.02227233 0.02227213 -0.00199047
v 0.02314793 0.02136004 -0.00199047
v 0.02322192 0.02127787 -0.02500000
v 0.02727926 0.01574776 -0.02500000
v 0.02793904 0.01454396 -0.00199047
v 0.02322192 0.02127787 -0.00199047
v 0.02405744 0.02032879 -0.00199047
v 0.02412835 0.02024662 -0.02500000
v 0.02656398 0.01692281 -0.02500000
v 0.02727926 0.01574776 -0.00199047
v 0.02412835 0.02024662 -0.00199047
v 0.02492070 0.01926057 -0.00199047
v 0.02498853 0.01917429 -0.02500000
v 0.02650540 0.01701319 -0.00199047
v 0.02656398 0.01692281 -0.00199047
v 0.02580246 0.01806498 -0.02500000
v 0.02498853 0.01917429 -0.00199047
v 0.02573772 0.01815537 -0.00199047
v 0.02580246 0.01806498 -0.00199047
f 90 91 95
f 90 95 96
f 90 96 92
f 90 92 98
f 90 98 99
f 90 99 93
f 90 93 101
f 90 101 106
f 90 106 112
f 90 112 117
f 90 117 122
f 90 122 128
f 90 128 132
f 90 132 138
f 90 138 143
f 90 143 148
f 90 148 153
f 90 153 159
f 90 159 164
f 90 164 169
f 90 169 174
f 90 174 178
f 90 178 183
f 90 183 187
f 90 187 193
f 90 193 198
f 90 198 203
f 90 203 206
f 90 206 199
f 90 199 194
f 90 194 189
f 90 189 185
f 90 185 180
f 90 180 176
f 90 176 171
f 90 171 167
f 90 167 160
f 90 160 155
f 90 155 150
f 90 150 144
f 90 144 139
f 90 139 134
f 90 134 130
f 90 130 123
f 90 123 118
f 90 118 114
f 90 114 108
f 90 108 103
f 90 103 94
f 90 94 91
f 91 94 102
f 91 102 95
f 92 96 97
f 92 97 98
f 93 99 100
f 93 100 101
f 94 103 107
f 94 107 102
f 95 102 107
f 95 107 109
f 95 109 113
f 95 113 115
f 95 115 120
f 95 120 119
f 95 119 125
f 95 125 124
f 95 124 129
f 95 129 133
f 95 133 135
f 95 135 140
f 95 140 145
f 95 145 149
f 95 149 154
f 95 154 156
f 95 156 161
f 95 161 166
f 95 166 165
f 95 165 170
f 95 170 175
f 95 175 179
f 95 179 184
f 95 184 188
f 95 188 190
f 95 190 195
f 95 195 200
f 95 200 205
f 95 205 204
f 95 204 209
f 95 209 208
f 95 208 207
f 95 207 202
f 95 202 201
f 95 201 197
f 95 197 196
f 95 196 192
f 95 192 191
f 95 191 186
f 95 186 182
f 95 182 181
f 95 181 177
f 95 177 173
f 95 173 172
f 95 172 168
f 95 168 163
f 95 163 162
f 95 162 158
f 95 158 157
f 95 157 152
f 95 152 151
f 95 151 147
f 95 147 146
f 95 146 142
f 95 142 141
f 95 141 137
f 95 137 136
f 95 136 131
f 95 131 127
f 95 127 126
f 95 126 121
f 95 121 116
f 95 116 111
f 95 111 110
f 95 110 105
f 95 105 104
f 95 104 100
f 95 100 99
f 95 99 98
f 95 98 97
f 95 97 96
f 100 104 101
f 101 104 105
f 101 105 106
f 103 108 109
f 103 109 107
f 105 110 106
f 106 110 111
f 106 111 112
f 108 113 109
f 108 114 115
f 108 115 113
f 111 116 112
f 112 116 121
f 112 121 117
f 114 118 119
f 114 119 120
f 114 120 115
f 117 121 126
f 117 126 122
f 118 123 124
f 118 124 125
f 118 125 119
f 122 127 128
f 122 126 127
f 123 129 124
f 123 130 133
f 123 133 129
f 127 131 128
f 128 131 136
f 128 136 132
f 130 134 135
f 130 135 133
f 132 137 138
f 132 136 137
f 134 139 145
f 134 145 140
f 134 140 135
f 137 141 138
f 138 141 142
f 138 142 143
f 139 144 149
f 139 149 145
f 142 146 143
f 143 147 148
f 143 146 147
f 144 150 154
f 144 154 149
f 147 151 148
f 148 151 152
f 148 152 153
f 150 155 156
f 150 156 154
f 152 157 153
f 153 158 159
f 153 157 158
f 155 160 166
f 155 166 161
f 155 161 156
f 158 162 159
f 159 162 163
f 159 163 164
f 160 165 166
f 160 167 165
f 163 168 164
f 164 168 172
f 164 172 169
f 165 167 170
f 167 171 175
f 167 175 170
f 169 172 173
f 169 173 174
f 171 176 179
f 171 179 175
f 173 177 174
f 174 177 181
f 174 181 178
f 176 180 184
f 176 184 179
f 178 181 182
f 178 182 183
f 180 185 188
f 180 188 184
f 182 186 183
f 183 186 191
f 183 191 187
f 185 189 190
f 185 190 188
f 187 191 192
f 187 192 193
f 189 194 200
f 189 200 195
f 189 195 190
f 192 196 193
f 193 197 198
f 193 196 197
f 194 199 205
f 194 205 200
f 197 201 198
f 198 201 202
f 198 202 203
f 199 204 205
f 199 206 204
f 202 207 203
f 203 208 206
f 203 207 208
f 204 206 209
f 206 208 209

o geometry_2
v -0.02408592 0.00834333 -0.00199078
v -0.01836627 0.00834333 -0.00200205
v -0.03036995 0.00834333 -0.00199078
v -0.01836627 -0.01493608 -0.00199078
v -0.01836627 0.00834333 -0.02500000
v -0.03036995 0.00834333 -0.02500000
v -0.03042652 0.00815069 -0.00199078
v -0.01836627 -0.02558104 -0.00199078
v -0.01836627 -0.02558104 -0.02500000
v -0.03042652 0.00815069 -0.02500000
v -0.03075306 0.00681551 -0.00199078
v -0.01917620 -0.02498984 -0.00199078
v -0.01917620 -0.02498984 -0.02500000
v -0.03075306 0.00681551 -0.02500000
v -0.03102047 0.00546703 -0.00199078
v -0.02024839 -0.02412961 -0.00199078
v -0.02024839 -0.02412961 -0.02500000
v -0.03102047 0.00546703 -0.02500000
v -0.03103718 0.00536075 -0.00199078
v -0.02119974 -0.02329595 -0.00199078
v -0.02128202 -0.02322288 -0.02500000
v -0.03123002 0.00410860 -0.02500000
v -0.03123002 0.00410860 -0.00199078
v -0.02128202 -0.02322288 -0.00199078
v -0.02219608 -0.02234936 -0.00199078
v -0.02227450 -0.02227297 -0.02500000
v -0.03137915 0.00274352 -0.02500000
v -0.03137915 0.00274352 -0.00199078
v -0.02227450 -0.02227297 -0.00199078
v -0.02314872 -0.02135959 -0.00199078
v -0.02322457 -0.02127988 -0.02500000
v -0.03138687 0.00263391 -0.00199078
v -0.03146914 0.00137180 -0.02500000
v -0.02322457 -0.02127988 -0.00199078
v -0.02405892 -0.02032997 -0.00199078
v -0.02413092 -0.02024694 -0.02500000
v -0.03146914 0.00137180 -0.00199078
v -0.03150000 -0.00000325 -0.02500000
v -0.03147172 0.00126219 -0.00199078
v -0.02413092 -0.02024694 -0.00199078
v -0.02492285 -0.01926050 -0.00199078
v -0.02498970 -0.01917414 -0.02500000
v -0.03150000 -0.00000325 -0.00199078
v -0.03146914 -0.00137497 -0.02500000
v -0.02498970 -0.01917414 -0.00199078
v -0.02573792 -0.01815448 -0.00199078
v -0.02580220 -0.01806480 -0.02500000
v -0.03146914 -0.00137497 -0.00199078
v -0.03137915 -0.00274669 -0.02500000
v -0.03146272 -0.00148457 -0.00199078
v -0.02580220 -0.01806480 -0.00199078
v -0.02650543 -0.01701526 -0.00199078
v -0.02656585 -0.01692226 -0.02500000
v -0.03137915 -0.00274669 -0.00199078
v -0.03123002 -0.00411177 -0.02500000
v -0.03136758 -0.00285630 -0.00199078
v -0.02656585 -0.01692226 -0.00199078
v -0.02722280 -0.01584281 -0.00199078
v -0.02727936 -0.01574982 -0.02500000
v -0.03121331 -0.00422138 -0.00199078
v -0.03123002 -0.00411177 -0.00199078
v -0.03102047 -0.00547021 -0.02500000
v -0.02727936 -0.01574982 -0.00199078
v -0.02788745 -0.01464048 -0.00199078
v -0.02794016 -0.01454416 -0.02500000
v -0.03102047 -0.00547021 -0.00199078
v -0.03075306 -0.00681868 -0.02500000
v -0.03099990 -0.00557981 -0.00199078
v -0.02794016 -0.01454416 -0.00199078
v -0.02854825 -0.01331194 -0.02500000
v -0.03075306 -0.00681868 -0.00199078
v -0.03042652 -0.00815387 -0.02500000
v -0.02854825 -0.01331194 -0.00199078
v -0.02905735 -0.01215278 -0.00199078
v -0.02910106 -0.01205314 -0.02500000
v -0.03042652 -0.00815387 -0.00199078
v -0.03004084 -0.00946913 -0.02500000
v -0.03039566 -0.00826015 -0.00199078
v -0.02910106 -0.01205314 -0.00199078
v -0.02956002 -0.01087406 -0.00199078
v -0.02959988 -0.01077110 -0.02500000
v -0.03004084 -0.00946913 -0.00199078
v -0.03000613 -0.00957541 -0.00199078
v -0.02959988 -0.01077110 -0.00199078
f 210 211 214
f 210 214 215
f 210 215 212
f 210 212 216
f 210 216 220
f 210 220 224
f 210 224 228
f 210 228 232
f 210 232 237
f 210 237 241
f 210 241 246
f 210 246 248
f 210 248 252
f 210 252 257
f 210 257 259
f 210 259 263
f 210 263 265
f 210 265 270
f 210 270 269
f 210 269 275
f 210 275 277
f 210 277 280
f 210 280 285
f 210 285 287
f 210 287 291
f 210 291 292
f 210 292 293
f 210 293 289
f 210 289 288
f 210 288 283
f 210 283 282
f 210 282 278
f 210 278 273
f 210 273 272
f 210 272 267
f 210 267 266
f 210 266 261
f 210 261 260
f 210 260 255
f 210 255 254
f 210 254 250
f 210 250 249
f 210 249 244
f 210 244 243
f 210 243 239
f 210 239 238
f 210 238 234
f 210 234 233
f 210 233 229
f 210 229 225
f 210 225 221
f 210 221 217
f 210 217 213
f 210 213 211
f 211 213 217
f 211 217 218
f 211 218 214
f 212 215 219
f 212 219 216
f 214 218 222
f 214 222 226
f 214 226 230
f 214 230 235
f 214 235 240
f 214 240 245
f 214 245 251
f 214 251 256
f 214 256 262
f 214 262 268
f 214 268 274
f 214 274 279
f 214 279 284
f 214 284 290
f 214 290 286
f 214 286 281
f 214 281 276
f 214 276 271
f 214 271 264
f 214 264 258
f 214 258 253
f 214 253 247
f 214 247 242
f 214 242 236
f 214 236 231
f 214 231 227
f 214 227 223
f 214 223 219
f 214 219 215
f 216 219 223
f 216 223 220
f 217 221 222
f 217 222 218
f 220 223 227
f 220 227 224
f 221 225 226
f 221 226 222
f 224 227 228
f 225 229 226
f 226 229 230
f 227 231 228
f 228 231 232
f 229 233 230
f 230 233 234
f 230 234 235
f 231 236 237
f 231 237 232
f 234 238 235
f 235 238 239
f 235 239 240
f 236 241 237
f 236 242 241
f 239 243 240
f 240 243 244
f 240 244 245
f 241 242 246
f 242 247 248
f 242 248 246
f 244 249 245
f 245 249 250
f 245 250 251
f 247 252 248
f 247 253 257
f 247 257 252
f 250 254 251
f 251 254 255
f 251 255 256
f 253 258 259
f 253 259 257
f 255 260 256
f 256 260 261
f 256 261 262
f 258 263 259
f 258 264 265
f 258 265 263
f 261 266 262
f 262 266 267
f 262 267 268
f 264 269 270
f 264 270 265
f 264 271 269
f 267 272 268
f 268 272 273
f 268 273 274
f 269 271 275
f 271 276 277
f 271 277 275
f 273 278 274
f 274 278 282
f 274 282 279
f 276 280 277
f 276 281 285
f 276 285 280
f 279 282 283
f 279 283 284
f 281 286 287
f 281 287 285
f 283 288 284
f 284 288 289
f 284 289 290
f 286 291 287
f 286 290 292
f 286 292 291
f 289 293 290
f 290 293 292

o geometry_3
v -0.03150000 0.00000038 -0.00199078
v -0.03149934 -0.00000322 -0.00199078
v -0.03150000 0.00000038 -0.00000019
v -0.03147211 0.00126496 -0.00199078
v -0.03149934 -0.00000322 -0.00000019
v -0.02675054 -0.00000322 -0.00199078
v -0.03146945 0.00137430 -0.00000019
v -0.03146945 0.00137430 -0.00199078
v -0.02675054 -0.00000322 -0.00000019
v -0.02471487 0.00734543 -0.00199078
v -0.03137979 0.00274605 -0.00000019
v -0.03138709 0.00263672 -0.00199078
v -0.02471487 0.00734543 -0.00000019
v -0.03062396 0.00734543 -0.00199078
v -0.03124230 0.00400272 -0.00199078
v -0.03137979 0.00274605 -0.00199078
v -0.03123035 0.00411134 -0.00000019
v -0.03062396 0.00734543 -0.00000019
v -0.03075281 0.00681745 -0.00199078
v -0.03123035 0.00411134 -0.00199078
v -0.03102114 0.00546943 -0.00000019
v -0.03075281 0.00681745 -0.00000019
v -0.03102114 0.00546943 -0.00199078
f 294 295 298
f 294 298 296
f 294 296 297
f 294 297 301
f 294 301 305
f 294 305 309
f 294 309 308
f 294 308 313
f 294 313 316
f 294 316 312
f 294 312 307
f 294 307 303
f 294 303 299
f 294 299 295
f 295 299 302
f 295 302 298
f 296 298 302
f 296 302 306
f 296 306 311
f 296 311 315
f 296 315 314
f 296 314 310
f 296 310 304
f 296 304 300
f 296 300 297
f 297 300 301
f 299 303 306
f 299 306 302
f 300 304 305
f 300 305 301
f 303 307 311
f 303 311 306
f 304 308 309
f 304 309 305
f 304 310 308
f 307 312 315
f 307 315 311
f 308 310 313
f 310 314 316
f 310 316 313
f 312 316 314
f 312 314 315

o geometry_4
v -0.02471448 -0.00734675 -0.00000019
v -0.02471448 -0.00734675 -0.00199078
v -0.03062275 -0.00734675 -0.00000019
v -0.01891282 -0.01357185 -0.00000019
v -0.03062275 -0.00734675 -0.00199078
v -0.01891282 -0.01357185 -0.00199078
v -0.03042558 -0.00815300 -0.00000019
v -0.02841947 -0.01357185 -0.00000019
v -0.03042558 -0.00815300 -0.00199078
v -0.02841947 -0.01357185 -0.00199078
v -0.03039577 -0.00825842 -0.00199078
v -0.03004155 -0.00947236 -0.00000019
v -0.02854786 -0.01331225 -0.00000019
v -0.02849972 -0.01341036 -0.00199078
v -0.03004155 -0.00947236 -0.00199078
v -0.02960021 -0.01077345 -0.00000019
v -0.02910155 -0.01205443 -0.00000019
v -0.02905799 -0.01215437 -0.00199078
v -0.02854786 -0.01331225 -0.00199078
v -0.02960021 -0.01077345 -0.00199078
v -0.02910155 -0.01205443 -0.00199078
f 317 318 321
f 317 321 319
f 317 319 323
f 317 323 328
f 317 328 332
f 317 332 333
f 317 333 329
f 317 329 324
f 317 324 320
f 317 320 322
f 317 322 318
f 318 322 326
f 318 326 330
f 318 330 335
f 318 335 334
f 318 334 337
f 318 337 336
f 318 336 331
f 318 331 327
f 318 327 325
f 318 325 321
f 319 321 325
f 319 325 323
f 320 324 326
f 320 326 322
f 323 325 327
f 323 327 328
f 324 329 330
f 324 330 326
f 327 331 328
f 328 331 336
f 328 336 332
f 329 333 334
f 329 334 335
f 329 335 330
f 332 336 337
f 332 337 333
f 333 337 334

o geometry_5
v 0.00000322 -0.03149857 -0.00199048
v 0.00010988 -0.03149722 -0.00199048
v 0.00000322 -0.03149857 -0.00000019
v 0.00000322 -0.01920084 -0.00199048
v 0.00137429 -0.03146871 -0.00199048
v 0.00137429 -0.03146871 -0.00000019
v 0.00000322 -0.01920084 -0.00000019
v 0.01058247 -0.01763002 -0.00199048
v 0.00148406 -0.03146192 -0.00199048
v 0.00274641 -0.03137910 -0.00000019
v 0.01058247 -0.01763002 -0.00000019
v 0.01058247 -0.02966437 -0.00199048
v 0.00274641 -0.03137910 -0.00199048
v 0.00411231 -0.03122976 -0.00000019
v 0.01058247 -0.02966437 -0.00000019
v 0.00947131 -0.03004180 -0.00199048
v 0.00411231 -0.03122976 -0.00199048
v 0.00422001 -0.03121346 -0.00199048
v 0.00546889 -0.03102068 -0.00000019
v 0.00947131 -0.03004180 -0.00000019
v 0.00815202 -0.03042602 -0.00199048
v 0.00546889 -0.03102068 -0.00199048
v 0.00681718 -0.03075322 -0.00000019
v 0.00815202 -0.03042602 -0.00000019
v 0.00681718 -0.03075322 -0.00199048
f 338 339 340
f 338 340 344
f 338 344 341
f 338 341 345
f 338 345 349
f 338 349 353
f 338 353 358
f 338 358 362
f 338 362 359
f 338 359 355
f 338 355 354
f 338 354 350
f 338 350 346
f 338 346 342
f 338 342 339
f 339 342 343
f 339 343 340
f 340 343 347
f 340 347 351
f 340 351 356
f 340 356 360
f 340 360 361
f 340 361 357
f 340 357 352
f 340 352 348
f 340 348 344
f 341 344 348
f 341 348 345
f 342 346 343
f 343 346 347
f 345 348 352
f 345 352 349
f 346 350 347
f 347 350 354
f 347 354 351
f 349 352 357
f 349 357 353
f 351 354 355
f 351 355 356
f 353 357 361
f 353 361 358
f 355 359 356
f 356 359 362
f 356 362 360
f 358 361 360
f 358 360 362

o geometry_6
v 0.00975202 0.01787279 -0.00199048
v 0.01810795 0.01412474 -0.00199048
v 0.00975202 0.01787279 -0.00000019
v 0.00975202 0.02994711 -0.00199048
v 0.01810795 0.01412474 -0.00000019
v 0.01810795 0.02577314 -0.00199048
v 0.00975202 0.02994711 -0.00000019
v 0.01077371 0.02960018 -0.00199048
v 0.01810795 0.02577314 -0.00000019
v 0.01806705 0.02580256 -0.00199048
v 0.01077371 0.02960018 -0.00000019
v 0.01195327 0.02914174 -0.00199048
v 0.01806705 0.02580256 -0.00000019
v 0.01692430 0.02656611 -0.00199048
v 0.01205471 0.02910147 -0.00000019
v 0.01205471 0.02910147 -0.00199048
v 0.01692430 0.02656611 -0.00000019
v 0.01683105 0.02662342 -0.00199048
v 0.01331280 0.02854856 -0.00000019
v 0.01331280 0.02854856 -0.00199048
v 0.01574964 0.02727855 -0.00000019
v 0.01574964 0.02727855 -0.00199048
v 0.01454472 0.02793988 -0.00000019
v 0.01454472 0.02793988 -0.00199048
v 0.01565394 0.02733121 -0.00199048
f 363 364 367
f 363 367 365
f 363 365 369
f 363 369 366
f 363 366 370
f 363 370 374
f 363 374 378
f 363 378 382
f 363 382 386
f 363 386 387
f 363 387 384
f 363 384 380
f 363 380 376
f 363 376 372
f 363 372 368
f 363 368 364
f 364 368 371
f 364 371 367
f 365 367 371
f 365 371 375
f 365 375 379
f 365 379 383
f 365 383 385
f 365 385 381
f 365 381 377
f 365 377 373
f 365 373 369
f 366 369 373
f 366 373 370
f 368 372 375
f 368 375 371
f 370 373 374
f 372 376 379
f 372 379 375
f 373 377 374
f 374 377 378
f 376 380 379
f 377 381 382
f 377 382 378
f 379 380 383
f 380 384 383
f 381 385 386
f 381 386 382
f 383 384 387
f 383 387 385
f 385 387 386

o geometry_7
v -0.01892720 0.01356193 -0.00199078
v -0.01027135 0.01772204 -0.00199078
v -0.01892720 0.01356193 -0.00000019
v -0.01892720 0.02517279 -0.00199078
v -0.01027135 0.01772204 -0.00000019
v -0.01027135 0.02977080 -0.00199078
v -0.01892720 0.02517279 -0.00000019
v -0.01806720 0.02580267 -0.00199078
v -0.01027135 0.02977080 -0.00000019
v -0.01077379 0.02959945 -0.00199078
v -0.01806720 0.02580267 -0.00000019
v -0.01701573 0.02650554 -0.00199078
v -0.01077379 0.02959945 -0.00000019
v -0.01087631 0.02955978 -0.00199078
v -0.01692422 0.02656584 -0.00000019
v -0.01692422 0.02656584 -0.00199078
v -0.01205488 0.02910125 -0.00000019
v -0.01205488 0.02910125 -0.00199078
v -0.01584309 0.02722270 -0.00199078
v -0.01574989 0.02727823 -0.00000019
v -0.01331310 0.02854752 -0.00000019
v -0.01331310 0.02854752 -0.00199078
v -0.01574989 0.02727823 -0.00199078
v -0.01454590 0.02793985 -0.00000019
v -0.01341138 0.02849992 -0.00199078
v -0.01454590 0.02793985 -0.00199078
f 388 389 392
f 388 392 390
f 388 390 394
f 388 394 391
f 388 391 395
f 388 395 399
f 388 399 403
f 388 403 406
f 388 406 410
f 388 410 413
f 388 413 412
f 388 412 409
f 388 409 405
f 388 405 401
f 388 401 397
f 388 397 393
f 388 393 389
f 389 393 396
f 389 396 392
f 390 392 396
f 390 396 400
f 390 400 404
f 390 404 408
f 390 408 411
f 390 411 407
f 390 407 402
f 390 402 398
f 390 398 394
f 391 394 398
f 391 398 395
f 393 397 400
f 393 400 396
f 395 398 399
f 397 401 400
f 398 402 399
f 399 402 403
f 400 401 404
f 401 405 404
f 402 406 403
f 402 407 406
f 404 405 409
f 404 409 408
f 406 407 410
f 407 411 413
f 407 413 410
f 408 409 412
f 408 412 411
f 411 412 413

o geometry_8
v 0.01058247 -0.02966519 -0.00199048
v 0.01077436 -0.02959913 -0.00199048
v 0.01058247 -0.02966519 -0.00000019
v 0.01058247 -0.01763009 -0.00199048
v 0.01077436 -0.02959913 -0.00000019
v 0.01087635 -0.02956046 -0.00199048
v 0.01058247 -0.01763009 -0.00000019
v 0.01941288 -0.01320595 -0.00199048
v 0.01205535 -0.02910129 -0.00000019
v 0.01205535 -0.02910129 -0.00199048
v 0.01941288 -0.01320595 -0.00000019
v 0.01941288 -0.02479959 -0.00199048
v 0.01215476 -0.02905779 -0.00199048
v 0.01331301 -0.02854868 -0.00000019
v 0.01941288 -0.02479959 -0.00000019
v 0.01926075 -0.02492204 -0.00199048
v 0.01331301 -0.02854868 -0.00199048
v 0.01454561 -0.02793967 -0.00000019
v 0.01917518 -0.02498971 -0.00000019
v 0.01917518 -0.02498971 -0.00199048
v 0.01454561 -0.02793967 -0.00199048
v 0.01464155 -0.02788812 -0.00199048
v 0.01574968 -0.02727911 -0.00000019
v 0.01806705 -0.02580171 -0.00000019
v 0.01815522 -0.02573727 -0.00199048
v 0.01574968 -0.02727911 -0.00199048
v 0.01584303 -0.02722272 -0.00199048
v 0.01692435 -0.02656538 -0.00000019
v 0.01701511 -0.02650577 -0.00199048
v 0.01806705 -0.02580171 -0.00199048
v 0.01692435 -0.02656538 -0.00199048
f 414 415 418
f 414 418 416
f 414 416 420
f 414 420 417
f 414 417 421
f 414 421 425
f 414 425 429
f 414 429 433
f 414 433 438
f 414 438 443
f 414 443 442
f 414 442 444
f 414 444 440
f 414 440 439
f 414 439 435
f 414 435 434
f 414 434 430
f 414 430 426
f 414 426 423
f 414 423 419
f 414 419 415
f 415 419 418
f 416 418 422
f 416 422 427
f 416 427 431
f 416 431 436
f 416 436 441
f 416 441 437
f 416 437 432
f 416 432 428
f 416 428 424
f 416 424 420
f 417 420 424
f 417 424 421
f 418 419 422
f 419 423 422
f 421 424 428
f 421 428 425
f 422 423 426
f 422 426 427
f 425 428 429
f 426 430 427
f 427 430 434
f 427 434 431
f 428 432 429
f 429 432 433
f 431 434 435
f 431 435 436
f 432 437 438
f 432 438 433
f 435 439 436
f 436 439 440
f 436 440 441
f 437 441 442
f 437 442 443
f 437 443 438
f 440 444 441
f 441 444 442

o geometry_9
v -0.01027135 0.01772066 -0.00199078
v 0.00000221 0.01920030 -0.00199078
v -0.01027135 0.01772066 -0.00000019
v -0.01027135 0.02976949 -0.00199078
v 0.00000221 0.01920030 -0.00000019
v 0.00000221 0.03149865 -0.00199078
v -0.01027135 0.02976949 -0.00000019
v -0.00957539 0.03000688 -0.00199078
v 0.00000221 0.03149865 -0.00000019
v -0.00000081 0.03150000 -0.00199078
v -0.00947180 0.03004195 -0.00000019
v -0.00947180 0.03004195 -0.00199078
v -0.00000081 0.03150000 -0.00000019
v -0.00137464 0.03146898 -0.00199078
v -0.00815227 0.03042636 -0.00000019
v -0.00815227 0.03042636 -0.00199078
v -0.00137464 0.03146898 -0.00000019
v -0.00148326 0.03146223 -0.00199078
v -0.00692327 0.03072714 -0.00199078
v -0.00681767 0.03075276 -0.00000019
v -0.00274545 0.03137996 -0.00000019
v -0.00274545 0.03137996 -0.00199078
v -0.00681767 0.03075276 -0.00199078
v -0.00546898 0.03102118 -0.00000019
v -0.00411224 0.03123024 -0.00000019
v -0.00411224 0.03123024 -0.00199078
v -0.00546898 0.03102118 -0.00199078
f 445 446 449
f 445 449 447
f 445 447 451
f 445 451 448
f 445 448 452
f 445 452 456
f 445 456 460
f 445 460 463
f 445 463 467
f 445 467 471
f 445 471 470
f 445 470 466
f 445 466 462
f 445 462 458
f 445 458 454
f 445 454 450
f 445 450 446
f 446 450 453
f 446 453 449
f 447 449 453
f 447 453 457
f 447 457 461
f 447 461 465
f 447 465 469
f 447 469 468
f 447 468 464
f 447 464 459
f 447 459 455
f 447 455 451
f 448 451 452
f 450 454 457
f 450 457 453
f 451 455 452
f 452 455 456
f 454 458 461
f 454 461 457
f 455 459 460
f 455 460 456
f 458 462 461
f 459 463 460
f 459 464 463
f 461 462 465
f 462 466 465
f 463 464 467
f 464 468 471
f 464 471 467
f 465 466 470
f 465 470 469
f 468 469 470
f 468 470 471

o geometry_10
v -0.03062422 0.00734543 -0.00199078
v -0.03062308 0.00734543 -0.00000019
v -0.03042614 0.00815340 -0.00000019
v -0.03045248 0.00804695 -0.00199078
v -0.02471502 0.00734543 -0.00199078
v -0.02471502 0.00734543 -0.00000019
v -0.03004143 0.00947267 -0.00000019
v -0.03007234 0.00936797 -0.00199078
v -0.03042614 0.00815340 -0.00199078
v -0.01892720 0.01356311 -0.00199078
v -0.01892720 0.01356311 -0.00000019
v -0.03004143 0.00947267 -0.00199078
v -0.02959947 0.01077449 -0.00000019
v -0.02963497 0.01067153 -0.00199078
v -0.01892720 0.02517130 -0.00199078
v -0.01892720 0.02517130 -0.00000019
v -0.02910141 0.01205537 -0.00000019
v -0.02914148 0.01195416 -0.00199078
v -0.02959947 0.01077449 -0.00199078
v -0.01917680 0.02498981 -0.00199078
v -0.01917680 0.02498981 -0.00000019
v -0.02910141 0.01205537 -0.00199078
v -0.02854839 0.01331356 -0.00000019
v -0.02024849 0.02412949 -0.00199078
v -0.02024849 0.02412949 -0.00000019
v -0.02854839 0.01331356 -0.00199078
v -0.02794041 0.01454558 -0.00000019
v -0.02033093 0.02405795 -0.00199078
v -0.02128126 0.02322381 -0.00000019
v -0.02794041 0.01454558 -0.00199078
v -0.02727976 0.01575143 -0.00000019
v -0.02733243 0.01565545 -0.00199078
v -0.02128126 0.02322381 -0.00199078
v -0.02227395 0.02227274 -0.00000019
v -0.02727976 0.01575143 -0.00199078
v -0.02656644 0.01692411 -0.00000019
v -0.02227395 0.02227274 -0.00199078
v -0.02235066 0.02219422 -0.00199078
v -0.02322427 0.02127980 -0.00000019
v -0.02656644 0.01692411 -0.00199078
v -0.02580275 0.01806713 -0.00000019
v -0.02586343 0.01797639 -0.00199078
v -0.02322427 0.02127980 -0.00199078
v -0.02329641 0.02119778 -0.00199078
v -0.02413109 0.02024672 -0.00000019
v -0.02498982 0.01917525 -0.00000019
v -0.02580275 0.01806713 -0.00199078
v -0.02413109 0.02024672 -0.00199078
v -0.02419979 0.02016121 -0.00199078
v -0.02498982 0.01917525 -0.00199078
f 472 473 474
f 472 474 475
f 472 475 480
f 472 480 479
f 472 479 483
f 472 483 485
f 472 485 490
f 472 490 489
f 472 489 493
f 472 493 497
f 472 497 501
f 472 501 503
f 472 503 506
f 472 506 511
f 472 511 513
f 472 513 518
f 472 518 521
f 472 521 520
f 472 520 519
f 472 519 515
f 472 515 514
f 472 514 509
f 472 509 508
f 472 508 504
f 472 504 499
f 472 499 495
f 472 495 491
f 472 491 486
f 472 486 481
f 472 481 476
f 472 476 477
f 472 477 473
f 473 477 482
f 473 482 487
f 473 487 492
f 473 492 496
f 473 496 500
f 473 500 505
f 473 505 510
f 473 510 516
f 473 516 517
f 473 517 512
f 473 512 507
f 473 507 502
f 473 502 498
f 473 498 494
f 473 494 488
f 473 488 484
f 473 484 478
f 473 478 474
f 474 478 479
f 474 479 480
f 474 480 475
f 476 481 482
f 476 482 477
f 478 483 479
f 478 484 485
f 478 485 483
f 481 486 487
f 481 487 482
f 484 488 489
f 484 489 490
f 484 490 485
f 486 491 492
f 486 492 487
f 488 493 489
f 488 494 497
f 488 497 493
f 491 495 496
f 491 496 492
f 494 498 501
f 494 501 497
f 495 499 496
f 496 499 500
f 498 502 503
f 498 503 501
f 499 504 500
f 500 504 508
f 500 508 505
f 502 506 503
f 502 507 511
f 502 511 506
f 505 508 509
f 505 509 510
f 507 512 513
f 507 513 511
f 509 514 510
f 510 514 515
f 510 515 516
f 512 517 521
f 512 521 518
f 512 518 513
f 515 519 516
f 516 519 520
f 516 520 517
f 517 520 521

o geometry_11
v 0.00000322 -0.01047298 -0.02500000
v 0.00000322 -0.01047298 -0.00200000
v 0.02970235 -0.01047298 -0.00199047
v 0.00000322 -0.01920046 -0.00199047
v 0.00000322 -0.03149993 -0.00199047
v 0.00000322 -0.03149993 -0.02500000
v 0.02970235 -0.01047298 -0.02500000
v 0.01806580 -0.02580313 -0.02500000
v 0.00947471 -0.03004200 -0.02500000
v 0.00411267 -0.03123010 -0.02500000
v 0.00137646 -0.03146964 -0.02500000
v 0.00137646 -0.03146964 -0.00199047
v 0.00274713 -0.03137878 -0.00199047
v 0.00274713 -0.03137878 -0.02500000
v 0.00411267 -0.03123010 -0.00199047
v 0.00422047 -0.03121358 -0.00199047
v 0.00547050 -0.03102084 -0.02500000
v 0.00547050 -0.03102084 -0.00199047
v 0.00815281 -0.03042610 -0.00199047
v 0.00681807 -0.03075238 -0.00199047
v 0.00681807 -0.03075238 -0.02500000
v 0.00815281 -0.03042610 -0.02500000
v 0.00947471 -0.03004200 -0.00199047
v 0.01806580 -0.02580313 -0.00199047
v 0.01331208 -0.02854828 -0.00199047
v 0.01574797 -0.02727895 -0.00199047
v 0.01692357 -0.02656582 -0.00199047
v 0.01692357 -0.02656582 -0.02500000
v 0.01574797 -0.02727895 -0.02500000
v 0.01454414 -0.02793977 -0.02500000
v 0.01331208 -0.02854828 -0.02500000
v 0.01454414 -0.02793977 -0.00199047
v 0.01205691 -0.02910171 -0.02500000
v 0.01077608 -0.02960008 -0.02500000
v 0.01077608 -0.02960008 -0.00199047
v 0.01205691 -0.02910171 -0.00199047
v 0.01917465 -0.02498950 -0.02500000
v 0.01917465 -0.02498950 -0.00199047
v 0.02024758 -0.02413043 -0.00199047
v 0.02024758 -0.02413043 -0.02500000
v 0.02127943 -0.02322456 -0.02500000
v 0.02127943 -0.02322456 -0.00199047
v 0.02227278 -0.02227463 -0.00199047
v 0.02227278 -0.02227463 -0.02500000
v 0.02498846 -0.01917705 -0.02500000
v 0.02322250 -0.02128203 -0.02500000
v 0.02322250 -0.02128203 -0.00199047
v 0.02498846 -0.01917705 -0.00199047
v 0.02412858 -0.02024813 -0.00199047
v 0.02412858 -0.02024813 -0.02500000
v 0.02580214 -0.01806880 -0.02500000
v 0.02580214 -0.01806880 -0.00199047
v 0.02656636 -0.01692459 -0.00199047
v 0.02656636 -0.01692459 -0.02500000
v 0.02727723 -0.01574984 -0.02500000
v 0.02727723 -0.01574984 -0.00199047
v 0.02793811 -0.01454526 -0.00199047
v 0.02793811 -0.01454526 -0.02500000
v 0.02910142 -0.01205474 -0.02500000
v 0.02854787 -0.01331239 -0.02500000
v 0.02854787 -0.01331239 -0.00199047
v 0.02910142 -0.01205474 -0.00199047
v 0.02960004 -0.01077361 -0.02500000
v 0.02960004 -0.01077361 -0.00199047
f 523 524 522
f 525 524 523
f 525 526 524
f 525 527 526
f 525 522 527
f 525 523 522
f 527 522 528
f 529 527 528
f 530 527 529
f 531 527 530
f 532 527 531
f 532 526 527
f 533 526 532
f 533 534 526
f 533 532 534
f 535 534 532
f 536 534 535
f 536 537 534
f 536 531 537
f 536 535 531
f 535 532 531
f 538 537 531
f 539 537 538
f 539 540 537
f 541 540 539
f 541 542 540
f 541 539 542
f 539 538 542
f 538 531 542
f 542 531 530
f 543 542 530
f 543 540 542
f 543 530 540
f 540 530 544
f 540 544 537
f 537 544 526
f 534 537 526
f 544 545 526
f 546 545 544
f 547 545 546
f 548 545 547
f 548 549 545
f 548 547 549
f 547 550 549
f 551 550 547
f 551 552 550
f 551 546 552
f 553 546 551
f 553 547 546
f 553 551 547
f 554 552 546
f 554 530 552
f 555 530 554
f 555 544 530
f 556 544 555
f 556 557 544
f 556 555 557
f 555 554 557
f 557 554 546
f 557 546 544
f 552 530 529
f 550 552 529
f 549 550 529
f 549 529 545
f 558 545 529
f 559 545 558
f 559 560 545
f 559 558 560
f 560 558 561
f 562 560 561
f 563 560 562
f 563 564 560
f 563 562 564
f 562 565 564
f 562 561 565
f 561 529 565
f 558 529 561
f 565 529 566
f 567 565 566
f 564 565 567
f 568 564 567
f 568 569 564
f 570 569 568
f 570 571 569
f 570 568 571
f 571 568 567
f 571 567 566
f 571 566 569
f 572 569 566
f 573 569 572
f 573 574 569
f 573 572 574
f 574 572 575
f 574 575 576
f 577 574 576
f 577 578 574
f 577 576 578
f 576 579 578
f 576 575 579
f 575 566 579
f 572 566 575
f 579 566 528
f 580 579 528
f 581 579 580
f 581 578 579
f 582 578 581
f 582 583 578
f 582 581 583
f 583 581 580
f 583 580 584
f 585 583 584
f 585 524 583
f 585 584 524
f 584 528 524
f 584 580 528
f 524 528 522
f 583 524 578
f 578 524 569
f 574 578 569
f 569 524 545
f 564 569 545
f 560 564 545
f 545 524 526
f 566 529 528

o geometry_12
v -0.03149927 -0.00000322 -0.00199078
v -0.03149927 -0.00000322 -0.00000019
v -0.02675002 -0.00000322 -0.00199078
v -0.03149727 -0.00010960 -0.00199078
v -0.03146938 -0.00137402 -0.00000019
v -0.02675002 -0.00000322 -0.00000019
v -0.02471415 -0.00734675 -0.00199078
v -0.03146938 -0.00137402 -0.00199078
v -0.03146273 -0.00148328 -0.00199078
v -0.03137971 -0.00274554 -0.00000019
v -0.02471415 -0.00734675 -0.00000019
v -0.03062381 -0.00734675 -0.00199078
v -0.03137971 -0.00274554 -0.00199078
v -0.03123025 -0.00411131 -0.00000019
v -0.03062381 -0.00734675 -0.00000019
v -0.03072677 -0.00692408 -0.00199078
v -0.03123025 -0.00411131 -0.00199078
v -0.03102102 -0.00546989 -0.00000019
v -0.03075267 -0.00681769 -0.00000019
v -0.03075267 -0.00681769 -0.00199078
v -0.03102102 -0.00546989 -0.00199078
v -0.03099977 -0.00557700 -0.00199078
f 586 587 591
f 586 591 588
f 586 588 592
f 586 592 597
f 586 597 601
f 586 601 605
f 586 605 607
f 586 607 606
f 586 606 602
f 586 602 598
f 586 598 594
f 586 594 593
f 586 593 589
f 586 589 587
f 587 589 590
f 587 590 595
f 587 595 599
f 587 599 603
f 587 603 604
f 587 604 600
f 587 600 596
f 587 596 591
f 588 591 596
f 588 596 592
f 589 593 590
f 590 593 594
f 590 594 595
f 592 596 600
f 592 600 597
f 594 598 595
f 595 598 602
f 595 602 599
f 597 600 601
f 599 602 606
f 599 606 603
f 600 604 601
f 601 604 605
f 603 606 607
f 603 607 604
f 604 607 605

o geometry_13
v 0.00000322 0.01920062 -0.00199048
v 0.00975202 0.01787197 -0.00199048
v 0.00000322 0.01920062 -0.00000019
v 0.00000322 0.03149860 -0.00199048
v 0.00975202 0.01787197 -0.00000019
v 0.00975202 0.02994584 -0.00199048
v 0.00000322 0.03149860 -0.00000019
v 0.00126476 0.03147192 -0.00199048
v 0.00975202 0.02994584 -0.00000019
v 0.00947146 0.03004189 -0.00199048
v 0.00137450 0.03146925 -0.00000019
v 0.00137450 0.03146925 -0.00199048
v 0.00947146 0.03004189 -0.00000019
v 0.00936649 0.03007257 -0.00199048
v 0.00274578 0.03137987 -0.00000019
v 0.00274578 0.03137987 -0.00199048
v 0.00815266 0.03042608 -0.00000019
v 0.00815266 0.03042608 -0.00199048
v 0.00411229 0.03123047 -0.00000019
v 0.00411229 0.03123047 -0.00199048
v 0.00681764 0.03075290 -0.00000019
v 0.00681764 0.03075290 -0.00199048
v 0.00546926 0.03102103 -0.00000019
v 0.00546926 0.03102103 -0.00199048
f 608 609 612
f 608 612 610
f 608 610 614
f 608 614 611
f 608 611 615
f 608 615 619
f 608 619 623
f 608 623 627
f 608 627 631
f 608 631 629
f 608 629 625
f 608 625 621
f 608 621 617
f 608 617 613
f 608 613 609
f 609 613 616
f 609 616 612
f 610 612 616
f 610 616 620
f 610 620 624
f 610 624 628
f 610 628 630
f 610 630 626
f 610 626 622
f 610 622 618
f 610 618 614
f 611 614 615
f 613 617 620
f 613 620 616
f 614 618 615
f 615 618 619
f 617 621 620
f 618 622 623
f 618 623 619
f 620 621 624
f 621 625 624
f 622 626 627
f 622 627 623
f 624 625 629
f 624 629 628
f 626 630 631
f 626 631 627
f 628 629 631
f 628 631 630

o geometry_14
v 0.02509450 -0.00664611 -0.00199048
v 0.03078709 -0.00664611 -0.00199048
v 0.02509450 -0.00664611 -0.00000019
v 0.02671218 0.00098765 -0.00199048
v 0.03102097 -0.00546921 -0.00199048
v 0.03078709 -0.00664611 -0.00000019
v 0.02671218 0.00098765 -0.00000019
v 0.03147806 0.00098765 -0.00199048
v 0.03103790 -0.00536161 -0.00199048
v 0.03102097 -0.00546921 -0.00000019
v 0.03147806 0.00098765 -0.00000019
v 0.03149749 0.00010890 -0.00199048
v 0.03123039 -0.00411148 -0.00199048
v 0.03123039 -0.00411148 -0.00000019
v 0.03149937 -0.00000020 -0.00000019
v 0.03149937 -0.00000020 -0.00199048
v 0.03137962 -0.00274554 -0.00199048
v 0.03137962 -0.00274554 -0.00000019
v 0.03146990 -0.00137436 -0.00000019
v 0.03146990 -0.00137436 -0.00199048
v 0.03138714 -0.00263644 -0.00199048
f 632 633 637
f 632 637 634
f 632 634 638
f 632 638 635
f 632 635 639
f 632 639 643
f 632 643 647
f 632 647 651
f 632 651 652
f 632 652 648
f 632 648 644
f 632 644 640
f 632 640 636
f 632 636 633
f 633 636 641
f 633 641 637
f 634 637 641
f 634 641 645
f 634 645 649
f 634 649 650
f 634 650 646
f 634 646 642
f 634 642 638
f 635 638 642
f 635 642 639
f 636 640 641
f 639 642 643
f 640 644 645
f 640 645 641
f 642 646 643
f 643 646 647
f 644 648 649
f 644 649 645
f 646 650 651
f 646 651 647
f 648 652 649
f 649 652 650
f 650 652 651

o geometry_15
v -0.01682018 -0.02663035 -0.00199078
v -0.01692497 -0.02656585 -0.02500000
v -0.01682018 -0.02663035 -0.02500000
v -0.01780962 -0.02597543 -0.02500000
v -0.01780962 -0.02597543 -0.00199078
v -0.01692497 -0.02656585 -0.00199078
v -0.01682018 -0.01492848 -0.00199078
v -0.01780962 -0.01440999 -0.00199078
v -0.01780962 0.00834665 -0.00200195
v -0.01682018 0.00834665 -0.00200195
v -0.01682018 0.00834665 -0.02500000
v -0.01780962 0.00834665 -0.02500000
f 654 655 653
f 654 656 655
f 654 657 656
f 658 657 654
f 658 653 657
f 658 654 653
f 659 657 653
f 660 657 659
f 660 661 657
f 660 662 661
f 660 659 662
f 659 653 662
f 653 655 662
f 663 662 655
f 663 664 662
f 663 655 664
f 656 664 655
f 656 657 664
f 661 664 657
f 661 662 664

o geometry_16
v -0.01780967 -0.01440839 -0.00199078
v -0.01836621 -0.01493585 -0.00199078
v -0.01780967 -0.02597573 -0.00199078
v -0.01780967 0.00834665 -0.00200205
v -0.01836621 0.00834665 -0.00200205
v -0.01836621 -0.02558264 -0.00199078
v -0.01806773 -0.02580102 -0.00199078
v -0.01780967 -0.02597573 -0.02500000
v -0.01780967 0.00834665 -0.02500000
v -0.01836621 0.00834665 -0.02500000
v -0.01836621 -0.02558264 -0.02500000
v -0.01806773 -0.02580102 -0.02500000
f 665 666 670
f 665 670 671
f 665 671 667
f 665 667 672
f 665 672 673
f 665 673 668
f 665 668 669
f 665 669 666
f 666 669 674
f 666 674 675
f 666 675 670
f 667 671 676
f 667 676 672
f 668 673 674
f 668 674 669
f 670 675 676
f 670 676 671
f 672 676 675
f 672 675 674
f 672 674 673

o geometry_17
v 0.01810877 0.01412582 -0.00199048
v 0.02421285 0.00815556 -0.00199048
v 0.01810877 0.01412582 -0.00000019
v 0.01810877 0.02577318 -0.00199048
v 0.02421285 0.00815556 -0.00000019
v 0.02421285 0.02014437 -0.00199048
v 0.01810877 0.02577318 -0.00000019
v 0.01917651 0.02499025 -0.00199048
v 0.02421285 0.02014437 -0.00000019
v 0.02413040 0.02024612 -0.00199048
v 0.01917651 0.02499025 -0.00000019
v 0.02016298 0.02419870 -0.00199048
v 0.02413040 0.02024612 -0.00000019
v 0.02405810 0.02032889 -0.00199048
v 0.02024783 0.02412972 -0.00000019
v 0.02024783 0.02412972 -0.00199048
v 0.02322399 0.02128083 -0.00000019
v 0.02322399 0.02128083 -0.00199048
v 0.02128091 0.02322263 -0.00000019
v 0.02119846 0.02329506 -0.00199048
v 0.02227336 0.02227242 -0.00000019
v 0.02227336 0.02227242 -0.00199048
v 0.02128091 0.02322263 -0.00199048
v 0.02219449 0.02234830 -0.00199048
f 677 678 681
f 677 681 679
f 677 679 683
f 677 683 680
f 677 680 684
f 677 684 688
f 677 688 692
f 677 692 696
f 677 696 699
f 677 699 700
f 677 700 698
f 677 698 694
f 677 694 690
f 677 690 686
f 677 686 682
f 677 682 678
f 678 682 685
f 678 685 681
f 679 681 685
f 679 685 689
f 679 689 693
f 679 693 697
f 679 697 695
f 679 695 691
f 679 691 687
f 679 687 683
f 680 683 687
f 680 687 684
f 682 686 689
f 682 689 685
f 684 687 688
f 686 690 689
f 687 691 688
f 688 691 692
f 689 690 693
f 690 694 693
f 691 695 696
f 691 696 692
f 693 694 698
f 693 698 697
f 695 699 696
f 695 697 700
f 695 700 699
f 697 698 700

o geometry_18
v -0.01682018 -0.01466478 -0.00199958
v -0.01682018 -0.01466478 -0.02500000
v 0.00000157 -0.01466478 -0.00200183
v -0.00000008 0.00834665 -0.00200183
v -0.01682018 0.00834665 -0.00200183
v 0.00000157 -0.01466478 -0.02500000
v -0.01682018 0.00834665 -0.02500000
v 0.00000322 -0.01466478 -0.00735344
v 0.00000322 0.00834665 -0.01502625
v 0.00000322 -0.01466478 -0.00738496
v 0.00000322 -0.00007541 -0.02500000
v 0.00000322 0.00834665 -0.02500000
f 701 702 706
f 701 706 710
f 701 710 708
f 701 708 703
f 701 703 704
f 701 704 705
f 701 705 707
f 701 707 702
f 702 707 712
f 702 712 711
f 702 711 706
f 703 708 704
f 704 709 712
f 704 712 707
f 704 707 705
f 704 708 709
f 706 711 710
f 708 710 711
f 708 711 712
f 708 712 709

o geometry_19
v 0.02421285 0.00815668 -0.00199048
v 0.02671200 0.00098765 -0.00199048
v 0.02421285 0.00815668 -0.00000019
v 0.02421285 0.02014507 -0.00199048
v 0.03147773 0.00098765 -0.00199048
v 0.02671200 0.00098765 -0.00000019
v 0.02421285 0.02014507 -0.00000019
v 0.02499090 0.01917557 -0.00199048
v 0.03146990 0.00137582 -0.00199048
v 0.03147773 0.00098765 -0.00000019
v 0.02499090 0.01917557 -0.00000019
v 0.02580380 0.01806730 -0.00199048
v 0.03146279 0.00148459 -0.00199048
v 0.03146990 0.00137582 -0.00000019
v 0.02580380 0.01806730 -0.00000019
v 0.02650646 0.01701530 -0.00199048
v 0.03137958 0.00274662 -0.00199048
v 0.03137958 0.00274662 -0.00000019
v 0.02656691 0.01692341 -0.00000019
v 0.02656691 0.01692341 -0.00199048
v 0.03123023 0.00411179 -0.00199048
v 0.03123023 0.00411179 -0.00000019
v 0.02728024 0.01574951 -0.00000019
v 0.02722335 0.01584327 -0.00199048
v 0.03102114 0.00547134 -0.00199048
v 0.03102114 0.00547134 -0.00000019
v 0.02728024 0.01574951 -0.00199048
v 0.02794023 0.01454373 -0.00000019
v 0.03075302 0.00681963 -0.00199048
v 0.03075302 0.00681963 -0.00000019
v 0.02794023 0.01454373 -0.00199048
v 0.02854831 0.01331170 -0.00000019
v 0.03042658 0.00815293 -0.00199048
v 0.03042658 0.00815293 -0.00000019
v 0.02854831 0.01331170 -0.00199048
v 0.02910162 0.01205342 -0.00000019
v 0.03039600 0.00825794 -0.00199048
v 0.03004182 0.00947309 -0.00000019
v 0.02910162 0.01205342 -0.00199048
v 0.02960017 0.01077263 -0.00000019
v 0.03004182 0.00947309 -0.00199048
v 0.02960017 0.01077263 -0.00199048
f 713 714 718
f 713 718 715
f 713 715 719
f 713 719 716
f 713 716 720
f 713 720 724
f 713 724 728
f 713 728 732
f 713 732 736
f 713 736 739
f 713 739 743
f 713 743 747
f 713 747 751
f 713 751 754
f 713 754 753
f 713 753 749
f 713 749 745
f 713 745 741
f 713 741 737
f 713 737 733
f 713 733 729
f 713 729 725
f 713 725 721
f 713 721 717
f 713 717 714
f 714 717 722
f 714 722 718
f 715 718 722
f 715 722 726
f 715 726 730
f 715 730 734
f 715 734 738
f 715 738 742
f 715 742 746
f 715 746 750
f 715 750 752
f 715 752 748
f 715 748 744
f 715 744 740
f 715 740 735
f 715 735 731
f 715 731 727
f 715 727 723
f 715 723 719
f 716 719 723
f 716 723 720
f 717 721 726
f 717 726 722
f 720 723 727
f 720 727 724
f 721 725 726
f 724 727 728
f 725 729 730
f 725 730 726
f 727 731 728
f 728 731 732
f 729 733 734
f 729 734 730
f 731 735 736
f 731 736 732
f 733 737 738
f 733 738 734
f 735 739 736
f 735 740 743
f 735 743 739
f 737 741 742
f 737 742 738
f 740 744 747
f 740 747 743
f 741 745 746
f 741 746 742
f 744 748 751
f 744 751 747
f 745 749 746
f 746 749 750
f 748 752 754
f 748 754 751
f 749 753 750
f 750 753 754
f 750 754 752

o geometry_20
v 0.01941288 -0.02480049 -0.00199048
v 0.02024794 -0.02412876 -0.00199048
v 0.01941288 -0.02480049 -0.00000019
v 0.01941288 -0.01320699 -0.00199048
v 0.02033033 -0.02405768 -0.00199048
v 0.02024794 -0.02412876 -0.00000019
v 0.01941288 -0.01320699 -0.00000019
v 0.02509460 -0.00664611 -0.00199048
v 0.02128118 -0.02322246 -0.00199048
v 0.02128118 -0.02322246 -0.00000019
v 0.02509460 -0.00664611 -0.00000019
v 0.03078634 -0.00664611 -0.00199048
v 0.02136023 -0.02314783 -0.00199048
v 0.02227434 -0.02227352 -0.00000019
v 0.03078634 -0.00664611 -0.00000019
v 0.03077409 -0.00671186 -0.00199048
v 0.02227434 -0.02227352 -0.00199048
v 0.02322519 -0.02128014 -0.00000019
v 0.03075294 -0.00681848 -0.00000019
v 0.03075294 -0.00681848 -0.00199048
v 0.02322519 -0.02128014 -0.00199048
v 0.02413150 -0.02024768 -0.00000019
v 0.03042559 -0.00815305 -0.00000019
v 0.03045232 -0.00804820 -0.00199048
v 0.02413150 -0.02024768 -0.00199048
v 0.02499105 -0.01917433 -0.00000019
v 0.03042559 -0.00815305 -0.00199048
v 0.03004147 -0.00947340 -0.00000019
v 0.03007264 -0.00936855 -0.00199048
v 0.02499105 -0.01917433 -0.00199048
v 0.02505563 -0.01908726 -0.00199048
v 0.02580273 -0.01806723 -0.00000019
v 0.02959945 -0.01077420 -0.00000019
v 0.02963507 -0.01067113 -0.00199048
v 0.03004147 -0.00947340 -0.00199048
v 0.02580273 -0.01806723 -0.00199048
v 0.02586396 -0.01797660 -0.00199048
v 0.02656652 -0.01692459 -0.00000019
v 0.02959945 -0.01077420 -0.00199048
v 0.02910175 -0.01205546 -0.00000019
v 0.02914184 -0.01195417 -0.00199048
v 0.02656652 -0.01692459 -0.00199048
v 0.02727910 -0.01574995 -0.00000019
v 0.02854839 -0.01331361 -0.00000019
v 0.02910175 -0.01205546 -0.00199048
v 0.02727910 -0.01574995 -0.00199048
v 0.02733143 -0.01565577 -0.00199048
v 0.02794047 -0.01454511 -0.00000019
v 0.02854839 -0.01331361 -0.00199048
v 0.02794047 -0.01454511 -0.00199048
f 755 756 760
f 755 760 757
f 755 757 761
f 755 761 758
f 755 758 762
f 755 762 766
f 755 766 770
f 755 770 774
f 755 774 778
f 755 778 781
f 755 781 783
f 755 783 789
f 755 789 788
f 755 788 793
f 755 793 795
f 755 795 799
f 755 799 803
f 755 803 804
f 755 804 801
f 755 801 800
f 755 800 796
f 755 796 791
f 755 791 790
f 755 790 785
f 755 785 784
f 755 784 779
f 755 779 775
f 755 775 771
f 755 771 767
f 755 767 763
f 755 763 759
f 755 759 756
f 756 759 760
f 757 760 764
f 757 764 768
f 757 768 772
f 757 772 776
f 757 776 780
f 757 780 786
f 757 786 792
f 757 792 797
f 757 797 802
f 757 802 798
f 757 798 794
f 757 794 787
f 757 787 782
f 757 782 777
f 757 777 773
f 757 773 769
f 757 769 765
f 757 765 761
f 758 761 765
f 758 765 762
f 759 763 764
f 759 764 760
f 762 765 769
f 762 769 766
f 763 767 764
f 764 767 768
f 766 769 770
f 767 771 768
f 768 771 775
f 768 775 772
f 769 773 770
f 770 773 774
f 772 775 779
f 772 779 776
f 773 777 778
f 773 778 774
f 776 779 784
f 776 784 780
f 777 781 778
f 777 782 783
f 777 783 781
f 780 784 785
f 780 785 786
f 782 787 788
f 782 788 789
f 782 789 783
f 785 790 786
f 786 790 791
f 786 791 792
f 787 793 788
f 787 794 795
f 787 795 793
f 791 796 792
f 792 796 800
f 792 800 797
f 794 798 803
f 794 803 799
f 794 799 795
f 797 800 801
f 797 801 802
f 798 802 804
f 798 804 803
f 801 804 802

o geometry_21
v -0.01024492 -0.02977855 -0.00199078
v -0.00947150 -0.03004142 -0.00199078
v -0.01024492 -0.02977855 -0.00000019
v -0.01024492 -0.01772836 -0.00199078
v -0.00936617 -0.03007242 -0.00199078
v -0.00947150 -0.03004142 -0.00000019
v -0.01024492 -0.01772836 -0.00000019
v 0.00000221 -0.01920043 -0.00199078
v -0.00815236 -0.03042561 -0.00199078
v -0.00815236 -0.03042561 -0.00000019
v 0.00000221 -0.01920043 -0.00000019
v 0.00000221 -0.01925839 -0.00199078
v -0.00804603 -0.03045257 -0.00199078
v -0.00681717 -0.03075318 -0.00000019
v 0.00000221 -0.03149865 -0.00000019
v 0.00000221 -0.03149865 -0.00005866
v 0.00000021 -0.03149865 -0.00199078
v -0.00681717 -0.03075318 -0.00199078
v -0.00546895 -0.03102010 -0.00000019
v -0.00000080 -0.03150000 -0.00000019
v -0.00126476 -0.03147169 -0.00199078
v -0.00546895 -0.03102010 -0.00199078
v -0.00536161 -0.03103762 -0.00199078
v -0.00411169 -0.03123039 -0.00000019
v -0.00137410 -0.03146899 -0.00000019
v -0.00137410 -0.03146899 -0.00199078
v -0.00411169 -0.03123039 -0.00199078
v -0.00274540 -0.03138002 -0.00000019
v -0.00274540 -0.03138002 -0.00199078
f 805 806 810
f 805 810 807
f 805 807 811
f 805 811 808
f 805 808 812
f 805 812 816
f 805 816 821
f 805 821 825
f 805 825 830
f 805 830 833
f 805 833 831
f 805 831 827
f 805 827 826
f 805 826 822
f 805 822 817
f 805 817 813
f 805 813 809
f 805 809 806
f 806 809 810
f 807 810 814
f 807 814 818
f 807 818 823
f 807 823 828
f 807 828 832
f 807 832 829
f 807 829 824
f 807 824 819
f 807 819 815
f 807 815 811
f 808 811 815
f 808 815 812
f 809 813 814
f 809 814 810
f 812 815 819
f 812 819 820
f 812 820 816
f 813 817 814
f 814 817 818
f 816 820 821
f 817 822 818
f 818 822 826
f 818 826 823
f 819 824 820
f 820 824 821
f 821 824 825
f 823 826 827
f 823 827 828
f 824 829 825
f 825 829 830
f 827 831 828
f 828 831 833
f 828 833 832
f 829 832 833
f 829 833 830

o geometry_22
v -0.01891283 -0.01357246 -0.00000019
v -0.01891283 -0.01357246 -0.00199078
v -0.02841871 -0.01357246 -0.00000019
v -0.01024492 -0.01772900 -0.00000019
v -0.02841871 -0.01357246 -0.00199078
v -0.01024492 -0.01772900 -0.00199078
v -0.02794013 -0.01454655 -0.00000019
v -0.01024492 -0.02977978 -0.00000019
v -0.02794013 -0.01454655 -0.00199078
v -0.01024492 -0.02977978 -0.00199078
v -0.02727829 -0.01575068 -0.00000019
v -0.01077510 -0.02959892 -0.00000019
v -0.01067014 -0.02963541 -0.00199078
v -0.02727829 -0.01575068 -0.00199078
v -0.02656664 -0.01692625 -0.00000019
v -0.01205608 -0.02910077 -0.00000019
v -0.01077510 -0.02959892 -0.00199078
v -0.02656664 -0.01692625 -0.00199078
v -0.02580162 -0.01806850 -0.00000019
v -0.01205608 -0.02910077 -0.00199078
v -0.01331392 -0.02854868 -0.00000019
v -0.02580162 -0.01806850 -0.00199078
v -0.02573757 -0.01815734 -0.00199078
v -0.02499033 -0.01917744 -0.00000019
v -0.01331392 -0.02854868 -0.00199078
v -0.01454686 -0.02793948 -0.00000019
v -0.02499033 -0.01917744 -0.00199078
v -0.02412924 -0.02024830 -0.00000019
v -0.01454686 -0.02793948 -0.00199078
v -0.01575132 -0.02727951 -0.00000019
v -0.02412924 -0.02024830 -0.00199078
v -0.02405807 -0.02033080 -0.00199078
v -0.02322366 -0.02128268 -0.00000019
v -0.01575132 -0.02727951 -0.00199078
v -0.01692555 -0.02656560 -0.00000019
v -0.01683303 -0.02662271 -0.00199078
v -0.02322366 -0.02128268 -0.00199078
v -0.02227361 -0.02227263 -0.00000019
v -0.01806775 -0.02580251 -0.00000019
v -0.01692555 -0.02656560 -0.00199078
v -0.02227361 -0.02227263 -0.00199078
v -0.02128085 -0.02322292 -0.00000019
v -0.01806775 -0.02580251 -0.00199078
v -0.01917614 -0.02499024 -0.00000019
v -0.01908897 -0.02505529 -0.00199078
v -0.02128085 -0.02322292 -0.00199078
v -0.02024718 -0.02413038 -0.00000019
v -0.01917614 -0.02499024 -0.00199078
v -0.02024718 -0.02413038 -0.00199078
f 834 835 838
f 834 838 836
f 834 836 840
f 834 840 844
f 834 844 848
f 834 848 852
f 834 852 857
f 834 857 861
f 834 861 866
f 834 866 871
f 834 871 875
f 834 875 880
f 834 880 877
f 834 877 872
f 834 872 868
f 834 868 863
f 834 863 859
f 834 859 854
f 834 854 849
f 834 849 845
f 834 845 841
f 834 841 837
f 834 837 839
f 834 839 835
f 835 839 843
f 835 843 846
f 835 846 850
f 835 850 853
f 835 853 858
f 835 858 862
f 835 862 867
f 835 867 869
f 835 869 873
f 835 873 876
f 835 876 878
f 835 878 881
f 835 881 882
f 835 882 879
f 835 879 874
f 835 874 870
f 835 870 865
f 835 865 864
f 835 864 860
f 835 860 856
f 835 856 855
f 835 855 851
f 835 851 847
f 835 847 842
f 835 842 838
f 836 838 842
f 836 842 840
f 837 841 843
f 837 843 839
f 840 842 847
f 840 847 844
f 841 845 846
f 841 846 843
f 844 847 851
f 844 851 848
f 845 849 853
f 845 853 850
f 845 850 846
f 848 851 855
f 848 855 852
f 849 854 858
f 849 858 853
f 852 855 856
f 852 856 857
f 854 859 862
f 854 862 858
f 856 860 857
f 857 860 864
f 857 864 861
f 859 863 867
f 859 867 862
f 861 864 865
f 861 865 866
f 863 868 869
f 863 869 867
f 865 870 866
f 866 870 874
f 866 874 871
f 868 872 876
f 868 876 873
f 868 873 869
f 871 874 879
f 871 879 875
f 872 877 878
f 872 878 876
f 875 879 882
f 875 882 880
f 877 880 882
f 877 882 881
f 877 881 878

o geometry_23
v 0.00000322 -0.02639842 -0.01540982
v 0.00000322 -0.03149950 -0.02500000
v 0.00000322 -0.02639842 -0.01551793
v -0.00000008 -0.02639842 -0.00199078
v -0.00000008 -0.03149950 -0.00199078
v -0.00000008 -0.03149950 -0.02500000
v -0.00000008 -0.02639842 -0.02500000
v -0.01682018 -0.02639842 -0.00199078
v -0.00126480 -0.03147204 -0.00199078
v -0.00137513 -0.03146954 -0.02500000
v -0.01681688 -0.02639842 -0.02500000
v -0.01682018 -0.02639842 -0.00425432
v -0.01682018 -0.02663063 -0.00199078
v -0.00137513 -0.03146954 -0.00199078
v -0.00274689 -0.03137965 -0.02500000
v -0.00263655 -0.03138714 -0.00199078
v -0.01682018 -0.02640241 -0.02500000
v -0.01574977 -0.02727981 -0.00199078
v -0.01682018 -0.02663063 -0.02500000
v -0.00411206 -0.03123034 -0.02500000
v -0.00274689 -0.03137965 -0.00199078
v -0.00400337 -0.03124233 -0.00199078
v -0.01574977 -0.02727981 -0.02500000
v -0.01454434 -0.02794098 -0.00199078
v -0.00547064 -0.03102110 -0.02500000
v -0.00411206 -0.03123034 -0.00199078
v -0.01454434 -0.02794098 -0.02500000
v -0.01331091 -0.02854871 -0.00199078
v -0.00681935 -0.03075294 -0.02500000
v -0.00547064 -0.03102110 -0.00199078
v -0.01331091 -0.02854871 -0.02500000
v -0.01321210 -0.02859316 -0.00199078
v -0.00815323 -0.03042635 -0.02500000
v -0.00681935 -0.03075294 -0.00199078
v -0.00804784 -0.03045232 -0.00199078
v -0.01205443 -0.02910202 -0.02500000
v -0.01205443 -0.02910202 -0.00199078
v -0.00947065 -0.03004184 -0.02500000
v -0.00815323 -0.03042635 -0.00199078
v -0.00936690 -0.03007230 -0.00199078
v -0.01077324 -0.02959989 -0.02500000
v -0.01077324 -0.02959989 -0.00199078
v -0.00947065 -0.03004184 -0.00199078
v -0.01066949 -0.02963535 -0.00199078
f 883 884 885
f 883 885 889
f 883 889 893
f 883 893 894
f 883 894 890
f 883 890 886
f 883 886 887
f 883 887 884
f 884 888 892
f 884 892 897
f 884 897 902
f 884 902 907
f 884 907 911
f 884 911 915
f 884 915 920
f 884 920 923
f 884 923 918
f 884 918 913
f 884 913 909
f 884 909 905
f 884 905 901
f 884 901 899
f 884 899 893
f 884 893 889
f 884 889 885
f 884 887 888
f 886 890 895
f 886 895 900
f 886 900 906
f 886 906 910
f 886 910 914
f 886 914 919
f 886 919 924
f 886 924 926
f 886 926 925
f 886 925 922
f 886 922 921
f 886 921 917
f 886 917 916
f 886 916 912
f 886 912 908
f 886 908 904
f 886 904 903
f 886 903 898
f 886 898 896
f 886 896 891
f 886 891 887
f 887 891 888
f 888 891 892
f 890 894 899
f 890 899 901
f 890 901 895
f 891 896 892
f 892 896 898
f 892 898 897
f 893 899 894
f 895 901 905
f 895 905 900
f 897 898 903
f 897 903 904
f 897 904 902
f 900 905 909
f 900 909 906
f 902 904 908
f 902 908 912
f 902 912 907
f 906 909 913
f 906 913 910
f 907 912 916
f 907 916 911
f 910 913 914
f 911 916 917
f 911 917 915
f 913 918 914
f 914 918 919
f 915 917 921
f 915 921 922
f 915 922 920
f 918 923 924
f 918 924 919
f 920 922 925
f 920 925 926
f 920 926 923
f 923 926 924

o geometry_24
v 0.00000322 -0.01920043 -0.00199078
v 0.00000322 -0.01925900 -0.00199078
v 0.00000322 -0.01912462 -0.00200205
v 0.00000157 -0.01466478 -0.00200205
v -0.01682018 -0.01492895 -0.00199078
v -0.00000008 -0.02639727 -0.00199078
v 0.00000322 -0.02639727 -0.01540982
v 0.00000322 -0.01466478 -0.00735344
v -0.01682018 -0.01466478 -0.00199979
v -0.01682018 -0.02639727 -0.00199078
v 0.00000322 -0.02639727 -0.01551793
v 0.00000322 -0.01466478 -0.00738498
v -0.01682018 -0.01466478 -0.02500000
v -0.01682018 -0.02639727 -0.00425432
v -0.00000008 -0.02639727 -0.02500000
v 0.00000157 -0.01466478 -0.02500000
v -0.01682018 -0.02402091 -0.02500000
v -0.01681688 -0.02639727 -0.02500000
f 927 928 933
f 927 933 937
f 927 937 938
f 927 938 934
f 927 934 929
f 927 929 930
f 927 930 931
f 927 931 936
f 927 936 932
f 927 932 928
f 928 932 933
f 929 934 930
f 930 935 931
f 930 934 938
f 930 938 942
f 930 942 939
f 930 939 935
f 931 935 939
f 931 939 943
f 931 943 940
f 931 940 936
f 932 936 940
f 932 940 944
f 932 944 941
f 932 941 937
f 932 937 933
f 937 941 942
f 937 942 938
f 939 942 941
f 939 941 944
f 939 944 943
f 940 943 944